%TF.GenerationSoftware,KiCad,Pcbnew,7.0.1*%
%TF.CreationDate,2023-03-31T20:56:02+02:00*%
%TF.ProjectId,PMOD USB UART,504d4f44-2055-4534-9220-554152542e6b,V1.0*%
%TF.SameCoordinates,Original*%
%TF.FileFunction,Drillmap*%
%TF.FilePolarity,Positive*%
%FSLAX45Y45*%
G04 Gerber Fmt 4.5, Leading zero omitted, Abs format (unit mm)*
G04 Created by KiCad (PCBNEW 7.0.1) date 2023-03-31 20:56:02*
%MOMM*%
%LPD*%
G01*
G04 APERTURE LIST*
%ADD10C,0.100000*%
%ADD11C,0.200000*%
%ADD12C,0.040000*%
%ADD13C,0.092000*%
%ADD14C,0.233000*%
G04 APERTURE END LIST*
D10*
X14732000Y-11811000D02*
X14732000Y-9779000D01*
X14732000Y-9779000D02*
X9779000Y-9779000D01*
X9779000Y-9779000D02*
X9779000Y-11811000D01*
X9779000Y-11811000D02*
X14732000Y-11811000D01*
D11*
D12*
X11092500Y-11283000D02*
X11132500Y-11323000D01*
X11132500Y-11283000D02*
X11092500Y-11323000D01*
X11219500Y-10013000D02*
X11259500Y-10053000D01*
X11259500Y-10013000D02*
X11219500Y-10053000D01*
X11283000Y-10521000D02*
X11323000Y-10561000D01*
X11323000Y-10521000D02*
X11283000Y-10561000D01*
X11537000Y-11181400D02*
X11577000Y-11221400D01*
X11577000Y-11181400D02*
X11537000Y-11221400D01*
X11727500Y-11092500D02*
X11767500Y-11132500D01*
X11767500Y-11092500D02*
X11727500Y-11132500D01*
X11816400Y-11181400D02*
X11856400Y-11221400D01*
X11856400Y-11181400D02*
X11816400Y-11221400D01*
X11918000Y-11136350D02*
X11958000Y-11176350D01*
X11958000Y-11136350D02*
X11918000Y-11176350D01*
X11918000Y-11460800D02*
X11958000Y-11500800D01*
X11958000Y-11460800D02*
X11918000Y-11500800D01*
X12045000Y-11105200D02*
X12085000Y-11145200D01*
X12085000Y-11105200D02*
X12045000Y-11145200D01*
X12083100Y-10825800D02*
X12123100Y-10865800D01*
X12123100Y-10825800D02*
X12083100Y-10865800D01*
X12133900Y-11295700D02*
X12173900Y-11335700D01*
X12173900Y-11295700D02*
X12133900Y-11335700D01*
X12299000Y-10711500D02*
X12339000Y-10751500D01*
X12339000Y-10711500D02*
X12299000Y-10751500D01*
X12387900Y-10432100D02*
X12427900Y-10472100D01*
X12427900Y-10432100D02*
X12387900Y-10472100D01*
X12654600Y-10622600D02*
X12694600Y-10662600D01*
X12694600Y-10622600D02*
X12654600Y-10662600D01*
X12654600Y-11130600D02*
X12694600Y-11170600D01*
X12694600Y-11130600D02*
X12654600Y-11170600D01*
X12705400Y-11359200D02*
X12745400Y-11399200D01*
X12745400Y-11359200D02*
X12705400Y-11399200D01*
X13010200Y-10775000D02*
X13050200Y-10815000D01*
X13050200Y-10775000D02*
X13010200Y-10815000D01*
X13099100Y-11435400D02*
X13139100Y-11475400D01*
X13139100Y-11435400D02*
X13099100Y-11475400D01*
X13142950Y-10965500D02*
X13182950Y-11005500D01*
X13182950Y-10965500D02*
X13142950Y-11005500D01*
X13142950Y-11092500D02*
X13182950Y-11132500D01*
X13182950Y-11092500D02*
X13142950Y-11132500D01*
X13657900Y-10622600D02*
X13697900Y-10662600D01*
X13697900Y-10622600D02*
X13657900Y-10662600D01*
X13708700Y-11029000D02*
X13748700Y-11069000D01*
X13748700Y-11029000D02*
X13708700Y-11069000D01*
D13*
X14016000Y-10668000D02*
G75*
G03*
X14016000Y-10668000I-46000J0D01*
G01*
X14016000Y-10918000D02*
G75*
G03*
X14016000Y-10918000I-46000J0D01*
G01*
X14216000Y-10668000D02*
G75*
G03*
X14216000Y-10668000I-46000J0D01*
G01*
X14216000Y-10918000D02*
G75*
G03*
X14216000Y-10918000I-46000J0D01*
G01*
D10*
X10160000Y-10110000D02*
X10160000Y-10210000D01*
X10110000Y-10160000D02*
X10210000Y-10160000D01*
X10160000Y-10364000D02*
X10160000Y-10464000D01*
X10110000Y-10414000D02*
X10210000Y-10414000D01*
X10160000Y-10618000D02*
X10160000Y-10718000D01*
X10110000Y-10668000D02*
X10210000Y-10668000D01*
X10160000Y-10872000D02*
X10160000Y-10972000D01*
X10110000Y-10922000D02*
X10210000Y-10922000D01*
X10160000Y-11126000D02*
X10160000Y-11226000D01*
X10110000Y-11176000D02*
X10210000Y-11176000D01*
X10160000Y-11380000D02*
X10160000Y-11480000D01*
X10110000Y-11430000D02*
X10210000Y-11430000D01*
D14*
X14523379Y-10273379D02*
X14523379Y-10108621D01*
X14358621Y-10108621D01*
X14358621Y-10273379D01*
X14523379Y-10273379D01*
X14523379Y-11477379D02*
X14523379Y-11312621D01*
X14358621Y-11312621D01*
X14358621Y-11477379D01*
X14523379Y-11477379D01*
D11*
X10021619Y-12128524D02*
X10021619Y-11928524D01*
X10021619Y-11928524D02*
X10069238Y-11928524D01*
X10069238Y-11928524D02*
X10097810Y-11938048D01*
X10097810Y-11938048D02*
X10116857Y-11957095D01*
X10116857Y-11957095D02*
X10126381Y-11976143D01*
X10126381Y-11976143D02*
X10135905Y-12014238D01*
X10135905Y-12014238D02*
X10135905Y-12042809D01*
X10135905Y-12042809D02*
X10126381Y-12080905D01*
X10126381Y-12080905D02*
X10116857Y-12099952D01*
X10116857Y-12099952D02*
X10097810Y-12119000D01*
X10097810Y-12119000D02*
X10069238Y-12128524D01*
X10069238Y-12128524D02*
X10021619Y-12128524D01*
X10221619Y-12128524D02*
X10221619Y-11995190D01*
X10221619Y-12033286D02*
X10231143Y-12014238D01*
X10231143Y-12014238D02*
X10240667Y-12004714D01*
X10240667Y-12004714D02*
X10259714Y-11995190D01*
X10259714Y-11995190D02*
X10278762Y-11995190D01*
X10345429Y-12128524D02*
X10345429Y-11995190D01*
X10345429Y-11928524D02*
X10335905Y-11938048D01*
X10335905Y-11938048D02*
X10345429Y-11947571D01*
X10345429Y-11947571D02*
X10354952Y-11938048D01*
X10354952Y-11938048D02*
X10345429Y-11928524D01*
X10345429Y-11928524D02*
X10345429Y-11947571D01*
X10469238Y-12128524D02*
X10450190Y-12119000D01*
X10450190Y-12119000D02*
X10440667Y-12099952D01*
X10440667Y-12099952D02*
X10440667Y-11928524D01*
X10574000Y-12128524D02*
X10554952Y-12119000D01*
X10554952Y-12119000D02*
X10545429Y-12099952D01*
X10545429Y-12099952D02*
X10545429Y-11928524D01*
X10802571Y-12128524D02*
X10802571Y-11928524D01*
X10802571Y-11928524D02*
X10869238Y-12071381D01*
X10869238Y-12071381D02*
X10935905Y-11928524D01*
X10935905Y-11928524D02*
X10935905Y-12128524D01*
X11116857Y-12128524D02*
X11116857Y-12023762D01*
X11116857Y-12023762D02*
X11107333Y-12004714D01*
X11107333Y-12004714D02*
X11088286Y-11995190D01*
X11088286Y-11995190D02*
X11050190Y-11995190D01*
X11050190Y-11995190D02*
X11031143Y-12004714D01*
X11116857Y-12119000D02*
X11097810Y-12128524D01*
X11097810Y-12128524D02*
X11050190Y-12128524D01*
X11050190Y-12128524D02*
X11031143Y-12119000D01*
X11031143Y-12119000D02*
X11021619Y-12099952D01*
X11021619Y-12099952D02*
X11021619Y-12080905D01*
X11021619Y-12080905D02*
X11031143Y-12061857D01*
X11031143Y-12061857D02*
X11050190Y-12052333D01*
X11050190Y-12052333D02*
X11097810Y-12052333D01*
X11097810Y-12052333D02*
X11116857Y-12042809D01*
X11212095Y-11995190D02*
X11212095Y-12195190D01*
X11212095Y-12004714D02*
X11231143Y-11995190D01*
X11231143Y-11995190D02*
X11269238Y-11995190D01*
X11269238Y-11995190D02*
X11288286Y-12004714D01*
X11288286Y-12004714D02*
X11297809Y-12014238D01*
X11297809Y-12014238D02*
X11307333Y-12033286D01*
X11307333Y-12033286D02*
X11307333Y-12090428D01*
X11307333Y-12090428D02*
X11297809Y-12109476D01*
X11297809Y-12109476D02*
X11288286Y-12119000D01*
X11288286Y-12119000D02*
X11269238Y-12128524D01*
X11269238Y-12128524D02*
X11231143Y-12128524D01*
X11231143Y-12128524D02*
X11212095Y-12119000D01*
X11393048Y-12109476D02*
X11402571Y-12119000D01*
X11402571Y-12119000D02*
X11393048Y-12128524D01*
X11393048Y-12128524D02*
X11383524Y-12119000D01*
X11383524Y-12119000D02*
X11393048Y-12109476D01*
X11393048Y-12109476D02*
X11393048Y-12128524D01*
X11393048Y-12004714D02*
X11402571Y-12014238D01*
X11402571Y-12014238D02*
X11393048Y-12023762D01*
X11393048Y-12023762D02*
X11383524Y-12014238D01*
X11383524Y-12014238D02*
X11393048Y-12004714D01*
X11393048Y-12004714D02*
X11393048Y-12023762D01*
D12*
X9734000Y-12436000D02*
X9774000Y-12476000D01*
X9774000Y-12436000D02*
X9734000Y-12476000D01*
D11*
X10059714Y-12348524D02*
X10078762Y-12348524D01*
X10078762Y-12348524D02*
X10097810Y-12358048D01*
X10097810Y-12358048D02*
X10107333Y-12367571D01*
X10107333Y-12367571D02*
X10116857Y-12386619D01*
X10116857Y-12386619D02*
X10126381Y-12424714D01*
X10126381Y-12424714D02*
X10126381Y-12472333D01*
X10126381Y-12472333D02*
X10116857Y-12510428D01*
X10116857Y-12510428D02*
X10107333Y-12529476D01*
X10107333Y-12529476D02*
X10097810Y-12539000D01*
X10097810Y-12539000D02*
X10078762Y-12548524D01*
X10078762Y-12548524D02*
X10059714Y-12548524D01*
X10059714Y-12548524D02*
X10040667Y-12539000D01*
X10040667Y-12539000D02*
X10031143Y-12529476D01*
X10031143Y-12529476D02*
X10021619Y-12510428D01*
X10021619Y-12510428D02*
X10012095Y-12472333D01*
X10012095Y-12472333D02*
X10012095Y-12424714D01*
X10012095Y-12424714D02*
X10021619Y-12386619D01*
X10021619Y-12386619D02*
X10031143Y-12367571D01*
X10031143Y-12367571D02*
X10040667Y-12358048D01*
X10040667Y-12358048D02*
X10059714Y-12348524D01*
X10212095Y-12529476D02*
X10221619Y-12539000D01*
X10221619Y-12539000D02*
X10212095Y-12548524D01*
X10212095Y-12548524D02*
X10202571Y-12539000D01*
X10202571Y-12539000D02*
X10212095Y-12529476D01*
X10212095Y-12529476D02*
X10212095Y-12548524D01*
X10393048Y-12415190D02*
X10393048Y-12548524D01*
X10345429Y-12339000D02*
X10297810Y-12481857D01*
X10297810Y-12481857D02*
X10421619Y-12481857D01*
X10535905Y-12348524D02*
X10554952Y-12348524D01*
X10554952Y-12348524D02*
X10574000Y-12358048D01*
X10574000Y-12358048D02*
X10583524Y-12367571D01*
X10583524Y-12367571D02*
X10593048Y-12386619D01*
X10593048Y-12386619D02*
X10602571Y-12424714D01*
X10602571Y-12424714D02*
X10602571Y-12472333D01*
X10602571Y-12472333D02*
X10593048Y-12510428D01*
X10593048Y-12510428D02*
X10583524Y-12529476D01*
X10583524Y-12529476D02*
X10574000Y-12539000D01*
X10574000Y-12539000D02*
X10554952Y-12548524D01*
X10554952Y-12548524D02*
X10535905Y-12548524D01*
X10535905Y-12548524D02*
X10516857Y-12539000D01*
X10516857Y-12539000D02*
X10507333Y-12529476D01*
X10507333Y-12529476D02*
X10497810Y-12510428D01*
X10497810Y-12510428D02*
X10488286Y-12472333D01*
X10488286Y-12472333D02*
X10488286Y-12424714D01*
X10488286Y-12424714D02*
X10497810Y-12386619D01*
X10497810Y-12386619D02*
X10507333Y-12367571D01*
X10507333Y-12367571D02*
X10516857Y-12358048D01*
X10516857Y-12358048D02*
X10535905Y-12348524D01*
X10726381Y-12348524D02*
X10745429Y-12348524D01*
X10745429Y-12348524D02*
X10764476Y-12358048D01*
X10764476Y-12358048D02*
X10774000Y-12367571D01*
X10774000Y-12367571D02*
X10783524Y-12386619D01*
X10783524Y-12386619D02*
X10793048Y-12424714D01*
X10793048Y-12424714D02*
X10793048Y-12472333D01*
X10793048Y-12472333D02*
X10783524Y-12510428D01*
X10783524Y-12510428D02*
X10774000Y-12529476D01*
X10774000Y-12529476D02*
X10764476Y-12539000D01*
X10764476Y-12539000D02*
X10745429Y-12548524D01*
X10745429Y-12548524D02*
X10726381Y-12548524D01*
X10726381Y-12548524D02*
X10707333Y-12539000D01*
X10707333Y-12539000D02*
X10697810Y-12529476D01*
X10697810Y-12529476D02*
X10688286Y-12510428D01*
X10688286Y-12510428D02*
X10678762Y-12472333D01*
X10678762Y-12472333D02*
X10678762Y-12424714D01*
X10678762Y-12424714D02*
X10688286Y-12386619D01*
X10688286Y-12386619D02*
X10697810Y-12367571D01*
X10697810Y-12367571D02*
X10707333Y-12358048D01*
X10707333Y-12358048D02*
X10726381Y-12348524D01*
X10878762Y-12548524D02*
X10878762Y-12415190D01*
X10878762Y-12434238D02*
X10888286Y-12424714D01*
X10888286Y-12424714D02*
X10907333Y-12415190D01*
X10907333Y-12415190D02*
X10935905Y-12415190D01*
X10935905Y-12415190D02*
X10954952Y-12424714D01*
X10954952Y-12424714D02*
X10964476Y-12443762D01*
X10964476Y-12443762D02*
X10964476Y-12548524D01*
X10964476Y-12443762D02*
X10974000Y-12424714D01*
X10974000Y-12424714D02*
X10993048Y-12415190D01*
X10993048Y-12415190D02*
X11021619Y-12415190D01*
X11021619Y-12415190D02*
X11040667Y-12424714D01*
X11040667Y-12424714D02*
X11050191Y-12443762D01*
X11050191Y-12443762D02*
X11050191Y-12548524D01*
X11145429Y-12548524D02*
X11145429Y-12415190D01*
X11145429Y-12434238D02*
X11154952Y-12424714D01*
X11154952Y-12424714D02*
X11174000Y-12415190D01*
X11174000Y-12415190D02*
X11202571Y-12415190D01*
X11202571Y-12415190D02*
X11221619Y-12424714D01*
X11221619Y-12424714D02*
X11231143Y-12443762D01*
X11231143Y-12443762D02*
X11231143Y-12548524D01*
X11231143Y-12443762D02*
X11240667Y-12424714D01*
X11240667Y-12424714D02*
X11259714Y-12415190D01*
X11259714Y-12415190D02*
X11288286Y-12415190D01*
X11288286Y-12415190D02*
X11307333Y-12424714D01*
X11307333Y-12424714D02*
X11316857Y-12443762D01*
X11316857Y-12443762D02*
X11316857Y-12548524D01*
X11707333Y-12339000D02*
X11535905Y-12596143D01*
X11964476Y-12348524D02*
X11983524Y-12348524D01*
X11983524Y-12348524D02*
X12002572Y-12358048D01*
X12002572Y-12358048D02*
X12012095Y-12367571D01*
X12012095Y-12367571D02*
X12021619Y-12386619D01*
X12021619Y-12386619D02*
X12031143Y-12424714D01*
X12031143Y-12424714D02*
X12031143Y-12472333D01*
X12031143Y-12472333D02*
X12021619Y-12510428D01*
X12021619Y-12510428D02*
X12012095Y-12529476D01*
X12012095Y-12529476D02*
X12002572Y-12539000D01*
X12002572Y-12539000D02*
X11983524Y-12548524D01*
X11983524Y-12548524D02*
X11964476Y-12548524D01*
X11964476Y-12548524D02*
X11945429Y-12539000D01*
X11945429Y-12539000D02*
X11935905Y-12529476D01*
X11935905Y-12529476D02*
X11926381Y-12510428D01*
X11926381Y-12510428D02*
X11916857Y-12472333D01*
X11916857Y-12472333D02*
X11916857Y-12424714D01*
X11916857Y-12424714D02*
X11926381Y-12386619D01*
X11926381Y-12386619D02*
X11935905Y-12367571D01*
X11935905Y-12367571D02*
X11945429Y-12358048D01*
X11945429Y-12358048D02*
X11964476Y-12348524D01*
X12116857Y-12529476D02*
X12126381Y-12539000D01*
X12126381Y-12539000D02*
X12116857Y-12548524D01*
X12116857Y-12548524D02*
X12107333Y-12539000D01*
X12107333Y-12539000D02*
X12116857Y-12529476D01*
X12116857Y-12529476D02*
X12116857Y-12548524D01*
X12250191Y-12348524D02*
X12269238Y-12348524D01*
X12269238Y-12348524D02*
X12288286Y-12358048D01*
X12288286Y-12358048D02*
X12297810Y-12367571D01*
X12297810Y-12367571D02*
X12307333Y-12386619D01*
X12307333Y-12386619D02*
X12316857Y-12424714D01*
X12316857Y-12424714D02*
X12316857Y-12472333D01*
X12316857Y-12472333D02*
X12307333Y-12510428D01*
X12307333Y-12510428D02*
X12297810Y-12529476D01*
X12297810Y-12529476D02*
X12288286Y-12539000D01*
X12288286Y-12539000D02*
X12269238Y-12548524D01*
X12269238Y-12548524D02*
X12250191Y-12548524D01*
X12250191Y-12548524D02*
X12231143Y-12539000D01*
X12231143Y-12539000D02*
X12221619Y-12529476D01*
X12221619Y-12529476D02*
X12212095Y-12510428D01*
X12212095Y-12510428D02*
X12202572Y-12472333D01*
X12202572Y-12472333D02*
X12202572Y-12424714D01*
X12202572Y-12424714D02*
X12212095Y-12386619D01*
X12212095Y-12386619D02*
X12221619Y-12367571D01*
X12221619Y-12367571D02*
X12231143Y-12358048D01*
X12231143Y-12358048D02*
X12250191Y-12348524D01*
X12507333Y-12548524D02*
X12393048Y-12548524D01*
X12450191Y-12548524D02*
X12450191Y-12348524D01*
X12450191Y-12348524D02*
X12431143Y-12377095D01*
X12431143Y-12377095D02*
X12412095Y-12396143D01*
X12412095Y-12396143D02*
X12393048Y-12405667D01*
X12688286Y-12348524D02*
X12593048Y-12348524D01*
X12593048Y-12348524D02*
X12583524Y-12443762D01*
X12583524Y-12443762D02*
X12593048Y-12434238D01*
X12593048Y-12434238D02*
X12612095Y-12424714D01*
X12612095Y-12424714D02*
X12659714Y-12424714D01*
X12659714Y-12424714D02*
X12678762Y-12434238D01*
X12678762Y-12434238D02*
X12688286Y-12443762D01*
X12688286Y-12443762D02*
X12697810Y-12462809D01*
X12697810Y-12462809D02*
X12697810Y-12510428D01*
X12697810Y-12510428D02*
X12688286Y-12529476D01*
X12688286Y-12529476D02*
X12678762Y-12539000D01*
X12678762Y-12539000D02*
X12659714Y-12548524D01*
X12659714Y-12548524D02*
X12612095Y-12548524D01*
X12612095Y-12548524D02*
X12593048Y-12539000D01*
X12593048Y-12539000D02*
X12583524Y-12529476D01*
X12764476Y-12348524D02*
X12897810Y-12348524D01*
X12897810Y-12348524D02*
X12812095Y-12548524D01*
X12964476Y-12348524D02*
X12964476Y-12386619D01*
X13040667Y-12348524D02*
X13040667Y-12386619D01*
X13335905Y-12624714D02*
X13326381Y-12615190D01*
X13326381Y-12615190D02*
X13307334Y-12586619D01*
X13307334Y-12586619D02*
X13297810Y-12567571D01*
X13297810Y-12567571D02*
X13288286Y-12539000D01*
X13288286Y-12539000D02*
X13278762Y-12491381D01*
X13278762Y-12491381D02*
X13278762Y-12453286D01*
X13278762Y-12453286D02*
X13288286Y-12405667D01*
X13288286Y-12405667D02*
X13297810Y-12377095D01*
X13297810Y-12377095D02*
X13307334Y-12358048D01*
X13307334Y-12358048D02*
X13326381Y-12329476D01*
X13326381Y-12329476D02*
X13335905Y-12319952D01*
X13402572Y-12367571D02*
X13412095Y-12358048D01*
X13412095Y-12358048D02*
X13431143Y-12348524D01*
X13431143Y-12348524D02*
X13478762Y-12348524D01*
X13478762Y-12348524D02*
X13497810Y-12358048D01*
X13497810Y-12358048D02*
X13507334Y-12367571D01*
X13507334Y-12367571D02*
X13516857Y-12386619D01*
X13516857Y-12386619D02*
X13516857Y-12405667D01*
X13516857Y-12405667D02*
X13507334Y-12434238D01*
X13507334Y-12434238D02*
X13393048Y-12548524D01*
X13393048Y-12548524D02*
X13516857Y-12548524D01*
X13593048Y-12367571D02*
X13602572Y-12358048D01*
X13602572Y-12358048D02*
X13621619Y-12348524D01*
X13621619Y-12348524D02*
X13669238Y-12348524D01*
X13669238Y-12348524D02*
X13688286Y-12358048D01*
X13688286Y-12358048D02*
X13697810Y-12367571D01*
X13697810Y-12367571D02*
X13707334Y-12386619D01*
X13707334Y-12386619D02*
X13707334Y-12405667D01*
X13707334Y-12405667D02*
X13697810Y-12434238D01*
X13697810Y-12434238D02*
X13583524Y-12548524D01*
X13583524Y-12548524D02*
X13707334Y-12548524D01*
X13945429Y-12548524D02*
X13945429Y-12348524D01*
X14031143Y-12548524D02*
X14031143Y-12443762D01*
X14031143Y-12443762D02*
X14021619Y-12424714D01*
X14021619Y-12424714D02*
X14002572Y-12415190D01*
X14002572Y-12415190D02*
X13974000Y-12415190D01*
X13974000Y-12415190D02*
X13954953Y-12424714D01*
X13954953Y-12424714D02*
X13945429Y-12434238D01*
X14154953Y-12548524D02*
X14135905Y-12539000D01*
X14135905Y-12539000D02*
X14126381Y-12529476D01*
X14126381Y-12529476D02*
X14116857Y-12510428D01*
X14116857Y-12510428D02*
X14116857Y-12453286D01*
X14116857Y-12453286D02*
X14126381Y-12434238D01*
X14126381Y-12434238D02*
X14135905Y-12424714D01*
X14135905Y-12424714D02*
X14154953Y-12415190D01*
X14154953Y-12415190D02*
X14183524Y-12415190D01*
X14183524Y-12415190D02*
X14202572Y-12424714D01*
X14202572Y-12424714D02*
X14212096Y-12434238D01*
X14212096Y-12434238D02*
X14221619Y-12453286D01*
X14221619Y-12453286D02*
X14221619Y-12510428D01*
X14221619Y-12510428D02*
X14212096Y-12529476D01*
X14212096Y-12529476D02*
X14202572Y-12539000D01*
X14202572Y-12539000D02*
X14183524Y-12548524D01*
X14183524Y-12548524D02*
X14154953Y-12548524D01*
X14335905Y-12548524D02*
X14316857Y-12539000D01*
X14316857Y-12539000D02*
X14307334Y-12519952D01*
X14307334Y-12519952D02*
X14307334Y-12348524D01*
X14488286Y-12539000D02*
X14469238Y-12548524D01*
X14469238Y-12548524D02*
X14431143Y-12548524D01*
X14431143Y-12548524D02*
X14412096Y-12539000D01*
X14412096Y-12539000D02*
X14402572Y-12519952D01*
X14402572Y-12519952D02*
X14402572Y-12443762D01*
X14402572Y-12443762D02*
X14412096Y-12424714D01*
X14412096Y-12424714D02*
X14431143Y-12415190D01*
X14431143Y-12415190D02*
X14469238Y-12415190D01*
X14469238Y-12415190D02*
X14488286Y-12424714D01*
X14488286Y-12424714D02*
X14497810Y-12443762D01*
X14497810Y-12443762D02*
X14497810Y-12462809D01*
X14497810Y-12462809D02*
X14402572Y-12481857D01*
X14574000Y-12539000D02*
X14593048Y-12548524D01*
X14593048Y-12548524D02*
X14631143Y-12548524D01*
X14631143Y-12548524D02*
X14650191Y-12539000D01*
X14650191Y-12539000D02*
X14659715Y-12519952D01*
X14659715Y-12519952D02*
X14659715Y-12510428D01*
X14659715Y-12510428D02*
X14650191Y-12491381D01*
X14650191Y-12491381D02*
X14631143Y-12481857D01*
X14631143Y-12481857D02*
X14602572Y-12481857D01*
X14602572Y-12481857D02*
X14583524Y-12472333D01*
X14583524Y-12472333D02*
X14574000Y-12453286D01*
X14574000Y-12453286D02*
X14574000Y-12443762D01*
X14574000Y-12443762D02*
X14583524Y-12424714D01*
X14583524Y-12424714D02*
X14602572Y-12415190D01*
X14602572Y-12415190D02*
X14631143Y-12415190D01*
X14631143Y-12415190D02*
X14650191Y-12424714D01*
X14726381Y-12624714D02*
X14735905Y-12615190D01*
X14735905Y-12615190D02*
X14754953Y-12586619D01*
X14754953Y-12586619D02*
X14764477Y-12567571D01*
X14764477Y-12567571D02*
X14774000Y-12539000D01*
X14774000Y-12539000D02*
X14783524Y-12491381D01*
X14783524Y-12491381D02*
X14783524Y-12453286D01*
X14783524Y-12453286D02*
X14774000Y-12405667D01*
X14774000Y-12405667D02*
X14764477Y-12377095D01*
X14764477Y-12377095D02*
X14754953Y-12358048D01*
X14754953Y-12358048D02*
X14735905Y-12329476D01*
X14735905Y-12329476D02*
X14726381Y-12319952D01*
D13*
X9774000Y-12720000D02*
G75*
G03*
X9774000Y-12720000I-46000J0D01*
G01*
D11*
X10059714Y-12612524D02*
X10078762Y-12612524D01*
X10078762Y-12612524D02*
X10097810Y-12622048D01*
X10097810Y-12622048D02*
X10107333Y-12631571D01*
X10107333Y-12631571D02*
X10116857Y-12650619D01*
X10116857Y-12650619D02*
X10126381Y-12688714D01*
X10126381Y-12688714D02*
X10126381Y-12736333D01*
X10126381Y-12736333D02*
X10116857Y-12774428D01*
X10116857Y-12774428D02*
X10107333Y-12793476D01*
X10107333Y-12793476D02*
X10097810Y-12803000D01*
X10097810Y-12803000D02*
X10078762Y-12812524D01*
X10078762Y-12812524D02*
X10059714Y-12812524D01*
X10059714Y-12812524D02*
X10040667Y-12803000D01*
X10040667Y-12803000D02*
X10031143Y-12793476D01*
X10031143Y-12793476D02*
X10021619Y-12774428D01*
X10021619Y-12774428D02*
X10012095Y-12736333D01*
X10012095Y-12736333D02*
X10012095Y-12688714D01*
X10012095Y-12688714D02*
X10021619Y-12650619D01*
X10021619Y-12650619D02*
X10031143Y-12631571D01*
X10031143Y-12631571D02*
X10040667Y-12622048D01*
X10040667Y-12622048D02*
X10059714Y-12612524D01*
X10212095Y-12793476D02*
X10221619Y-12803000D01*
X10221619Y-12803000D02*
X10212095Y-12812524D01*
X10212095Y-12812524D02*
X10202571Y-12803000D01*
X10202571Y-12803000D02*
X10212095Y-12793476D01*
X10212095Y-12793476D02*
X10212095Y-12812524D01*
X10316857Y-12812524D02*
X10354952Y-12812524D01*
X10354952Y-12812524D02*
X10374000Y-12803000D01*
X10374000Y-12803000D02*
X10383524Y-12793476D01*
X10383524Y-12793476D02*
X10402571Y-12764905D01*
X10402571Y-12764905D02*
X10412095Y-12726809D01*
X10412095Y-12726809D02*
X10412095Y-12650619D01*
X10412095Y-12650619D02*
X10402571Y-12631571D01*
X10402571Y-12631571D02*
X10393048Y-12622048D01*
X10393048Y-12622048D02*
X10374000Y-12612524D01*
X10374000Y-12612524D02*
X10335905Y-12612524D01*
X10335905Y-12612524D02*
X10316857Y-12622048D01*
X10316857Y-12622048D02*
X10307333Y-12631571D01*
X10307333Y-12631571D02*
X10297810Y-12650619D01*
X10297810Y-12650619D02*
X10297810Y-12698238D01*
X10297810Y-12698238D02*
X10307333Y-12717286D01*
X10307333Y-12717286D02*
X10316857Y-12726809D01*
X10316857Y-12726809D02*
X10335905Y-12736333D01*
X10335905Y-12736333D02*
X10374000Y-12736333D01*
X10374000Y-12736333D02*
X10393048Y-12726809D01*
X10393048Y-12726809D02*
X10402571Y-12717286D01*
X10402571Y-12717286D02*
X10412095Y-12698238D01*
X10488286Y-12631571D02*
X10497810Y-12622048D01*
X10497810Y-12622048D02*
X10516857Y-12612524D01*
X10516857Y-12612524D02*
X10564476Y-12612524D01*
X10564476Y-12612524D02*
X10583524Y-12622048D01*
X10583524Y-12622048D02*
X10593048Y-12631571D01*
X10593048Y-12631571D02*
X10602571Y-12650619D01*
X10602571Y-12650619D02*
X10602571Y-12669667D01*
X10602571Y-12669667D02*
X10593048Y-12698238D01*
X10593048Y-12698238D02*
X10478762Y-12812524D01*
X10478762Y-12812524D02*
X10602571Y-12812524D01*
X10726381Y-12612524D02*
X10745429Y-12612524D01*
X10745429Y-12612524D02*
X10764476Y-12622048D01*
X10764476Y-12622048D02*
X10774000Y-12631571D01*
X10774000Y-12631571D02*
X10783524Y-12650619D01*
X10783524Y-12650619D02*
X10793048Y-12688714D01*
X10793048Y-12688714D02*
X10793048Y-12736333D01*
X10793048Y-12736333D02*
X10783524Y-12774428D01*
X10783524Y-12774428D02*
X10774000Y-12793476D01*
X10774000Y-12793476D02*
X10764476Y-12803000D01*
X10764476Y-12803000D02*
X10745429Y-12812524D01*
X10745429Y-12812524D02*
X10726381Y-12812524D01*
X10726381Y-12812524D02*
X10707333Y-12803000D01*
X10707333Y-12803000D02*
X10697810Y-12793476D01*
X10697810Y-12793476D02*
X10688286Y-12774428D01*
X10688286Y-12774428D02*
X10678762Y-12736333D01*
X10678762Y-12736333D02*
X10678762Y-12688714D01*
X10678762Y-12688714D02*
X10688286Y-12650619D01*
X10688286Y-12650619D02*
X10697810Y-12631571D01*
X10697810Y-12631571D02*
X10707333Y-12622048D01*
X10707333Y-12622048D02*
X10726381Y-12612524D01*
X10878762Y-12812524D02*
X10878762Y-12679190D01*
X10878762Y-12698238D02*
X10888286Y-12688714D01*
X10888286Y-12688714D02*
X10907333Y-12679190D01*
X10907333Y-12679190D02*
X10935905Y-12679190D01*
X10935905Y-12679190D02*
X10954952Y-12688714D01*
X10954952Y-12688714D02*
X10964476Y-12707762D01*
X10964476Y-12707762D02*
X10964476Y-12812524D01*
X10964476Y-12707762D02*
X10974000Y-12688714D01*
X10974000Y-12688714D02*
X10993048Y-12679190D01*
X10993048Y-12679190D02*
X11021619Y-12679190D01*
X11021619Y-12679190D02*
X11040667Y-12688714D01*
X11040667Y-12688714D02*
X11050191Y-12707762D01*
X11050191Y-12707762D02*
X11050191Y-12812524D01*
X11145429Y-12812524D02*
X11145429Y-12679190D01*
X11145429Y-12698238D02*
X11154952Y-12688714D01*
X11154952Y-12688714D02*
X11174000Y-12679190D01*
X11174000Y-12679190D02*
X11202571Y-12679190D01*
X11202571Y-12679190D02*
X11221619Y-12688714D01*
X11221619Y-12688714D02*
X11231143Y-12707762D01*
X11231143Y-12707762D02*
X11231143Y-12812524D01*
X11231143Y-12707762D02*
X11240667Y-12688714D01*
X11240667Y-12688714D02*
X11259714Y-12679190D01*
X11259714Y-12679190D02*
X11288286Y-12679190D01*
X11288286Y-12679190D02*
X11307333Y-12688714D01*
X11307333Y-12688714D02*
X11316857Y-12707762D01*
X11316857Y-12707762D02*
X11316857Y-12812524D01*
X11707333Y-12603000D02*
X11535905Y-12860143D01*
X11964476Y-12612524D02*
X11983524Y-12612524D01*
X11983524Y-12612524D02*
X12002572Y-12622048D01*
X12002572Y-12622048D02*
X12012095Y-12631571D01*
X12012095Y-12631571D02*
X12021619Y-12650619D01*
X12021619Y-12650619D02*
X12031143Y-12688714D01*
X12031143Y-12688714D02*
X12031143Y-12736333D01*
X12031143Y-12736333D02*
X12021619Y-12774428D01*
X12021619Y-12774428D02*
X12012095Y-12793476D01*
X12012095Y-12793476D02*
X12002572Y-12803000D01*
X12002572Y-12803000D02*
X11983524Y-12812524D01*
X11983524Y-12812524D02*
X11964476Y-12812524D01*
X11964476Y-12812524D02*
X11945429Y-12803000D01*
X11945429Y-12803000D02*
X11935905Y-12793476D01*
X11935905Y-12793476D02*
X11926381Y-12774428D01*
X11926381Y-12774428D02*
X11916857Y-12736333D01*
X11916857Y-12736333D02*
X11916857Y-12688714D01*
X11916857Y-12688714D02*
X11926381Y-12650619D01*
X11926381Y-12650619D02*
X11935905Y-12631571D01*
X11935905Y-12631571D02*
X11945429Y-12622048D01*
X11945429Y-12622048D02*
X11964476Y-12612524D01*
X12116857Y-12793476D02*
X12126381Y-12803000D01*
X12126381Y-12803000D02*
X12116857Y-12812524D01*
X12116857Y-12812524D02*
X12107333Y-12803000D01*
X12107333Y-12803000D02*
X12116857Y-12793476D01*
X12116857Y-12793476D02*
X12116857Y-12812524D01*
X12250191Y-12612524D02*
X12269238Y-12612524D01*
X12269238Y-12612524D02*
X12288286Y-12622048D01*
X12288286Y-12622048D02*
X12297810Y-12631571D01*
X12297810Y-12631571D02*
X12307333Y-12650619D01*
X12307333Y-12650619D02*
X12316857Y-12688714D01*
X12316857Y-12688714D02*
X12316857Y-12736333D01*
X12316857Y-12736333D02*
X12307333Y-12774428D01*
X12307333Y-12774428D02*
X12297810Y-12793476D01*
X12297810Y-12793476D02*
X12288286Y-12803000D01*
X12288286Y-12803000D02*
X12269238Y-12812524D01*
X12269238Y-12812524D02*
X12250191Y-12812524D01*
X12250191Y-12812524D02*
X12231143Y-12803000D01*
X12231143Y-12803000D02*
X12221619Y-12793476D01*
X12221619Y-12793476D02*
X12212095Y-12774428D01*
X12212095Y-12774428D02*
X12202572Y-12736333D01*
X12202572Y-12736333D02*
X12202572Y-12688714D01*
X12202572Y-12688714D02*
X12212095Y-12650619D01*
X12212095Y-12650619D02*
X12221619Y-12631571D01*
X12221619Y-12631571D02*
X12231143Y-12622048D01*
X12231143Y-12622048D02*
X12250191Y-12612524D01*
X12383524Y-12612524D02*
X12507333Y-12612524D01*
X12507333Y-12612524D02*
X12440667Y-12688714D01*
X12440667Y-12688714D02*
X12469238Y-12688714D01*
X12469238Y-12688714D02*
X12488286Y-12698238D01*
X12488286Y-12698238D02*
X12497810Y-12707762D01*
X12497810Y-12707762D02*
X12507333Y-12726809D01*
X12507333Y-12726809D02*
X12507333Y-12774428D01*
X12507333Y-12774428D02*
X12497810Y-12793476D01*
X12497810Y-12793476D02*
X12488286Y-12803000D01*
X12488286Y-12803000D02*
X12469238Y-12812524D01*
X12469238Y-12812524D02*
X12412095Y-12812524D01*
X12412095Y-12812524D02*
X12393048Y-12803000D01*
X12393048Y-12803000D02*
X12383524Y-12793476D01*
X12678762Y-12612524D02*
X12640667Y-12612524D01*
X12640667Y-12612524D02*
X12621619Y-12622048D01*
X12621619Y-12622048D02*
X12612095Y-12631571D01*
X12612095Y-12631571D02*
X12593048Y-12660143D01*
X12593048Y-12660143D02*
X12583524Y-12698238D01*
X12583524Y-12698238D02*
X12583524Y-12774428D01*
X12583524Y-12774428D02*
X12593048Y-12793476D01*
X12593048Y-12793476D02*
X12602572Y-12803000D01*
X12602572Y-12803000D02*
X12621619Y-12812524D01*
X12621619Y-12812524D02*
X12659714Y-12812524D01*
X12659714Y-12812524D02*
X12678762Y-12803000D01*
X12678762Y-12803000D02*
X12688286Y-12793476D01*
X12688286Y-12793476D02*
X12697810Y-12774428D01*
X12697810Y-12774428D02*
X12697810Y-12726809D01*
X12697810Y-12726809D02*
X12688286Y-12707762D01*
X12688286Y-12707762D02*
X12678762Y-12698238D01*
X12678762Y-12698238D02*
X12659714Y-12688714D01*
X12659714Y-12688714D02*
X12621619Y-12688714D01*
X12621619Y-12688714D02*
X12602572Y-12698238D01*
X12602572Y-12698238D02*
X12593048Y-12707762D01*
X12593048Y-12707762D02*
X12583524Y-12726809D01*
X12774000Y-12631571D02*
X12783524Y-12622048D01*
X12783524Y-12622048D02*
X12802572Y-12612524D01*
X12802572Y-12612524D02*
X12850191Y-12612524D01*
X12850191Y-12612524D02*
X12869238Y-12622048D01*
X12869238Y-12622048D02*
X12878762Y-12631571D01*
X12878762Y-12631571D02*
X12888286Y-12650619D01*
X12888286Y-12650619D02*
X12888286Y-12669667D01*
X12888286Y-12669667D02*
X12878762Y-12698238D01*
X12878762Y-12698238D02*
X12764476Y-12812524D01*
X12764476Y-12812524D02*
X12888286Y-12812524D01*
X12964476Y-12612524D02*
X12964476Y-12650619D01*
X13040667Y-12612524D02*
X13040667Y-12650619D01*
X13335905Y-12888714D02*
X13326381Y-12879190D01*
X13326381Y-12879190D02*
X13307334Y-12850619D01*
X13307334Y-12850619D02*
X13297810Y-12831571D01*
X13297810Y-12831571D02*
X13288286Y-12803000D01*
X13288286Y-12803000D02*
X13278762Y-12755381D01*
X13278762Y-12755381D02*
X13278762Y-12717286D01*
X13278762Y-12717286D02*
X13288286Y-12669667D01*
X13288286Y-12669667D02*
X13297810Y-12641095D01*
X13297810Y-12641095D02*
X13307334Y-12622048D01*
X13307334Y-12622048D02*
X13326381Y-12593476D01*
X13326381Y-12593476D02*
X13335905Y-12583952D01*
X13497810Y-12679190D02*
X13497810Y-12812524D01*
X13450191Y-12603000D02*
X13402572Y-12745857D01*
X13402572Y-12745857D02*
X13526381Y-12745857D01*
X13754953Y-12812524D02*
X13754953Y-12612524D01*
X13840667Y-12812524D02*
X13840667Y-12707762D01*
X13840667Y-12707762D02*
X13831143Y-12688714D01*
X13831143Y-12688714D02*
X13812096Y-12679190D01*
X13812096Y-12679190D02*
X13783524Y-12679190D01*
X13783524Y-12679190D02*
X13764476Y-12688714D01*
X13764476Y-12688714D02*
X13754953Y-12698238D01*
X13964476Y-12812524D02*
X13945429Y-12803000D01*
X13945429Y-12803000D02*
X13935905Y-12793476D01*
X13935905Y-12793476D02*
X13926381Y-12774428D01*
X13926381Y-12774428D02*
X13926381Y-12717286D01*
X13926381Y-12717286D02*
X13935905Y-12698238D01*
X13935905Y-12698238D02*
X13945429Y-12688714D01*
X13945429Y-12688714D02*
X13964476Y-12679190D01*
X13964476Y-12679190D02*
X13993048Y-12679190D01*
X13993048Y-12679190D02*
X14012096Y-12688714D01*
X14012096Y-12688714D02*
X14021619Y-12698238D01*
X14021619Y-12698238D02*
X14031143Y-12717286D01*
X14031143Y-12717286D02*
X14031143Y-12774428D01*
X14031143Y-12774428D02*
X14021619Y-12793476D01*
X14021619Y-12793476D02*
X14012096Y-12803000D01*
X14012096Y-12803000D02*
X13993048Y-12812524D01*
X13993048Y-12812524D02*
X13964476Y-12812524D01*
X14145429Y-12812524D02*
X14126381Y-12803000D01*
X14126381Y-12803000D02*
X14116857Y-12783952D01*
X14116857Y-12783952D02*
X14116857Y-12612524D01*
X14297810Y-12803000D02*
X14278762Y-12812524D01*
X14278762Y-12812524D02*
X14240667Y-12812524D01*
X14240667Y-12812524D02*
X14221619Y-12803000D01*
X14221619Y-12803000D02*
X14212096Y-12783952D01*
X14212096Y-12783952D02*
X14212096Y-12707762D01*
X14212096Y-12707762D02*
X14221619Y-12688714D01*
X14221619Y-12688714D02*
X14240667Y-12679190D01*
X14240667Y-12679190D02*
X14278762Y-12679190D01*
X14278762Y-12679190D02*
X14297810Y-12688714D01*
X14297810Y-12688714D02*
X14307334Y-12707762D01*
X14307334Y-12707762D02*
X14307334Y-12726809D01*
X14307334Y-12726809D02*
X14212096Y-12745857D01*
X14383524Y-12803000D02*
X14402572Y-12812524D01*
X14402572Y-12812524D02*
X14440667Y-12812524D01*
X14440667Y-12812524D02*
X14459715Y-12803000D01*
X14459715Y-12803000D02*
X14469238Y-12783952D01*
X14469238Y-12783952D02*
X14469238Y-12774428D01*
X14469238Y-12774428D02*
X14459715Y-12755381D01*
X14459715Y-12755381D02*
X14440667Y-12745857D01*
X14440667Y-12745857D02*
X14412096Y-12745857D01*
X14412096Y-12745857D02*
X14393048Y-12736333D01*
X14393048Y-12736333D02*
X14383524Y-12717286D01*
X14383524Y-12717286D02*
X14383524Y-12707762D01*
X14383524Y-12707762D02*
X14393048Y-12688714D01*
X14393048Y-12688714D02*
X14412096Y-12679190D01*
X14412096Y-12679190D02*
X14440667Y-12679190D01*
X14440667Y-12679190D02*
X14459715Y-12688714D01*
X14535905Y-12888714D02*
X14545429Y-12879190D01*
X14545429Y-12879190D02*
X14564477Y-12850619D01*
X14564477Y-12850619D02*
X14574000Y-12831571D01*
X14574000Y-12831571D02*
X14583524Y-12803000D01*
X14583524Y-12803000D02*
X14593048Y-12755381D01*
X14593048Y-12755381D02*
X14593048Y-12717286D01*
X14593048Y-12717286D02*
X14583524Y-12669667D01*
X14583524Y-12669667D02*
X14574000Y-12641095D01*
X14574000Y-12641095D02*
X14564477Y-12622048D01*
X14564477Y-12622048D02*
X14545429Y-12593476D01*
X14545429Y-12593476D02*
X14535905Y-12583952D01*
D10*
X9724000Y-12934000D02*
X9724000Y-13034000D01*
X9674000Y-12984000D02*
X9774000Y-12984000D01*
D11*
X10126381Y-13076524D02*
X10012095Y-13076524D01*
X10069238Y-13076524D02*
X10069238Y-12876524D01*
X10069238Y-12876524D02*
X10050190Y-12905095D01*
X10050190Y-12905095D02*
X10031143Y-12924143D01*
X10031143Y-12924143D02*
X10012095Y-12933667D01*
X10212095Y-13057476D02*
X10221619Y-13067000D01*
X10221619Y-13067000D02*
X10212095Y-13076524D01*
X10212095Y-13076524D02*
X10202571Y-13067000D01*
X10202571Y-13067000D02*
X10212095Y-13057476D01*
X10212095Y-13057476D02*
X10212095Y-13076524D01*
X10345429Y-12876524D02*
X10364476Y-12876524D01*
X10364476Y-12876524D02*
X10383524Y-12886048D01*
X10383524Y-12886048D02*
X10393048Y-12895571D01*
X10393048Y-12895571D02*
X10402571Y-12914619D01*
X10402571Y-12914619D02*
X10412095Y-12952714D01*
X10412095Y-12952714D02*
X10412095Y-13000333D01*
X10412095Y-13000333D02*
X10402571Y-13038428D01*
X10402571Y-13038428D02*
X10393048Y-13057476D01*
X10393048Y-13057476D02*
X10383524Y-13067000D01*
X10383524Y-13067000D02*
X10364476Y-13076524D01*
X10364476Y-13076524D02*
X10345429Y-13076524D01*
X10345429Y-13076524D02*
X10326381Y-13067000D01*
X10326381Y-13067000D02*
X10316857Y-13057476D01*
X10316857Y-13057476D02*
X10307333Y-13038428D01*
X10307333Y-13038428D02*
X10297810Y-13000333D01*
X10297810Y-13000333D02*
X10297810Y-12952714D01*
X10297810Y-12952714D02*
X10307333Y-12914619D01*
X10307333Y-12914619D02*
X10316857Y-12895571D01*
X10316857Y-12895571D02*
X10326381Y-12886048D01*
X10326381Y-12886048D02*
X10345429Y-12876524D01*
X10535905Y-12876524D02*
X10554952Y-12876524D01*
X10554952Y-12876524D02*
X10574000Y-12886048D01*
X10574000Y-12886048D02*
X10583524Y-12895571D01*
X10583524Y-12895571D02*
X10593048Y-12914619D01*
X10593048Y-12914619D02*
X10602571Y-12952714D01*
X10602571Y-12952714D02*
X10602571Y-13000333D01*
X10602571Y-13000333D02*
X10593048Y-13038428D01*
X10593048Y-13038428D02*
X10583524Y-13057476D01*
X10583524Y-13057476D02*
X10574000Y-13067000D01*
X10574000Y-13067000D02*
X10554952Y-13076524D01*
X10554952Y-13076524D02*
X10535905Y-13076524D01*
X10535905Y-13076524D02*
X10516857Y-13067000D01*
X10516857Y-13067000D02*
X10507333Y-13057476D01*
X10507333Y-13057476D02*
X10497810Y-13038428D01*
X10497810Y-13038428D02*
X10488286Y-13000333D01*
X10488286Y-13000333D02*
X10488286Y-12952714D01*
X10488286Y-12952714D02*
X10497810Y-12914619D01*
X10497810Y-12914619D02*
X10507333Y-12895571D01*
X10507333Y-12895571D02*
X10516857Y-12886048D01*
X10516857Y-12886048D02*
X10535905Y-12876524D01*
X10726381Y-12876524D02*
X10745429Y-12876524D01*
X10745429Y-12876524D02*
X10764476Y-12886048D01*
X10764476Y-12886048D02*
X10774000Y-12895571D01*
X10774000Y-12895571D02*
X10783524Y-12914619D01*
X10783524Y-12914619D02*
X10793048Y-12952714D01*
X10793048Y-12952714D02*
X10793048Y-13000333D01*
X10793048Y-13000333D02*
X10783524Y-13038428D01*
X10783524Y-13038428D02*
X10774000Y-13057476D01*
X10774000Y-13057476D02*
X10764476Y-13067000D01*
X10764476Y-13067000D02*
X10745429Y-13076524D01*
X10745429Y-13076524D02*
X10726381Y-13076524D01*
X10726381Y-13076524D02*
X10707333Y-13067000D01*
X10707333Y-13067000D02*
X10697810Y-13057476D01*
X10697810Y-13057476D02*
X10688286Y-13038428D01*
X10688286Y-13038428D02*
X10678762Y-13000333D01*
X10678762Y-13000333D02*
X10678762Y-12952714D01*
X10678762Y-12952714D02*
X10688286Y-12914619D01*
X10688286Y-12914619D02*
X10697810Y-12895571D01*
X10697810Y-12895571D02*
X10707333Y-12886048D01*
X10707333Y-12886048D02*
X10726381Y-12876524D01*
X10878762Y-13076524D02*
X10878762Y-12943190D01*
X10878762Y-12962238D02*
X10888286Y-12952714D01*
X10888286Y-12952714D02*
X10907333Y-12943190D01*
X10907333Y-12943190D02*
X10935905Y-12943190D01*
X10935905Y-12943190D02*
X10954952Y-12952714D01*
X10954952Y-12952714D02*
X10964476Y-12971762D01*
X10964476Y-12971762D02*
X10964476Y-13076524D01*
X10964476Y-12971762D02*
X10974000Y-12952714D01*
X10974000Y-12952714D02*
X10993048Y-12943190D01*
X10993048Y-12943190D02*
X11021619Y-12943190D01*
X11021619Y-12943190D02*
X11040667Y-12952714D01*
X11040667Y-12952714D02*
X11050191Y-12971762D01*
X11050191Y-12971762D02*
X11050191Y-13076524D01*
X11145429Y-13076524D02*
X11145429Y-12943190D01*
X11145429Y-12962238D02*
X11154952Y-12952714D01*
X11154952Y-12952714D02*
X11174000Y-12943190D01*
X11174000Y-12943190D02*
X11202571Y-12943190D01*
X11202571Y-12943190D02*
X11221619Y-12952714D01*
X11221619Y-12952714D02*
X11231143Y-12971762D01*
X11231143Y-12971762D02*
X11231143Y-13076524D01*
X11231143Y-12971762D02*
X11240667Y-12952714D01*
X11240667Y-12952714D02*
X11259714Y-12943190D01*
X11259714Y-12943190D02*
X11288286Y-12943190D01*
X11288286Y-12943190D02*
X11307333Y-12952714D01*
X11307333Y-12952714D02*
X11316857Y-12971762D01*
X11316857Y-12971762D02*
X11316857Y-13076524D01*
X11707333Y-12867000D02*
X11535905Y-13124143D01*
X11964476Y-12876524D02*
X11983524Y-12876524D01*
X11983524Y-12876524D02*
X12002572Y-12886048D01*
X12002572Y-12886048D02*
X12012095Y-12895571D01*
X12012095Y-12895571D02*
X12021619Y-12914619D01*
X12021619Y-12914619D02*
X12031143Y-12952714D01*
X12031143Y-12952714D02*
X12031143Y-13000333D01*
X12031143Y-13000333D02*
X12021619Y-13038428D01*
X12021619Y-13038428D02*
X12012095Y-13057476D01*
X12012095Y-13057476D02*
X12002572Y-13067000D01*
X12002572Y-13067000D02*
X11983524Y-13076524D01*
X11983524Y-13076524D02*
X11964476Y-13076524D01*
X11964476Y-13076524D02*
X11945429Y-13067000D01*
X11945429Y-13067000D02*
X11935905Y-13057476D01*
X11935905Y-13057476D02*
X11926381Y-13038428D01*
X11926381Y-13038428D02*
X11916857Y-13000333D01*
X11916857Y-13000333D02*
X11916857Y-12952714D01*
X11916857Y-12952714D02*
X11926381Y-12914619D01*
X11926381Y-12914619D02*
X11935905Y-12895571D01*
X11935905Y-12895571D02*
X11945429Y-12886048D01*
X11945429Y-12886048D02*
X11964476Y-12876524D01*
X12116857Y-13057476D02*
X12126381Y-13067000D01*
X12126381Y-13067000D02*
X12116857Y-13076524D01*
X12116857Y-13076524D02*
X12107333Y-13067000D01*
X12107333Y-13067000D02*
X12116857Y-13057476D01*
X12116857Y-13057476D02*
X12116857Y-13076524D01*
X12250191Y-12876524D02*
X12269238Y-12876524D01*
X12269238Y-12876524D02*
X12288286Y-12886048D01*
X12288286Y-12886048D02*
X12297810Y-12895571D01*
X12297810Y-12895571D02*
X12307333Y-12914619D01*
X12307333Y-12914619D02*
X12316857Y-12952714D01*
X12316857Y-12952714D02*
X12316857Y-13000333D01*
X12316857Y-13000333D02*
X12307333Y-13038428D01*
X12307333Y-13038428D02*
X12297810Y-13057476D01*
X12297810Y-13057476D02*
X12288286Y-13067000D01*
X12288286Y-13067000D02*
X12269238Y-13076524D01*
X12269238Y-13076524D02*
X12250191Y-13076524D01*
X12250191Y-13076524D02*
X12231143Y-13067000D01*
X12231143Y-13067000D02*
X12221619Y-13057476D01*
X12221619Y-13057476D02*
X12212095Y-13038428D01*
X12212095Y-13038428D02*
X12202572Y-13000333D01*
X12202572Y-13000333D02*
X12202572Y-12952714D01*
X12202572Y-12952714D02*
X12212095Y-12914619D01*
X12212095Y-12914619D02*
X12221619Y-12895571D01*
X12221619Y-12895571D02*
X12231143Y-12886048D01*
X12231143Y-12886048D02*
X12250191Y-12876524D01*
X12383524Y-12876524D02*
X12507333Y-12876524D01*
X12507333Y-12876524D02*
X12440667Y-12952714D01*
X12440667Y-12952714D02*
X12469238Y-12952714D01*
X12469238Y-12952714D02*
X12488286Y-12962238D01*
X12488286Y-12962238D02*
X12497810Y-12971762D01*
X12497810Y-12971762D02*
X12507333Y-12990809D01*
X12507333Y-12990809D02*
X12507333Y-13038428D01*
X12507333Y-13038428D02*
X12497810Y-13057476D01*
X12497810Y-13057476D02*
X12488286Y-13067000D01*
X12488286Y-13067000D02*
X12469238Y-13076524D01*
X12469238Y-13076524D02*
X12412095Y-13076524D01*
X12412095Y-13076524D02*
X12393048Y-13067000D01*
X12393048Y-13067000D02*
X12383524Y-13057476D01*
X12602572Y-13076524D02*
X12640667Y-13076524D01*
X12640667Y-13076524D02*
X12659714Y-13067000D01*
X12659714Y-13067000D02*
X12669238Y-13057476D01*
X12669238Y-13057476D02*
X12688286Y-13028905D01*
X12688286Y-13028905D02*
X12697810Y-12990809D01*
X12697810Y-12990809D02*
X12697810Y-12914619D01*
X12697810Y-12914619D02*
X12688286Y-12895571D01*
X12688286Y-12895571D02*
X12678762Y-12886048D01*
X12678762Y-12886048D02*
X12659714Y-12876524D01*
X12659714Y-12876524D02*
X12621619Y-12876524D01*
X12621619Y-12876524D02*
X12602572Y-12886048D01*
X12602572Y-12886048D02*
X12593048Y-12895571D01*
X12593048Y-12895571D02*
X12583524Y-12914619D01*
X12583524Y-12914619D02*
X12583524Y-12962238D01*
X12583524Y-12962238D02*
X12593048Y-12981286D01*
X12593048Y-12981286D02*
X12602572Y-12990809D01*
X12602572Y-12990809D02*
X12621619Y-13000333D01*
X12621619Y-13000333D02*
X12659714Y-13000333D01*
X12659714Y-13000333D02*
X12678762Y-12990809D01*
X12678762Y-12990809D02*
X12688286Y-12981286D01*
X12688286Y-12981286D02*
X12697810Y-12962238D01*
X12869238Y-12943190D02*
X12869238Y-13076524D01*
X12821619Y-12867000D02*
X12774000Y-13009857D01*
X12774000Y-13009857D02*
X12897810Y-13009857D01*
X12964476Y-12876524D02*
X12964476Y-12914619D01*
X13040667Y-12876524D02*
X13040667Y-12914619D01*
X13335905Y-13152714D02*
X13326381Y-13143190D01*
X13326381Y-13143190D02*
X13307334Y-13114619D01*
X13307334Y-13114619D02*
X13297810Y-13095571D01*
X13297810Y-13095571D02*
X13288286Y-13067000D01*
X13288286Y-13067000D02*
X13278762Y-13019381D01*
X13278762Y-13019381D02*
X13278762Y-12981286D01*
X13278762Y-12981286D02*
X13288286Y-12933667D01*
X13288286Y-12933667D02*
X13297810Y-12905095D01*
X13297810Y-12905095D02*
X13307334Y-12886048D01*
X13307334Y-12886048D02*
X13326381Y-12857476D01*
X13326381Y-12857476D02*
X13335905Y-12847952D01*
X13497810Y-12876524D02*
X13459714Y-12876524D01*
X13459714Y-12876524D02*
X13440667Y-12886048D01*
X13440667Y-12886048D02*
X13431143Y-12895571D01*
X13431143Y-12895571D02*
X13412095Y-12924143D01*
X13412095Y-12924143D02*
X13402572Y-12962238D01*
X13402572Y-12962238D02*
X13402572Y-13038428D01*
X13402572Y-13038428D02*
X13412095Y-13057476D01*
X13412095Y-13057476D02*
X13421619Y-13067000D01*
X13421619Y-13067000D02*
X13440667Y-13076524D01*
X13440667Y-13076524D02*
X13478762Y-13076524D01*
X13478762Y-13076524D02*
X13497810Y-13067000D01*
X13497810Y-13067000D02*
X13507334Y-13057476D01*
X13507334Y-13057476D02*
X13516857Y-13038428D01*
X13516857Y-13038428D02*
X13516857Y-12990809D01*
X13516857Y-12990809D02*
X13507334Y-12971762D01*
X13507334Y-12971762D02*
X13497810Y-12962238D01*
X13497810Y-12962238D02*
X13478762Y-12952714D01*
X13478762Y-12952714D02*
X13440667Y-12952714D01*
X13440667Y-12952714D02*
X13421619Y-12962238D01*
X13421619Y-12962238D02*
X13412095Y-12971762D01*
X13412095Y-12971762D02*
X13402572Y-12990809D01*
X13754953Y-13076524D02*
X13754953Y-12876524D01*
X13840667Y-13076524D02*
X13840667Y-12971762D01*
X13840667Y-12971762D02*
X13831143Y-12952714D01*
X13831143Y-12952714D02*
X13812096Y-12943190D01*
X13812096Y-12943190D02*
X13783524Y-12943190D01*
X13783524Y-12943190D02*
X13764476Y-12952714D01*
X13764476Y-12952714D02*
X13754953Y-12962238D01*
X13964476Y-13076524D02*
X13945429Y-13067000D01*
X13945429Y-13067000D02*
X13935905Y-13057476D01*
X13935905Y-13057476D02*
X13926381Y-13038428D01*
X13926381Y-13038428D02*
X13926381Y-12981286D01*
X13926381Y-12981286D02*
X13935905Y-12962238D01*
X13935905Y-12962238D02*
X13945429Y-12952714D01*
X13945429Y-12952714D02*
X13964476Y-12943190D01*
X13964476Y-12943190D02*
X13993048Y-12943190D01*
X13993048Y-12943190D02*
X14012096Y-12952714D01*
X14012096Y-12952714D02*
X14021619Y-12962238D01*
X14021619Y-12962238D02*
X14031143Y-12981286D01*
X14031143Y-12981286D02*
X14031143Y-13038428D01*
X14031143Y-13038428D02*
X14021619Y-13057476D01*
X14021619Y-13057476D02*
X14012096Y-13067000D01*
X14012096Y-13067000D02*
X13993048Y-13076524D01*
X13993048Y-13076524D02*
X13964476Y-13076524D01*
X14145429Y-13076524D02*
X14126381Y-13067000D01*
X14126381Y-13067000D02*
X14116857Y-13047952D01*
X14116857Y-13047952D02*
X14116857Y-12876524D01*
X14297810Y-13067000D02*
X14278762Y-13076524D01*
X14278762Y-13076524D02*
X14240667Y-13076524D01*
X14240667Y-13076524D02*
X14221619Y-13067000D01*
X14221619Y-13067000D02*
X14212096Y-13047952D01*
X14212096Y-13047952D02*
X14212096Y-12971762D01*
X14212096Y-12971762D02*
X14221619Y-12952714D01*
X14221619Y-12952714D02*
X14240667Y-12943190D01*
X14240667Y-12943190D02*
X14278762Y-12943190D01*
X14278762Y-12943190D02*
X14297810Y-12952714D01*
X14297810Y-12952714D02*
X14307334Y-12971762D01*
X14307334Y-12971762D02*
X14307334Y-12990809D01*
X14307334Y-12990809D02*
X14212096Y-13009857D01*
X14383524Y-13067000D02*
X14402572Y-13076524D01*
X14402572Y-13076524D02*
X14440667Y-13076524D01*
X14440667Y-13076524D02*
X14459715Y-13067000D01*
X14459715Y-13067000D02*
X14469238Y-13047952D01*
X14469238Y-13047952D02*
X14469238Y-13038428D01*
X14469238Y-13038428D02*
X14459715Y-13019381D01*
X14459715Y-13019381D02*
X14440667Y-13009857D01*
X14440667Y-13009857D02*
X14412096Y-13009857D01*
X14412096Y-13009857D02*
X14393048Y-13000333D01*
X14393048Y-13000333D02*
X14383524Y-12981286D01*
X14383524Y-12981286D02*
X14383524Y-12971762D01*
X14383524Y-12971762D02*
X14393048Y-12952714D01*
X14393048Y-12952714D02*
X14412096Y-12943190D01*
X14412096Y-12943190D02*
X14440667Y-12943190D01*
X14440667Y-12943190D02*
X14459715Y-12952714D01*
X14535905Y-13152714D02*
X14545429Y-13143190D01*
X14545429Y-13143190D02*
X14564477Y-13114619D01*
X14564477Y-13114619D02*
X14574000Y-13095571D01*
X14574000Y-13095571D02*
X14583524Y-13067000D01*
X14583524Y-13067000D02*
X14593048Y-13019381D01*
X14593048Y-13019381D02*
X14593048Y-12981286D01*
X14593048Y-12981286D02*
X14583524Y-12933667D01*
X14583524Y-12933667D02*
X14574000Y-12905095D01*
X14574000Y-12905095D02*
X14564477Y-12886048D01*
X14564477Y-12886048D02*
X14545429Y-12857476D01*
X14545429Y-12857476D02*
X14535905Y-12847952D01*
X9744711Y-13318711D02*
X9744711Y-13177289D01*
X9603289Y-13177289D01*
X9603289Y-13318711D01*
X9744711Y-13318711D01*
X10012095Y-13159571D02*
X10021619Y-13150048D01*
X10021619Y-13150048D02*
X10040667Y-13140524D01*
X10040667Y-13140524D02*
X10088286Y-13140524D01*
X10088286Y-13140524D02*
X10107333Y-13150048D01*
X10107333Y-13150048D02*
X10116857Y-13159571D01*
X10116857Y-13159571D02*
X10126381Y-13178619D01*
X10126381Y-13178619D02*
X10126381Y-13197667D01*
X10126381Y-13197667D02*
X10116857Y-13226238D01*
X10116857Y-13226238D02*
X10002571Y-13340524D01*
X10002571Y-13340524D02*
X10126381Y-13340524D01*
X10212095Y-13321476D02*
X10221619Y-13331000D01*
X10221619Y-13331000D02*
X10212095Y-13340524D01*
X10212095Y-13340524D02*
X10202571Y-13331000D01*
X10202571Y-13331000D02*
X10212095Y-13321476D01*
X10212095Y-13321476D02*
X10212095Y-13340524D01*
X10288286Y-13140524D02*
X10412095Y-13140524D01*
X10412095Y-13140524D02*
X10345429Y-13216714D01*
X10345429Y-13216714D02*
X10374000Y-13216714D01*
X10374000Y-13216714D02*
X10393048Y-13226238D01*
X10393048Y-13226238D02*
X10402571Y-13235762D01*
X10402571Y-13235762D02*
X10412095Y-13254809D01*
X10412095Y-13254809D02*
X10412095Y-13302428D01*
X10412095Y-13302428D02*
X10402571Y-13321476D01*
X10402571Y-13321476D02*
X10393048Y-13331000D01*
X10393048Y-13331000D02*
X10374000Y-13340524D01*
X10374000Y-13340524D02*
X10316857Y-13340524D01*
X10316857Y-13340524D02*
X10297810Y-13331000D01*
X10297810Y-13331000D02*
X10288286Y-13321476D01*
X10478762Y-13140524D02*
X10602571Y-13140524D01*
X10602571Y-13140524D02*
X10535905Y-13216714D01*
X10535905Y-13216714D02*
X10564476Y-13216714D01*
X10564476Y-13216714D02*
X10583524Y-13226238D01*
X10583524Y-13226238D02*
X10593048Y-13235762D01*
X10593048Y-13235762D02*
X10602571Y-13254809D01*
X10602571Y-13254809D02*
X10602571Y-13302428D01*
X10602571Y-13302428D02*
X10593048Y-13321476D01*
X10593048Y-13321476D02*
X10583524Y-13331000D01*
X10583524Y-13331000D02*
X10564476Y-13340524D01*
X10564476Y-13340524D02*
X10507333Y-13340524D01*
X10507333Y-13340524D02*
X10488286Y-13331000D01*
X10488286Y-13331000D02*
X10478762Y-13321476D01*
X10726381Y-13140524D02*
X10745429Y-13140524D01*
X10745429Y-13140524D02*
X10764476Y-13150048D01*
X10764476Y-13150048D02*
X10774000Y-13159571D01*
X10774000Y-13159571D02*
X10783524Y-13178619D01*
X10783524Y-13178619D02*
X10793048Y-13216714D01*
X10793048Y-13216714D02*
X10793048Y-13264333D01*
X10793048Y-13264333D02*
X10783524Y-13302428D01*
X10783524Y-13302428D02*
X10774000Y-13321476D01*
X10774000Y-13321476D02*
X10764476Y-13331000D01*
X10764476Y-13331000D02*
X10745429Y-13340524D01*
X10745429Y-13340524D02*
X10726381Y-13340524D01*
X10726381Y-13340524D02*
X10707333Y-13331000D01*
X10707333Y-13331000D02*
X10697810Y-13321476D01*
X10697810Y-13321476D02*
X10688286Y-13302428D01*
X10688286Y-13302428D02*
X10678762Y-13264333D01*
X10678762Y-13264333D02*
X10678762Y-13216714D01*
X10678762Y-13216714D02*
X10688286Y-13178619D01*
X10688286Y-13178619D02*
X10697810Y-13159571D01*
X10697810Y-13159571D02*
X10707333Y-13150048D01*
X10707333Y-13150048D02*
X10726381Y-13140524D01*
X10878762Y-13340524D02*
X10878762Y-13207190D01*
X10878762Y-13226238D02*
X10888286Y-13216714D01*
X10888286Y-13216714D02*
X10907333Y-13207190D01*
X10907333Y-13207190D02*
X10935905Y-13207190D01*
X10935905Y-13207190D02*
X10954952Y-13216714D01*
X10954952Y-13216714D02*
X10964476Y-13235762D01*
X10964476Y-13235762D02*
X10964476Y-13340524D01*
X10964476Y-13235762D02*
X10974000Y-13216714D01*
X10974000Y-13216714D02*
X10993048Y-13207190D01*
X10993048Y-13207190D02*
X11021619Y-13207190D01*
X11021619Y-13207190D02*
X11040667Y-13216714D01*
X11040667Y-13216714D02*
X11050191Y-13235762D01*
X11050191Y-13235762D02*
X11050191Y-13340524D01*
X11145429Y-13340524D02*
X11145429Y-13207190D01*
X11145429Y-13226238D02*
X11154952Y-13216714D01*
X11154952Y-13216714D02*
X11174000Y-13207190D01*
X11174000Y-13207190D02*
X11202571Y-13207190D01*
X11202571Y-13207190D02*
X11221619Y-13216714D01*
X11221619Y-13216714D02*
X11231143Y-13235762D01*
X11231143Y-13235762D02*
X11231143Y-13340524D01*
X11231143Y-13235762D02*
X11240667Y-13216714D01*
X11240667Y-13216714D02*
X11259714Y-13207190D01*
X11259714Y-13207190D02*
X11288286Y-13207190D01*
X11288286Y-13207190D02*
X11307333Y-13216714D01*
X11307333Y-13216714D02*
X11316857Y-13235762D01*
X11316857Y-13235762D02*
X11316857Y-13340524D01*
X11707333Y-13131000D02*
X11535905Y-13388143D01*
X11964476Y-13140524D02*
X11983524Y-13140524D01*
X11983524Y-13140524D02*
X12002572Y-13150048D01*
X12002572Y-13150048D02*
X12012095Y-13159571D01*
X12012095Y-13159571D02*
X12021619Y-13178619D01*
X12021619Y-13178619D02*
X12031143Y-13216714D01*
X12031143Y-13216714D02*
X12031143Y-13264333D01*
X12031143Y-13264333D02*
X12021619Y-13302428D01*
X12021619Y-13302428D02*
X12012095Y-13321476D01*
X12012095Y-13321476D02*
X12002572Y-13331000D01*
X12002572Y-13331000D02*
X11983524Y-13340524D01*
X11983524Y-13340524D02*
X11964476Y-13340524D01*
X11964476Y-13340524D02*
X11945429Y-13331000D01*
X11945429Y-13331000D02*
X11935905Y-13321476D01*
X11935905Y-13321476D02*
X11926381Y-13302428D01*
X11926381Y-13302428D02*
X11916857Y-13264333D01*
X11916857Y-13264333D02*
X11916857Y-13216714D01*
X11916857Y-13216714D02*
X11926381Y-13178619D01*
X11926381Y-13178619D02*
X11935905Y-13159571D01*
X11935905Y-13159571D02*
X11945429Y-13150048D01*
X11945429Y-13150048D02*
X11964476Y-13140524D01*
X12116857Y-13321476D02*
X12126381Y-13331000D01*
X12126381Y-13331000D02*
X12116857Y-13340524D01*
X12116857Y-13340524D02*
X12107333Y-13331000D01*
X12107333Y-13331000D02*
X12116857Y-13321476D01*
X12116857Y-13321476D02*
X12116857Y-13340524D01*
X12250191Y-13140524D02*
X12269238Y-13140524D01*
X12269238Y-13140524D02*
X12288286Y-13150048D01*
X12288286Y-13150048D02*
X12297810Y-13159571D01*
X12297810Y-13159571D02*
X12307333Y-13178619D01*
X12307333Y-13178619D02*
X12316857Y-13216714D01*
X12316857Y-13216714D02*
X12316857Y-13264333D01*
X12316857Y-13264333D02*
X12307333Y-13302428D01*
X12307333Y-13302428D02*
X12297810Y-13321476D01*
X12297810Y-13321476D02*
X12288286Y-13331000D01*
X12288286Y-13331000D02*
X12269238Y-13340524D01*
X12269238Y-13340524D02*
X12250191Y-13340524D01*
X12250191Y-13340524D02*
X12231143Y-13331000D01*
X12231143Y-13331000D02*
X12221619Y-13321476D01*
X12221619Y-13321476D02*
X12212095Y-13302428D01*
X12212095Y-13302428D02*
X12202572Y-13264333D01*
X12202572Y-13264333D02*
X12202572Y-13216714D01*
X12202572Y-13216714D02*
X12212095Y-13178619D01*
X12212095Y-13178619D02*
X12221619Y-13159571D01*
X12221619Y-13159571D02*
X12231143Y-13150048D01*
X12231143Y-13150048D02*
X12250191Y-13140524D01*
X12412095Y-13340524D02*
X12450191Y-13340524D01*
X12450191Y-13340524D02*
X12469238Y-13331000D01*
X12469238Y-13331000D02*
X12478762Y-13321476D01*
X12478762Y-13321476D02*
X12497810Y-13292905D01*
X12497810Y-13292905D02*
X12507333Y-13254809D01*
X12507333Y-13254809D02*
X12507333Y-13178619D01*
X12507333Y-13178619D02*
X12497810Y-13159571D01*
X12497810Y-13159571D02*
X12488286Y-13150048D01*
X12488286Y-13150048D02*
X12469238Y-13140524D01*
X12469238Y-13140524D02*
X12431143Y-13140524D01*
X12431143Y-13140524D02*
X12412095Y-13150048D01*
X12412095Y-13150048D02*
X12402572Y-13159571D01*
X12402572Y-13159571D02*
X12393048Y-13178619D01*
X12393048Y-13178619D02*
X12393048Y-13226238D01*
X12393048Y-13226238D02*
X12402572Y-13245286D01*
X12402572Y-13245286D02*
X12412095Y-13254809D01*
X12412095Y-13254809D02*
X12431143Y-13264333D01*
X12431143Y-13264333D02*
X12469238Y-13264333D01*
X12469238Y-13264333D02*
X12488286Y-13254809D01*
X12488286Y-13254809D02*
X12497810Y-13245286D01*
X12497810Y-13245286D02*
X12507333Y-13226238D01*
X12697810Y-13340524D02*
X12583524Y-13340524D01*
X12640667Y-13340524D02*
X12640667Y-13140524D01*
X12640667Y-13140524D02*
X12621619Y-13169095D01*
X12621619Y-13169095D02*
X12602572Y-13188143D01*
X12602572Y-13188143D02*
X12583524Y-13197667D01*
X12764476Y-13140524D02*
X12897810Y-13140524D01*
X12897810Y-13140524D02*
X12812095Y-13340524D01*
X12964476Y-13140524D02*
X12964476Y-13178619D01*
X13040667Y-13140524D02*
X13040667Y-13178619D01*
X13335905Y-13416714D02*
X13326381Y-13407190D01*
X13326381Y-13407190D02*
X13307334Y-13378619D01*
X13307334Y-13378619D02*
X13297810Y-13359571D01*
X13297810Y-13359571D02*
X13288286Y-13331000D01*
X13288286Y-13331000D02*
X13278762Y-13283381D01*
X13278762Y-13283381D02*
X13278762Y-13245286D01*
X13278762Y-13245286D02*
X13288286Y-13197667D01*
X13288286Y-13197667D02*
X13297810Y-13169095D01*
X13297810Y-13169095D02*
X13307334Y-13150048D01*
X13307334Y-13150048D02*
X13326381Y-13121476D01*
X13326381Y-13121476D02*
X13335905Y-13111952D01*
X13402572Y-13159571D02*
X13412095Y-13150048D01*
X13412095Y-13150048D02*
X13431143Y-13140524D01*
X13431143Y-13140524D02*
X13478762Y-13140524D01*
X13478762Y-13140524D02*
X13497810Y-13150048D01*
X13497810Y-13150048D02*
X13507334Y-13159571D01*
X13507334Y-13159571D02*
X13516857Y-13178619D01*
X13516857Y-13178619D02*
X13516857Y-13197667D01*
X13516857Y-13197667D02*
X13507334Y-13226238D01*
X13507334Y-13226238D02*
X13393048Y-13340524D01*
X13393048Y-13340524D02*
X13516857Y-13340524D01*
X13754953Y-13340524D02*
X13754953Y-13140524D01*
X13840667Y-13340524D02*
X13840667Y-13235762D01*
X13840667Y-13235762D02*
X13831143Y-13216714D01*
X13831143Y-13216714D02*
X13812096Y-13207190D01*
X13812096Y-13207190D02*
X13783524Y-13207190D01*
X13783524Y-13207190D02*
X13764476Y-13216714D01*
X13764476Y-13216714D02*
X13754953Y-13226238D01*
X13964476Y-13340524D02*
X13945429Y-13331000D01*
X13945429Y-13331000D02*
X13935905Y-13321476D01*
X13935905Y-13321476D02*
X13926381Y-13302428D01*
X13926381Y-13302428D02*
X13926381Y-13245286D01*
X13926381Y-13245286D02*
X13935905Y-13226238D01*
X13935905Y-13226238D02*
X13945429Y-13216714D01*
X13945429Y-13216714D02*
X13964476Y-13207190D01*
X13964476Y-13207190D02*
X13993048Y-13207190D01*
X13993048Y-13207190D02*
X14012096Y-13216714D01*
X14012096Y-13216714D02*
X14021619Y-13226238D01*
X14021619Y-13226238D02*
X14031143Y-13245286D01*
X14031143Y-13245286D02*
X14031143Y-13302428D01*
X14031143Y-13302428D02*
X14021619Y-13321476D01*
X14021619Y-13321476D02*
X14012096Y-13331000D01*
X14012096Y-13331000D02*
X13993048Y-13340524D01*
X13993048Y-13340524D02*
X13964476Y-13340524D01*
X14145429Y-13340524D02*
X14126381Y-13331000D01*
X14126381Y-13331000D02*
X14116857Y-13311952D01*
X14116857Y-13311952D02*
X14116857Y-13140524D01*
X14297810Y-13331000D02*
X14278762Y-13340524D01*
X14278762Y-13340524D02*
X14240667Y-13340524D01*
X14240667Y-13340524D02*
X14221619Y-13331000D01*
X14221619Y-13331000D02*
X14212096Y-13311952D01*
X14212096Y-13311952D02*
X14212096Y-13235762D01*
X14212096Y-13235762D02*
X14221619Y-13216714D01*
X14221619Y-13216714D02*
X14240667Y-13207190D01*
X14240667Y-13207190D02*
X14278762Y-13207190D01*
X14278762Y-13207190D02*
X14297810Y-13216714D01*
X14297810Y-13216714D02*
X14307334Y-13235762D01*
X14307334Y-13235762D02*
X14307334Y-13254809D01*
X14307334Y-13254809D02*
X14212096Y-13273857D01*
X14383524Y-13331000D02*
X14402572Y-13340524D01*
X14402572Y-13340524D02*
X14440667Y-13340524D01*
X14440667Y-13340524D02*
X14459715Y-13331000D01*
X14459715Y-13331000D02*
X14469238Y-13311952D01*
X14469238Y-13311952D02*
X14469238Y-13302428D01*
X14469238Y-13302428D02*
X14459715Y-13283381D01*
X14459715Y-13283381D02*
X14440667Y-13273857D01*
X14440667Y-13273857D02*
X14412096Y-13273857D01*
X14412096Y-13273857D02*
X14393048Y-13264333D01*
X14393048Y-13264333D02*
X14383524Y-13245286D01*
X14383524Y-13245286D02*
X14383524Y-13235762D01*
X14383524Y-13235762D02*
X14393048Y-13216714D01*
X14393048Y-13216714D02*
X14412096Y-13207190D01*
X14412096Y-13207190D02*
X14440667Y-13207190D01*
X14440667Y-13207190D02*
X14459715Y-13216714D01*
X14535905Y-13416714D02*
X14545429Y-13407190D01*
X14545429Y-13407190D02*
X14564477Y-13378619D01*
X14564477Y-13378619D02*
X14574000Y-13359571D01*
X14574000Y-13359571D02*
X14583524Y-13331000D01*
X14583524Y-13331000D02*
X14593048Y-13283381D01*
X14593048Y-13283381D02*
X14593048Y-13245286D01*
X14593048Y-13245286D02*
X14583524Y-13197667D01*
X14583524Y-13197667D02*
X14574000Y-13169095D01*
X14574000Y-13169095D02*
X14564477Y-13150048D01*
X14564477Y-13150048D02*
X14545429Y-13121476D01*
X14545429Y-13121476D02*
X14535905Y-13111952D01*
M02*
