G04 #@! TF.GenerationSoftware,KiCad,Pcbnew,7.0.1*
G04 #@! TF.CreationDate,2023-04-01T18:17:03+02:00*
G04 #@! TF.ProjectId,PMOD USB UART,504d4f44-2055-4534-9220-554152542e6b,V1.0*
G04 #@! TF.SameCoordinates,Original*
G04 #@! TF.FileFunction,Copper,L2,Bot*
G04 #@! TF.FilePolarity,Positive*
%FSLAX46Y46*%
G04 Gerber Fmt 4.6, Leading zero omitted, Abs format (unit mm)*
G04 Created by KiCad (PCBNEW 7.0.1) date 2023-04-01 18:17:03*
%MOMM*%
%LPD*%
G01*
G04 APERTURE LIST*
G04 #@! TA.AperFunction,ComponentPad*
%ADD10R,1.700000X1.700000*%
G04 #@! TD*
G04 #@! TA.AperFunction,ComponentPad*
%ADD11O,1.700000X1.700000*%
G04 #@! TD*
G04 #@! TA.AperFunction,ComponentPad*
%ADD12C,1.700000*%
G04 #@! TD*
G04 #@! TA.AperFunction,ComponentPad*
%ADD13C,3.500000*%
G04 #@! TD*
G04 #@! TA.AperFunction,ViaPad*
%ADD14C,0.800000*%
G04 #@! TD*
G04 #@! TA.AperFunction,Conductor*
%ADD15C,0.440000*%
G04 #@! TD*
G04 APERTURE END LIST*
D10*
X101600000Y-101600000D03*
D11*
X101600000Y-104140000D03*
X101600000Y-106680000D03*
X101600000Y-109220000D03*
X101600000Y-111760000D03*
X101600000Y-114300000D03*
D10*
X139700000Y-106680000D03*
D12*
X139700000Y-109180000D03*
X141700000Y-109180000D03*
X141700000Y-106680000D03*
D13*
X144410000Y-101910000D03*
X144410000Y-113950000D03*
D14*
X130302000Y-107950000D03*
X131191000Y-114554000D03*
X120650000Y-111252000D03*
X137287000Y-110490000D03*
X121031000Y-108458000D03*
X127254000Y-113792000D03*
X136779000Y-106426000D03*
X121539000Y-113157000D03*
X118364000Y-112014000D03*
X111125000Y-113030000D03*
X126746000Y-106426000D03*
X115570000Y-112014000D03*
X124079000Y-104521000D03*
X126746000Y-111506000D03*
X119380000Y-114808000D03*
X119380000Y-111563500D03*
X117475000Y-111125000D03*
X131629500Y-111125000D03*
X131629500Y-109855000D03*
X113030000Y-105410000D03*
X123190000Y-107315000D03*
X112395000Y-100330000D03*
D15*
X119380000Y-111563500D02*
X119380000Y-114808000D01*
X118232000Y-110368000D02*
X117475000Y-111125000D01*
X131629500Y-111125000D02*
X130872500Y-110368000D01*
X130872500Y-110368000D02*
X118232000Y-110368000D01*
X131502500Y-109728000D02*
X131629500Y-109855000D01*
X114808000Y-109728000D02*
X131502500Y-109728000D01*
X113030000Y-105410000D02*
X113030000Y-107950000D01*
X113030000Y-107950000D02*
X114808000Y-109728000D01*
X123190000Y-107315000D02*
X119380000Y-107315000D01*
X119380000Y-107315000D02*
X112395000Y-100330000D01*
G04 #@! TA.AperFunction,Conductor*
G36*
X147257500Y-97807113D02*
G01*
X147302887Y-97852500D01*
X147319500Y-97914500D01*
X147319500Y-117985500D01*
X147302887Y-118047500D01*
X147257500Y-118092887D01*
X147195500Y-118109500D01*
X97914500Y-118109500D01*
X97852500Y-118092887D01*
X97807113Y-118047500D01*
X97790500Y-117985500D01*
X97790500Y-112010000D01*
X100269364Y-112010000D01*
X100326569Y-112223492D01*
X100426399Y-112437576D01*
X100561893Y-112631081D01*
X100728918Y-112798106D01*
X100922423Y-112933600D01*
X101136508Y-113033430D01*
X101175584Y-113043901D01*
X101229261Y-113074125D01*
X101261771Y-113126449D01*
X101265090Y-113187961D01*
X101238399Y-113243479D01*
X101188285Y-113279303D01*
X101107360Y-113310653D01*
X100933958Y-113418018D01*
X100783236Y-113555419D01*
X100660324Y-113718181D01*
X100569418Y-113900748D01*
X100513602Y-114096916D01*
X100494785Y-114299999D01*
X100513602Y-114503083D01*
X100569418Y-114699251D01*
X100660324Y-114881818D01*
X100783236Y-115044580D01*
X100933958Y-115181981D01*
X101107361Y-115289347D01*
X101107363Y-115289348D01*
X101297544Y-115363024D01*
X101498024Y-115400500D01*
X101701974Y-115400500D01*
X101701976Y-115400500D01*
X101902456Y-115363024D01*
X102092637Y-115289348D01*
X102266041Y-115181981D01*
X102416764Y-115044579D01*
X102539673Y-114881821D01*
X102539673Y-114881819D01*
X102539675Y-114881818D01*
X102588800Y-114783161D01*
X102630582Y-114699250D01*
X102686397Y-114503083D01*
X102705215Y-114300000D01*
X102686397Y-114096917D01*
X102630582Y-113900750D01*
X102630209Y-113900001D01*
X102539675Y-113718181D01*
X102416763Y-113555419D01*
X102266041Y-113418018D01*
X102092640Y-113310653D01*
X102073382Y-113303192D01*
X102011712Y-113279301D01*
X101961600Y-113243479D01*
X101934909Y-113187961D01*
X101938228Y-113126449D01*
X101970738Y-113074124D01*
X102024416Y-113043901D01*
X102063490Y-113033431D01*
X102277576Y-112933600D01*
X102471081Y-112798106D01*
X102638106Y-112631081D01*
X102773600Y-112437576D01*
X102873430Y-112223492D01*
X102930636Y-112010000D01*
X100269364Y-112010000D01*
X97790500Y-112010000D01*
X97790500Y-111510000D01*
X100269364Y-111510000D01*
X102930636Y-111510000D01*
X102930635Y-111509999D01*
X102873430Y-111296507D01*
X102773599Y-111082421D01*
X102638109Y-110888921D01*
X102471081Y-110721893D01*
X102277576Y-110586399D01*
X102063488Y-110486567D01*
X102024413Y-110476097D01*
X101970736Y-110445873D01*
X101938228Y-110393549D01*
X101934910Y-110332037D01*
X101961601Y-110276519D01*
X102011713Y-110240697D01*
X102092637Y-110209348D01*
X102266041Y-110101981D01*
X102416764Y-109964579D01*
X102539673Y-109801821D01*
X102539673Y-109801819D01*
X102539675Y-109801818D01*
X102591279Y-109698181D01*
X102630582Y-109619250D01*
X102686397Y-109423083D01*
X102705215Y-109220000D01*
X102686397Y-109016917D01*
X102630582Y-108820750D01*
X102630209Y-108820001D01*
X102539675Y-108638181D01*
X102416763Y-108475419D01*
X102266041Y-108338018D01*
X102092638Y-108230652D01*
X101902457Y-108156976D01*
X101835629Y-108144483D01*
X101701976Y-108119500D01*
X101498024Y-108119500D01*
X101397784Y-108138237D01*
X101297542Y-108156976D01*
X101107361Y-108230652D01*
X100933958Y-108338018D01*
X100783236Y-108475419D01*
X100660324Y-108638181D01*
X100569418Y-108820748D01*
X100513602Y-109016916D01*
X100494785Y-109220000D01*
X100513602Y-109423083D01*
X100569418Y-109619251D01*
X100660324Y-109801818D01*
X100783236Y-109964580D01*
X100933958Y-110101981D01*
X101107361Y-110209347D01*
X101107363Y-110209348D01*
X101188286Y-110240697D01*
X101238398Y-110276519D01*
X101265089Y-110332037D01*
X101261771Y-110393548D01*
X101229263Y-110445873D01*
X101175586Y-110476097D01*
X101136511Y-110486567D01*
X100922421Y-110586400D01*
X100728921Y-110721890D01*
X100561890Y-110888921D01*
X100426400Y-111082421D01*
X100326569Y-111296507D01*
X100269364Y-111509999D01*
X100269364Y-111510000D01*
X97790500Y-111510000D01*
X97790500Y-106680000D01*
X100494785Y-106680000D01*
X100513602Y-106883083D01*
X100569418Y-107079251D01*
X100660324Y-107261818D01*
X100783236Y-107424580D01*
X100933958Y-107561981D01*
X101091566Y-107659567D01*
X101107363Y-107669348D01*
X101297544Y-107743024D01*
X101498024Y-107780500D01*
X101701974Y-107780500D01*
X101701976Y-107780500D01*
X101902456Y-107743024D01*
X102092637Y-107669348D01*
X102266041Y-107561981D01*
X102416764Y-107424579D01*
X102539673Y-107261821D01*
X102539673Y-107261819D01*
X102539675Y-107261818D01*
X102598593Y-107143492D01*
X102630582Y-107079250D01*
X102686397Y-106883083D01*
X102705215Y-106680000D01*
X102686397Y-106476917D01*
X102630582Y-106280750D01*
X102598593Y-106216507D01*
X102539675Y-106098181D01*
X102416763Y-105935419D01*
X102266041Y-105798018D01*
X102092638Y-105690652D01*
X101902457Y-105616976D01*
X101779726Y-105594034D01*
X101701976Y-105579500D01*
X101498024Y-105579500D01*
X101420279Y-105594033D01*
X101297542Y-105616976D01*
X101107361Y-105690652D01*
X100933958Y-105798018D01*
X100783236Y-105935419D01*
X100660324Y-106098181D01*
X100569418Y-106280748D01*
X100513602Y-106476916D01*
X100494785Y-106680000D01*
X97790500Y-106680000D01*
X97790500Y-105409999D01*
X112374721Y-105409999D01*
X112393763Y-105566818D01*
X112449780Y-105714523D01*
X112537550Y-105841681D01*
X112553885Y-105875231D01*
X112559500Y-105912121D01*
X112559500Y-107886091D01*
X112556666Y-107912450D01*
X112555873Y-107916091D01*
X112559184Y-107962374D01*
X112559500Y-107971220D01*
X112559500Y-107983648D01*
X112561268Y-107995949D01*
X112562213Y-108004742D01*
X112565525Y-108051040D01*
X112566832Y-108054545D01*
X112573384Y-108080216D01*
X112573917Y-108083918D01*
X112590167Y-108119500D01*
X112593196Y-108126132D01*
X112596584Y-108134312D01*
X112612805Y-108177804D01*
X112615043Y-108180794D01*
X112628566Y-108203585D01*
X112630120Y-108206987D01*
X112650626Y-108230652D01*
X112660520Y-108242070D01*
X112666065Y-108248951D01*
X112673514Y-108258901D01*
X112673517Y-108258904D01*
X112682287Y-108267674D01*
X112688321Y-108274154D01*
X112718720Y-108309236D01*
X112721860Y-108311254D01*
X112742501Y-108327888D01*
X114430113Y-110015501D01*
X114446745Y-110036138D01*
X114448764Y-110039280D01*
X114483836Y-110069670D01*
X114490317Y-110075705D01*
X114499094Y-110084483D01*
X114499097Y-110084485D01*
X114499099Y-110084487D01*
X114509056Y-110091940D01*
X114515934Y-110097484D01*
X114551013Y-110127880D01*
X114554409Y-110129430D01*
X114577202Y-110142953D01*
X114580195Y-110145194D01*
X114623684Y-110161414D01*
X114631850Y-110164796D01*
X114674082Y-110184083D01*
X114677778Y-110184614D01*
X114703459Y-110191169D01*
X114706960Y-110192475D01*
X114753262Y-110195786D01*
X114762058Y-110196732D01*
X114774352Y-110198500D01*
X114786771Y-110198500D01*
X114795616Y-110198815D01*
X114841910Y-110202127D01*
X114845561Y-110201333D01*
X114871916Y-110198500D01*
X117436751Y-110198500D01*
X117493046Y-110212015D01*
X117537069Y-110249615D01*
X117559224Y-110303102D01*
X117554682Y-110360818D01*
X117524432Y-110410181D01*
X117496432Y-110438181D01*
X117456204Y-110465061D01*
X117408751Y-110474500D01*
X117396015Y-110474500D01*
X117242635Y-110512303D01*
X117102761Y-110585716D01*
X116984515Y-110690471D01*
X116894780Y-110820476D01*
X116838763Y-110968181D01*
X116819721Y-111125000D01*
X116838763Y-111281818D01*
X116894780Y-111429523D01*
X116984515Y-111559528D01*
X116984516Y-111559529D01*
X116984517Y-111559530D01*
X117102760Y-111664283D01*
X117242635Y-111737696D01*
X117396015Y-111775500D01*
X117553985Y-111775500D01*
X117707365Y-111737696D01*
X117847240Y-111664283D01*
X117965483Y-111559530D01*
X118055220Y-111429523D01*
X118111237Y-111281818D01*
X118123722Y-111178982D01*
X118135331Y-111139647D01*
X118159134Y-111106252D01*
X118390569Y-110874818D01*
X118430799Y-110847939D01*
X118478251Y-110838500D01*
X118890430Y-110838500D01*
X118948056Y-110852704D01*
X118992480Y-110892060D01*
X119013526Y-110947554D01*
X119006372Y-111006472D01*
X118972658Y-111055313D01*
X118942061Y-111082421D01*
X118889515Y-111128971D01*
X118799780Y-111258976D01*
X118743763Y-111406681D01*
X118724721Y-111563500D01*
X118743763Y-111720318D01*
X118799780Y-111868023D01*
X118887550Y-111995181D01*
X118903885Y-112028731D01*
X118909500Y-112065621D01*
X118909500Y-114305879D01*
X118903885Y-114342769D01*
X118887550Y-114376319D01*
X118799780Y-114503476D01*
X118743763Y-114651181D01*
X118724721Y-114808000D01*
X118743763Y-114964818D01*
X118799780Y-115112523D01*
X118889515Y-115242528D01*
X118889516Y-115242529D01*
X118889517Y-115242530D01*
X119007760Y-115347283D01*
X119147635Y-115420696D01*
X119301015Y-115458500D01*
X119458985Y-115458500D01*
X119612365Y-115420696D01*
X119752240Y-115347283D01*
X119870483Y-115242530D01*
X119960220Y-115112523D01*
X120016237Y-114964818D01*
X120035278Y-114808000D01*
X120016237Y-114651182D01*
X119960220Y-114503477D01*
X119872450Y-114376319D01*
X119856115Y-114342769D01*
X119850500Y-114305879D01*
X119850500Y-113949999D01*
X142404389Y-113949999D01*
X142424804Y-114235429D01*
X142485629Y-114515041D01*
X142585634Y-114783163D01*
X142722772Y-115034313D01*
X142730458Y-115044580D01*
X142894261Y-115263395D01*
X143096605Y-115465739D01*
X143268415Y-115594354D01*
X143325686Y-115637227D01*
X143465435Y-115713535D01*
X143576839Y-115774367D01*
X143844954Y-115874369D01*
X143844957Y-115874369D01*
X143844958Y-115874370D01*
X143897217Y-115885738D01*
X144124572Y-115935196D01*
X144410000Y-115955610D01*
X144695428Y-115935196D01*
X144975046Y-115874369D01*
X145243161Y-115774367D01*
X145494315Y-115637226D01*
X145723395Y-115465739D01*
X145925739Y-115263395D01*
X146097226Y-115034315D01*
X146234367Y-114783161D01*
X146334369Y-114515046D01*
X146395196Y-114235428D01*
X146415610Y-113950000D01*
X146395196Y-113664572D01*
X146334369Y-113384954D01*
X146234367Y-113116839D01*
X146097226Y-112865685D01*
X145925739Y-112636605D01*
X145723395Y-112434261D01*
X145608855Y-112348517D01*
X145494313Y-112262772D01*
X145243163Y-112125634D01*
X145243162Y-112125633D01*
X145243161Y-112125633D01*
X145068123Y-112060347D01*
X144975041Y-112025629D01*
X144695429Y-111964804D01*
X144410000Y-111944389D01*
X144124570Y-111964804D01*
X143844958Y-112025629D01*
X143576836Y-112125634D01*
X143325686Y-112262772D01*
X143096602Y-112434263D01*
X142894263Y-112636602D01*
X142722772Y-112865686D01*
X142585634Y-113116836D01*
X142485629Y-113384958D01*
X142424804Y-113664570D01*
X142404389Y-113949999D01*
X119850500Y-113949999D01*
X119850500Y-112065621D01*
X119856115Y-112028731D01*
X119872450Y-111995181D01*
X119907508Y-111944390D01*
X119960220Y-111868023D01*
X120016237Y-111720318D01*
X120035278Y-111563500D01*
X120016237Y-111406682D01*
X119960220Y-111258977D01*
X119877853Y-111139647D01*
X119870484Y-111128971D01*
X119817939Y-111082421D01*
X119787341Y-111055313D01*
X119753628Y-111006472D01*
X119746474Y-110947554D01*
X119767520Y-110892060D01*
X119811944Y-110852704D01*
X119869570Y-110838500D01*
X130626251Y-110838500D01*
X130673704Y-110847939D01*
X130713932Y-110874819D01*
X130945361Y-111106248D01*
X130969167Y-111139645D01*
X130980776Y-111178982D01*
X130993263Y-111281818D01*
X131049280Y-111429523D01*
X131139015Y-111559528D01*
X131139016Y-111559529D01*
X131139017Y-111559530D01*
X131257260Y-111664283D01*
X131397135Y-111737696D01*
X131550515Y-111775500D01*
X131708485Y-111775500D01*
X131861865Y-111737696D01*
X132001740Y-111664283D01*
X132119983Y-111559530D01*
X132209720Y-111429523D01*
X132265737Y-111281818D01*
X132284778Y-111125000D01*
X132265737Y-110968182D01*
X132209720Y-110820477D01*
X132119983Y-110690470D01*
X132001740Y-110585717D01*
X132001736Y-110585715D01*
X131998464Y-110582816D01*
X131961587Y-110524499D01*
X131961587Y-110455501D01*
X131998464Y-110397184D01*
X132001736Y-110394284D01*
X132001740Y-110394283D01*
X132119983Y-110289530D01*
X132209720Y-110159523D01*
X132265737Y-110011818D01*
X132284778Y-109855000D01*
X132265737Y-109698182D01*
X132209720Y-109550477D01*
X132119983Y-109420470D01*
X132001740Y-109315717D01*
X131988494Y-109308764D01*
X131861864Y-109242303D01*
X131708485Y-109204500D01*
X131550515Y-109204500D01*
X131397134Y-109242303D01*
X131395246Y-109243295D01*
X131337618Y-109257500D01*
X115054250Y-109257500D01*
X115006797Y-109248061D01*
X114966569Y-109221181D01*
X114925388Y-109180000D01*
X138594785Y-109180000D01*
X138613602Y-109383083D01*
X138669418Y-109579251D01*
X138760324Y-109761818D01*
X138883236Y-109924580D01*
X139033958Y-110061981D01*
X139197049Y-110162962D01*
X139207363Y-110169348D01*
X139397544Y-110243024D01*
X139598024Y-110280500D01*
X139801974Y-110280500D01*
X139801976Y-110280500D01*
X140002456Y-110243024D01*
X140192637Y-110169348D01*
X140366041Y-110061981D01*
X140516764Y-109924579D01*
X140601044Y-109812972D01*
X140644728Y-109776698D01*
X140700000Y-109763698D01*
X140755272Y-109776698D01*
X140798954Y-109812972D01*
X140883234Y-109924578D01*
X141033958Y-110061981D01*
X141197049Y-110162962D01*
X141207363Y-110169348D01*
X141397544Y-110243024D01*
X141598024Y-110280500D01*
X141801974Y-110280500D01*
X141801976Y-110280500D01*
X142002456Y-110243024D01*
X142192637Y-110169348D01*
X142366041Y-110061981D01*
X142516764Y-109924579D01*
X142639673Y-109761821D01*
X142639673Y-109761819D01*
X142639675Y-109761818D01*
X142710664Y-109619250D01*
X142730582Y-109579250D01*
X142786397Y-109383083D01*
X142805215Y-109180000D01*
X142786397Y-108976917D01*
X142730582Y-108780750D01*
X142659591Y-108638179D01*
X142639675Y-108598181D01*
X142516763Y-108435419D01*
X142366041Y-108298018D01*
X142192640Y-108190653D01*
X142186194Y-108188156D01*
X142170081Y-108181914D01*
X142122812Y-108149355D01*
X142095269Y-108098996D01*
X142093354Y-108041629D01*
X142117478Y-107989545D01*
X142162472Y-107953906D01*
X142377576Y-107853600D01*
X142461373Y-107794925D01*
X141434128Y-106767680D01*
X141402034Y-106712092D01*
X141402034Y-106680000D01*
X142053553Y-106680000D01*
X142814925Y-107441373D01*
X142873600Y-107357576D01*
X142973430Y-107143492D01*
X143034569Y-106915318D01*
X143055157Y-106680000D01*
X143034569Y-106444681D01*
X142973430Y-106216507D01*
X142873599Y-106002421D01*
X142814926Y-105918626D01*
X142814925Y-105918625D01*
X142053553Y-106680000D01*
X141402034Y-106680000D01*
X141402034Y-106647905D01*
X141434128Y-106592318D01*
X141700000Y-106326447D01*
X142461373Y-105565073D01*
X142461373Y-105565072D01*
X142377580Y-105506400D01*
X142163492Y-105406569D01*
X141935318Y-105345430D01*
X141700000Y-105324842D01*
X141464681Y-105345430D01*
X141236507Y-105406569D01*
X141022420Y-105506400D01*
X140844908Y-105630695D01*
X140799743Y-105650373D01*
X140750480Y-105650910D01*
X140704896Y-105632223D01*
X140647740Y-105594034D01*
X140574675Y-105579500D01*
X140574674Y-105579500D01*
X138825326Y-105579500D01*
X138825325Y-105579500D01*
X138752261Y-105594033D01*
X138669399Y-105649399D01*
X138614033Y-105732261D01*
X138599500Y-105805325D01*
X138599500Y-107554675D01*
X138614033Y-107627738D01*
X138614033Y-107627739D01*
X138614034Y-107627740D01*
X138669399Y-107710601D01*
X138752260Y-107765966D01*
X138780644Y-107771612D01*
X138825325Y-107780500D01*
X138825326Y-107780500D01*
X140574674Y-107780500D01*
X140574675Y-107780500D01*
X140609809Y-107773511D01*
X140647740Y-107765966D01*
X140704898Y-107727774D01*
X140750479Y-107709089D01*
X140799743Y-107709626D01*
X140844908Y-107729304D01*
X141022420Y-107853599D01*
X141237527Y-107953906D01*
X141282521Y-107989545D01*
X141306645Y-108041629D01*
X141304731Y-108098996D01*
X141277187Y-108149354D01*
X141229917Y-108181914D01*
X141207363Y-108190651D01*
X141033958Y-108298018D01*
X140883236Y-108435419D01*
X140798954Y-108547028D01*
X140755271Y-108583301D01*
X140700000Y-108596301D01*
X140644729Y-108583301D01*
X140601046Y-108547028D01*
X140516763Y-108435419D01*
X140366041Y-108298018D01*
X140192638Y-108190652D01*
X140002457Y-108116976D01*
X139906271Y-108098996D01*
X139801976Y-108079500D01*
X139598024Y-108079500D01*
X139497783Y-108098238D01*
X139397542Y-108116976D01*
X139207361Y-108190652D01*
X139033958Y-108298018D01*
X138883236Y-108435419D01*
X138760324Y-108598181D01*
X138669418Y-108780748D01*
X138613602Y-108976916D01*
X138594785Y-109180000D01*
X114925388Y-109180000D01*
X113536819Y-107791432D01*
X113509939Y-107751204D01*
X113500500Y-107703751D01*
X113500500Y-105912121D01*
X113506115Y-105875231D01*
X113522450Y-105841681D01*
X113597976Y-105732261D01*
X113610220Y-105714523D01*
X113666237Y-105566818D01*
X113685278Y-105410000D01*
X113684861Y-105406569D01*
X113674938Y-105324842D01*
X113666237Y-105253182D01*
X113610220Y-105105477D01*
X113520483Y-104975470D01*
X113402240Y-104870717D01*
X113388994Y-104863764D01*
X113262364Y-104797303D01*
X113108985Y-104759500D01*
X112951015Y-104759500D01*
X112797635Y-104797303D01*
X112657761Y-104870716D01*
X112539515Y-104975471D01*
X112449780Y-105105476D01*
X112393763Y-105253181D01*
X112374721Y-105409999D01*
X97790500Y-105409999D01*
X97790500Y-104140000D01*
X100494785Y-104140000D01*
X100513602Y-104343083D01*
X100569418Y-104539251D01*
X100660324Y-104721818D01*
X100783236Y-104884580D01*
X100933958Y-105021981D01*
X101107361Y-105129347D01*
X101107363Y-105129348D01*
X101297544Y-105203024D01*
X101498024Y-105240500D01*
X101701974Y-105240500D01*
X101701976Y-105240500D01*
X101902456Y-105203024D01*
X102092637Y-105129348D01*
X102266041Y-105021981D01*
X102416764Y-104884579D01*
X102539673Y-104721821D01*
X102539673Y-104721819D01*
X102539675Y-104721818D01*
X102585313Y-104630161D01*
X102630582Y-104539250D01*
X102686397Y-104343083D01*
X102705215Y-104140000D01*
X102686397Y-103936917D01*
X102630582Y-103740750D01*
X102627403Y-103734365D01*
X102539675Y-103558181D01*
X102416763Y-103395419D01*
X102266041Y-103258018D01*
X102092638Y-103150652D01*
X101902457Y-103076976D01*
X101835629Y-103064483D01*
X101701976Y-103039500D01*
X101498024Y-103039500D01*
X101397783Y-103058238D01*
X101297542Y-103076976D01*
X101107361Y-103150652D01*
X100933958Y-103258018D01*
X100783236Y-103395419D01*
X100660324Y-103558181D01*
X100569418Y-103740748D01*
X100513602Y-103936916D01*
X100494785Y-104140000D01*
X97790500Y-104140000D01*
X97790500Y-102474675D01*
X100499500Y-102474675D01*
X100514033Y-102547738D01*
X100514033Y-102547739D01*
X100514034Y-102547740D01*
X100569399Y-102630601D01*
X100652260Y-102685966D01*
X100688792Y-102693232D01*
X100725325Y-102700500D01*
X100725326Y-102700500D01*
X102474674Y-102700500D01*
X102474675Y-102700500D01*
X102499029Y-102695655D01*
X102547740Y-102685966D01*
X102630601Y-102630601D01*
X102685966Y-102547740D01*
X102700500Y-102474674D01*
X102700500Y-100725326D01*
X102685966Y-100652260D01*
X102630601Y-100569399D01*
X102547740Y-100514034D01*
X102547739Y-100514033D01*
X102547738Y-100514033D01*
X102474675Y-100499500D01*
X102474674Y-100499500D01*
X100725326Y-100499500D01*
X100725325Y-100499500D01*
X100652261Y-100514033D01*
X100569399Y-100569399D01*
X100514033Y-100652261D01*
X100499500Y-100725325D01*
X100499500Y-102474675D01*
X97790500Y-102474675D01*
X97790500Y-100330000D01*
X111739721Y-100330000D01*
X111758763Y-100486818D01*
X111814780Y-100634523D01*
X111904515Y-100764528D01*
X111904516Y-100764529D01*
X111904517Y-100764530D01*
X112022760Y-100869283D01*
X112162635Y-100942696D01*
X112316015Y-100980500D01*
X112328751Y-100980500D01*
X112376204Y-100989939D01*
X112416432Y-101016819D01*
X119002114Y-107602502D01*
X119018744Y-107623137D01*
X119020764Y-107626280D01*
X119020765Y-107626281D01*
X119020766Y-107626282D01*
X119055836Y-107656671D01*
X119062317Y-107662705D01*
X119071094Y-107671483D01*
X119071097Y-107671485D01*
X119071099Y-107671487D01*
X119081056Y-107678940D01*
X119087934Y-107684484D01*
X119123013Y-107714880D01*
X119126409Y-107716430D01*
X119149202Y-107729953D01*
X119152195Y-107732194D01*
X119195684Y-107748414D01*
X119203850Y-107751796D01*
X119246082Y-107771083D01*
X119249778Y-107771614D01*
X119275459Y-107778169D01*
X119278960Y-107779475D01*
X119325262Y-107782786D01*
X119334058Y-107783732D01*
X119346352Y-107785500D01*
X119358771Y-107785500D01*
X119367616Y-107785815D01*
X119413910Y-107789127D01*
X119417561Y-107788333D01*
X119443916Y-107785500D01*
X122693092Y-107785500D01*
X122737062Y-107793558D01*
X122775317Y-107816683D01*
X122807456Y-107845154D01*
X122817760Y-107854283D01*
X122957635Y-107927696D01*
X123111015Y-107965500D01*
X123268985Y-107965500D01*
X123422365Y-107927696D01*
X123562240Y-107854283D01*
X123680483Y-107749530D01*
X123770220Y-107619523D01*
X123826237Y-107471818D01*
X123845278Y-107315000D01*
X123826237Y-107158182D01*
X123770220Y-107010477D01*
X123680483Y-106880470D01*
X123562240Y-106775717D01*
X123546927Y-106767680D01*
X123422364Y-106702303D01*
X123268985Y-106664500D01*
X123111015Y-106664500D01*
X122957635Y-106702303D01*
X122817758Y-106775718D01*
X122775317Y-106813317D01*
X122737062Y-106836442D01*
X122693092Y-106844500D01*
X119626250Y-106844500D01*
X119578797Y-106835061D01*
X119538569Y-106808181D01*
X114640386Y-101909999D01*
X142404389Y-101909999D01*
X142424804Y-102195429D01*
X142485629Y-102475041D01*
X142585634Y-102743163D01*
X142722772Y-102994313D01*
X142756599Y-103039500D01*
X142894261Y-103223395D01*
X143096605Y-103425739D01*
X143268415Y-103554354D01*
X143325686Y-103597227D01*
X143465435Y-103673535D01*
X143576839Y-103734367D01*
X143844954Y-103834369D01*
X143844957Y-103834369D01*
X143844958Y-103834370D01*
X143897217Y-103845738D01*
X144124572Y-103895196D01*
X144410000Y-103915610D01*
X144695428Y-103895196D01*
X144975046Y-103834369D01*
X145243161Y-103734367D01*
X145494315Y-103597226D01*
X145723395Y-103425739D01*
X145925739Y-103223395D01*
X146097226Y-102994315D01*
X146234367Y-102743161D01*
X146334369Y-102475046D01*
X146395196Y-102195428D01*
X146415610Y-101910000D01*
X146395196Y-101624572D01*
X146334369Y-101344954D01*
X146234367Y-101076839D01*
X146161119Y-100942696D01*
X146097227Y-100825686D01*
X146022098Y-100725326D01*
X145925739Y-100596605D01*
X145723395Y-100394261D01*
X145608855Y-100308517D01*
X145494313Y-100222772D01*
X145243163Y-100085634D01*
X145243162Y-100085633D01*
X145243161Y-100085633D01*
X144975046Y-99985631D01*
X144975041Y-99985629D01*
X144695429Y-99924804D01*
X144410000Y-99904389D01*
X144124570Y-99924804D01*
X143844958Y-99985629D01*
X143576836Y-100085634D01*
X143325686Y-100222772D01*
X143096602Y-100394263D01*
X142894263Y-100596602D01*
X142722772Y-100825686D01*
X142585634Y-101076836D01*
X142485629Y-101344958D01*
X142424804Y-101624570D01*
X142404389Y-101909999D01*
X114640386Y-101909999D01*
X113079137Y-100348750D01*
X113055331Y-100315352D01*
X113043722Y-100276014D01*
X113037258Y-100222774D01*
X113031237Y-100173182D01*
X112975220Y-100025477D01*
X112891640Y-99904390D01*
X112885484Y-99895471D01*
X112885483Y-99895470D01*
X112767240Y-99790717D01*
X112753994Y-99783764D01*
X112627364Y-99717303D01*
X112473985Y-99679500D01*
X112316015Y-99679500D01*
X112162635Y-99717303D01*
X112022761Y-99790716D01*
X111904515Y-99895471D01*
X111814780Y-100025476D01*
X111758763Y-100173181D01*
X111739721Y-100330000D01*
X97790500Y-100330000D01*
X97790500Y-97914500D01*
X97807113Y-97852500D01*
X97852500Y-97807113D01*
X97914500Y-97790500D01*
X147195500Y-97790500D01*
X147257500Y-97807113D01*
G37*
G04 #@! TD.AperFunction*
M02*
