M48
; DRILL file {KiCad 7.0.1} date Fri Mar 31 20:55:59 2023
; FORMAT={-:-/ absolute / metric / decimal}
; #@! TF.CreationDate,2023-03-31T20:55:59+02:00
; #@! TF.GenerationSoftware,Kicad,Pcbnew,7.0.1
; #@! TF.FileFunction,Plated,1,2,PTH
FMAT,2
METRIC
; #@! TA.AperFunction,Plated,PTH,ViaDrill
T1C0.400
; #@! TA.AperFunction,Plated,PTH,ComponentDrill
T2C0.920
; #@! TA.AperFunction,Plated,PTH,ComponentDrill
T3C1.000
; #@! TA.AperFunction,Plated,PTH,ComponentDrill
T4C2.330
%
G90
G05
T1
X111.125Y-113.03
X112.395Y-100.33
X113.03Y-105.41
X115.57Y-112.014
X117.475Y-111.125
X118.364Y-112.014
X119.38Y-111.563
X119.38Y-114.808
X120.65Y-111.252
X121.031Y-108.458
X121.539Y-113.157
X123.19Y-107.315
X124.079Y-104.521
X126.746Y-106.426
X126.746Y-111.506
X127.254Y-113.792
X130.302Y-107.95
X131.191Y-114.554
X131.63Y-109.855
X131.63Y-111.125
X136.779Y-106.426
X137.287Y-110.49
T2
X139.7Y-106.68
X139.7Y-109.18
X141.7Y-106.68
X141.7Y-109.18
T3
X101.6Y-101.6
X101.6Y-104.14
X101.6Y-106.68
X101.6Y-109.22
X101.6Y-111.76
X101.6Y-114.3
T4
X144.41Y-101.91
X144.41Y-113.95
T0
M30
