G04 #@! TF.GenerationSoftware,KiCad,Pcbnew,7.0.1*
G04 #@! TF.CreationDate,2023-03-31T20:55:01+02:00*
G04 #@! TF.ProjectId,PMOD USB UART,504d4f44-2055-4534-9220-554152542e6b,V1.0*
G04 #@! TF.SameCoordinates,Original*
G04 #@! TF.FileFunction,Legend,Top*
G04 #@! TF.FilePolarity,Positive*
%FSLAX46Y46*%
G04 Gerber Fmt 4.6, Leading zero omitted, Abs format (unit mm)*
G04 Created by KiCad (PCBNEW 7.0.1) date 2023-03-31 20:55:01*
%MOMM*%
%LPD*%
G01*
G04 APERTURE LIST*
G04 Aperture macros list*
%AMRoundRect*
0 Rectangle with rounded corners*
0 $1 Rounding radius*
0 $2 $3 $4 $5 $6 $7 $8 $9 X,Y pos of 4 corners*
0 Add a 4 corners polygon primitive as box body*
4,1,4,$2,$3,$4,$5,$6,$7,$8,$9,$2,$3,0*
0 Add four circle primitives for the rounded corners*
1,1,$1+$1,$2,$3*
1,1,$1+$1,$4,$5*
1,1,$1+$1,$6,$7*
1,1,$1+$1,$8,$9*
0 Add four rect primitives between the rounded corners*
20,1,$1+$1,$2,$3,$4,$5,0*
20,1,$1+$1,$4,$5,$6,$7,0*
20,1,$1+$1,$6,$7,$8,$9,0*
20,1,$1+$1,$8,$9,$2,$3,0*%
%AMFreePoly0*
4,1,19,0.550000,-0.750000,0.000000,-0.750000,0.000000,-0.744911,-0.071157,-0.744911,-0.207708,-0.704816,-0.327430,-0.627875,-0.420627,-0.520320,-0.479746,-0.390866,-0.500000,-0.250000,-0.500000,0.250000,-0.479746,0.390866,-0.420627,0.520320,-0.327430,0.627875,-0.207708,0.704816,-0.071157,0.744911,0.000000,0.744911,0.000000,0.750000,0.550000,0.750000,0.550000,-0.750000,0.550000,-0.750000,
$1*%
%AMFreePoly1*
4,1,19,0.000000,0.744911,0.071157,0.744911,0.207708,0.704816,0.327430,0.627875,0.420627,0.520320,0.479746,0.390866,0.500000,0.250000,0.500000,-0.250000,0.479746,-0.390866,0.420627,-0.520320,0.327430,-0.627875,0.207708,-0.704816,0.071157,-0.744911,0.000000,-0.744911,0.000000,-0.750000,-0.550000,-0.750000,-0.550000,0.750000,0.000000,0.750000,0.000000,0.744911,0.000000,0.744911,
$1*%
%AMFreePoly2*
4,1,19,0.500000,-0.750000,0.000000,-0.750000,0.000000,-0.744911,-0.071157,-0.744911,-0.207708,-0.704816,-0.327430,-0.627875,-0.420627,-0.520320,-0.479746,-0.390866,-0.500000,-0.250000,-0.500000,0.250000,-0.479746,0.390866,-0.420627,0.520320,-0.327430,0.627875,-0.207708,0.704816,-0.071157,0.744911,0.000000,0.744911,0.000000,0.750000,0.500000,0.750000,0.500000,-0.750000,0.500000,-0.750000,
$1*%
%AMFreePoly3*
4,1,19,0.000000,0.744911,0.071157,0.744911,0.207708,0.704816,0.327430,0.627875,0.420627,0.520320,0.479746,0.390866,0.500000,0.250000,0.500000,-0.250000,0.479746,-0.390866,0.420627,-0.520320,0.327430,-0.627875,0.207708,-0.704816,0.071157,-0.744911,0.000000,-0.744911,0.000000,-0.750000,-0.500000,-0.750000,-0.500000,0.750000,0.000000,0.750000,0.000000,0.744911,0.000000,0.744911,
$1*%
G04 Aperture macros list end*
%ADD10C,0.150000*%
%ADD11C,0.120000*%
%ADD12RoundRect,0.250000X0.350000X0.450000X-0.350000X0.450000X-0.350000X-0.450000X0.350000X-0.450000X0*%
%ADD13RoundRect,0.150000X0.825000X0.150000X-0.825000X0.150000X-0.825000X-0.150000X0.825000X-0.150000X0*%
%ADD14R,1.700000X1.700000*%
%ADD15O,1.700000X1.700000*%
%ADD16RoundRect,0.250000X-0.325000X-0.450000X0.325000X-0.450000X0.325000X0.450000X-0.325000X0.450000X0*%
%ADD17RoundRect,0.250000X0.337500X0.475000X-0.337500X0.475000X-0.337500X-0.475000X0.337500X-0.475000X0*%
%ADD18C,1.700000*%
%ADD19C,3.500000*%
%ADD20RoundRect,0.250000X-0.350000X-0.450000X0.350000X-0.450000X0.350000X0.450000X-0.350000X0.450000X0*%
%ADD21FreePoly0,90.000000*%
%ADD22R,1.500000X1.000000*%
%ADD23FreePoly1,90.000000*%
%ADD24RoundRect,0.250000X-0.475000X0.337500X-0.475000X-0.337500X0.475000X-0.337500X0.475000X0.337500X0*%
%ADD25FreePoly2,180.000000*%
%ADD26FreePoly3,180.000000*%
G04 APERTURE END LIST*
D10*
X104783095Y-106142619D02*
X105354523Y-106142619D01*
X105068809Y-107142619D02*
X105068809Y-106142619D01*
X105592619Y-106142619D02*
X106259285Y-107142619D01*
X106259285Y-106142619D02*
X105592619Y-107142619D01*
X106640238Y-107142619D02*
X106640238Y-106142619D01*
X106640238Y-106142619D02*
X106878333Y-106142619D01*
X106878333Y-106142619D02*
X107021190Y-106190238D01*
X107021190Y-106190238D02*
X107116428Y-106285476D01*
X107116428Y-106285476D02*
X107164047Y-106380714D01*
X107164047Y-106380714D02*
X107211666Y-106571190D01*
X107211666Y-106571190D02*
X107211666Y-106714047D01*
X107211666Y-106714047D02*
X107164047Y-106904523D01*
X107164047Y-106904523D02*
X107116428Y-106999761D01*
X107116428Y-106999761D02*
X107021190Y-107095000D01*
X107021190Y-107095000D02*
X106878333Y-107142619D01*
X106878333Y-107142619D02*
X106640238Y-107142619D01*
X107204762Y-116397857D02*
X107252381Y-116350238D01*
X107252381Y-116350238D02*
X107347619Y-116302619D01*
X107347619Y-116302619D02*
X107585714Y-116302619D01*
X107585714Y-116302619D02*
X107680952Y-116350238D01*
X107680952Y-116350238D02*
X107728571Y-116397857D01*
X107728571Y-116397857D02*
X107776190Y-116493095D01*
X107776190Y-116493095D02*
X107776190Y-116588333D01*
X107776190Y-116588333D02*
X107728571Y-116731190D01*
X107728571Y-116731190D02*
X107157143Y-117302619D01*
X107157143Y-117302619D02*
X107776190Y-117302619D01*
X108395238Y-116302619D02*
X108490476Y-116302619D01*
X108490476Y-116302619D02*
X108585714Y-116350238D01*
X108585714Y-116350238D02*
X108633333Y-116397857D01*
X108633333Y-116397857D02*
X108680952Y-116493095D01*
X108680952Y-116493095D02*
X108728571Y-116683571D01*
X108728571Y-116683571D02*
X108728571Y-116921666D01*
X108728571Y-116921666D02*
X108680952Y-117112142D01*
X108680952Y-117112142D02*
X108633333Y-117207380D01*
X108633333Y-117207380D02*
X108585714Y-117255000D01*
X108585714Y-117255000D02*
X108490476Y-117302619D01*
X108490476Y-117302619D02*
X108395238Y-117302619D01*
X108395238Y-117302619D02*
X108300000Y-117255000D01*
X108300000Y-117255000D02*
X108252381Y-117207380D01*
X108252381Y-117207380D02*
X108204762Y-117112142D01*
X108204762Y-117112142D02*
X108157143Y-116921666D01*
X108157143Y-116921666D02*
X108157143Y-116683571D01*
X108157143Y-116683571D02*
X108204762Y-116493095D01*
X108204762Y-116493095D02*
X108252381Y-116397857D01*
X108252381Y-116397857D02*
X108300000Y-116350238D01*
X108300000Y-116350238D02*
X108395238Y-116302619D01*
X109109524Y-116397857D02*
X109157143Y-116350238D01*
X109157143Y-116350238D02*
X109252381Y-116302619D01*
X109252381Y-116302619D02*
X109490476Y-116302619D01*
X109490476Y-116302619D02*
X109585714Y-116350238D01*
X109585714Y-116350238D02*
X109633333Y-116397857D01*
X109633333Y-116397857D02*
X109680952Y-116493095D01*
X109680952Y-116493095D02*
X109680952Y-116588333D01*
X109680952Y-116588333D02*
X109633333Y-116731190D01*
X109633333Y-116731190D02*
X109061905Y-117302619D01*
X109061905Y-117302619D02*
X109680952Y-117302619D01*
X110014286Y-116302619D02*
X110633333Y-116302619D01*
X110633333Y-116302619D02*
X110300000Y-116683571D01*
X110300000Y-116683571D02*
X110442857Y-116683571D01*
X110442857Y-116683571D02*
X110538095Y-116731190D01*
X110538095Y-116731190D02*
X110585714Y-116778809D01*
X110585714Y-116778809D02*
X110633333Y-116874047D01*
X110633333Y-116874047D02*
X110633333Y-117112142D01*
X110633333Y-117112142D02*
X110585714Y-117207380D01*
X110585714Y-117207380D02*
X110538095Y-117255000D01*
X110538095Y-117255000D02*
X110442857Y-117302619D01*
X110442857Y-117302619D02*
X110157143Y-117302619D01*
X110157143Y-117302619D02*
X110061905Y-117255000D01*
X110061905Y-117255000D02*
X110014286Y-117207380D01*
X111061905Y-116921666D02*
X111823810Y-116921666D01*
X112490476Y-116302619D02*
X112585714Y-116302619D01*
X112585714Y-116302619D02*
X112680952Y-116350238D01*
X112680952Y-116350238D02*
X112728571Y-116397857D01*
X112728571Y-116397857D02*
X112776190Y-116493095D01*
X112776190Y-116493095D02*
X112823809Y-116683571D01*
X112823809Y-116683571D02*
X112823809Y-116921666D01*
X112823809Y-116921666D02*
X112776190Y-117112142D01*
X112776190Y-117112142D02*
X112728571Y-117207380D01*
X112728571Y-117207380D02*
X112680952Y-117255000D01*
X112680952Y-117255000D02*
X112585714Y-117302619D01*
X112585714Y-117302619D02*
X112490476Y-117302619D01*
X112490476Y-117302619D02*
X112395238Y-117255000D01*
X112395238Y-117255000D02*
X112347619Y-117207380D01*
X112347619Y-117207380D02*
X112300000Y-117112142D01*
X112300000Y-117112142D02*
X112252381Y-116921666D01*
X112252381Y-116921666D02*
X112252381Y-116683571D01*
X112252381Y-116683571D02*
X112300000Y-116493095D01*
X112300000Y-116493095D02*
X112347619Y-116397857D01*
X112347619Y-116397857D02*
X112395238Y-116350238D01*
X112395238Y-116350238D02*
X112490476Y-116302619D01*
X113157143Y-116302619D02*
X113776190Y-116302619D01*
X113776190Y-116302619D02*
X113442857Y-116683571D01*
X113442857Y-116683571D02*
X113585714Y-116683571D01*
X113585714Y-116683571D02*
X113680952Y-116731190D01*
X113680952Y-116731190D02*
X113728571Y-116778809D01*
X113728571Y-116778809D02*
X113776190Y-116874047D01*
X113776190Y-116874047D02*
X113776190Y-117112142D01*
X113776190Y-117112142D02*
X113728571Y-117207380D01*
X113728571Y-117207380D02*
X113680952Y-117255000D01*
X113680952Y-117255000D02*
X113585714Y-117302619D01*
X113585714Y-117302619D02*
X113300000Y-117302619D01*
X113300000Y-117302619D02*
X113204762Y-117255000D01*
X113204762Y-117255000D02*
X113157143Y-117207380D01*
X114204762Y-116921666D02*
X114966667Y-116921666D01*
X115347619Y-116302619D02*
X115966666Y-116302619D01*
X115966666Y-116302619D02*
X115633333Y-116683571D01*
X115633333Y-116683571D02*
X115776190Y-116683571D01*
X115776190Y-116683571D02*
X115871428Y-116731190D01*
X115871428Y-116731190D02*
X115919047Y-116778809D01*
X115919047Y-116778809D02*
X115966666Y-116874047D01*
X115966666Y-116874047D02*
X115966666Y-117112142D01*
X115966666Y-117112142D02*
X115919047Y-117207380D01*
X115919047Y-117207380D02*
X115871428Y-117255000D01*
X115871428Y-117255000D02*
X115776190Y-117302619D01*
X115776190Y-117302619D02*
X115490476Y-117302619D01*
X115490476Y-117302619D02*
X115395238Y-117255000D01*
X115395238Y-117255000D02*
X115347619Y-117207380D01*
X116919047Y-117302619D02*
X116347619Y-117302619D01*
X116633333Y-117302619D02*
X116633333Y-116302619D01*
X116633333Y-116302619D02*
X116538095Y-116445476D01*
X116538095Y-116445476D02*
X116442857Y-116540714D01*
X116442857Y-116540714D02*
X116347619Y-116588333D01*
X117395238Y-117255000D02*
X117395238Y-117302619D01*
X117395238Y-117302619D02*
X117347619Y-117397857D01*
X117347619Y-117397857D02*
X117300000Y-117445476D01*
X118442857Y-116302619D02*
X118776190Y-117302619D01*
X118776190Y-117302619D02*
X119109523Y-116302619D01*
X119966666Y-117302619D02*
X119395238Y-117302619D01*
X119680952Y-117302619D02*
X119680952Y-116302619D01*
X119680952Y-116302619D02*
X119585714Y-116445476D01*
X119585714Y-116445476D02*
X119490476Y-116540714D01*
X119490476Y-116540714D02*
X119395238Y-116588333D01*
X120395238Y-117207380D02*
X120442857Y-117255000D01*
X120442857Y-117255000D02*
X120395238Y-117302619D01*
X120395238Y-117302619D02*
X120347619Y-117255000D01*
X120347619Y-117255000D02*
X120395238Y-117207380D01*
X120395238Y-117207380D02*
X120395238Y-117302619D01*
X121061904Y-116302619D02*
X121157142Y-116302619D01*
X121157142Y-116302619D02*
X121252380Y-116350238D01*
X121252380Y-116350238D02*
X121299999Y-116397857D01*
X121299999Y-116397857D02*
X121347618Y-116493095D01*
X121347618Y-116493095D02*
X121395237Y-116683571D01*
X121395237Y-116683571D02*
X121395237Y-116921666D01*
X121395237Y-116921666D02*
X121347618Y-117112142D01*
X121347618Y-117112142D02*
X121299999Y-117207380D01*
X121299999Y-117207380D02*
X121252380Y-117255000D01*
X121252380Y-117255000D02*
X121157142Y-117302619D01*
X121157142Y-117302619D02*
X121061904Y-117302619D01*
X121061904Y-117302619D02*
X120966666Y-117255000D01*
X120966666Y-117255000D02*
X120919047Y-117207380D01*
X120919047Y-117207380D02*
X120871428Y-117112142D01*
X120871428Y-117112142D02*
X120823809Y-116921666D01*
X120823809Y-116921666D02*
X120823809Y-116683571D01*
X120823809Y-116683571D02*
X120871428Y-116493095D01*
X120871428Y-116493095D02*
X120919047Y-116397857D01*
X120919047Y-116397857D02*
X120966666Y-116350238D01*
X120966666Y-116350238D02*
X121061904Y-116302619D01*
X105497380Y-102062619D02*
X105164047Y-101586428D01*
X104925952Y-102062619D02*
X104925952Y-101062619D01*
X104925952Y-101062619D02*
X105306904Y-101062619D01*
X105306904Y-101062619D02*
X105402142Y-101110238D01*
X105402142Y-101110238D02*
X105449761Y-101157857D01*
X105449761Y-101157857D02*
X105497380Y-101253095D01*
X105497380Y-101253095D02*
X105497380Y-101395952D01*
X105497380Y-101395952D02*
X105449761Y-101491190D01*
X105449761Y-101491190D02*
X105402142Y-101538809D01*
X105402142Y-101538809D02*
X105306904Y-101586428D01*
X105306904Y-101586428D02*
X104925952Y-101586428D01*
X105783095Y-101062619D02*
X106354523Y-101062619D01*
X106068809Y-102062619D02*
X106068809Y-101062619D01*
X106640238Y-102015000D02*
X106783095Y-102062619D01*
X106783095Y-102062619D02*
X107021190Y-102062619D01*
X107021190Y-102062619D02*
X107116428Y-102015000D01*
X107116428Y-102015000D02*
X107164047Y-101967380D01*
X107164047Y-101967380D02*
X107211666Y-101872142D01*
X107211666Y-101872142D02*
X107211666Y-101776904D01*
X107211666Y-101776904D02*
X107164047Y-101681666D01*
X107164047Y-101681666D02*
X107116428Y-101634047D01*
X107116428Y-101634047D02*
X107021190Y-101586428D01*
X107021190Y-101586428D02*
X106830714Y-101538809D01*
X106830714Y-101538809D02*
X106735476Y-101491190D01*
X106735476Y-101491190D02*
X106687857Y-101443571D01*
X106687857Y-101443571D02*
X106640238Y-101348333D01*
X106640238Y-101348333D02*
X106640238Y-101253095D01*
X106640238Y-101253095D02*
X106687857Y-101157857D01*
X106687857Y-101157857D02*
X106735476Y-101110238D01*
X106735476Y-101110238D02*
X106830714Y-101062619D01*
X106830714Y-101062619D02*
X107068809Y-101062619D01*
X107068809Y-101062619D02*
X107211666Y-101110238D01*
X104787857Y-100615000D02*
X107302143Y-100615000D01*
X101824761Y-99522619D02*
X101824761Y-98522619D01*
X102253332Y-99522619D02*
X102253332Y-98998809D01*
X102253332Y-98998809D02*
X102205713Y-98903571D01*
X102205713Y-98903571D02*
X102110475Y-98855952D01*
X102110475Y-98855952D02*
X101967618Y-98855952D01*
X101967618Y-98855952D02*
X101872380Y-98903571D01*
X101872380Y-98903571D02*
X101824761Y-98951190D01*
X102586666Y-98855952D02*
X102967618Y-98855952D01*
X102729523Y-98522619D02*
X102729523Y-99379761D01*
X102729523Y-99379761D02*
X102777142Y-99475000D01*
X102777142Y-99475000D02*
X102872380Y-99522619D01*
X102872380Y-99522619D02*
X102967618Y-99522619D01*
X103158095Y-98855952D02*
X103539047Y-98855952D01*
X103300952Y-98522619D02*
X103300952Y-99379761D01*
X103300952Y-99379761D02*
X103348571Y-99475000D01*
X103348571Y-99475000D02*
X103443809Y-99522619D01*
X103443809Y-99522619D02*
X103539047Y-99522619D01*
X103872381Y-98855952D02*
X103872381Y-99855952D01*
X103872381Y-98903571D02*
X103967619Y-98855952D01*
X103967619Y-98855952D02*
X104158095Y-98855952D01*
X104158095Y-98855952D02*
X104253333Y-98903571D01*
X104253333Y-98903571D02*
X104300952Y-98951190D01*
X104300952Y-98951190D02*
X104348571Y-99046428D01*
X104348571Y-99046428D02*
X104348571Y-99332142D01*
X104348571Y-99332142D02*
X104300952Y-99427380D01*
X104300952Y-99427380D02*
X104253333Y-99475000D01*
X104253333Y-99475000D02*
X104158095Y-99522619D01*
X104158095Y-99522619D02*
X103967619Y-99522619D01*
X103967619Y-99522619D02*
X103872381Y-99475000D01*
X104729524Y-99475000D02*
X104824762Y-99522619D01*
X104824762Y-99522619D02*
X105015238Y-99522619D01*
X105015238Y-99522619D02*
X105110476Y-99475000D01*
X105110476Y-99475000D02*
X105158095Y-99379761D01*
X105158095Y-99379761D02*
X105158095Y-99332142D01*
X105158095Y-99332142D02*
X105110476Y-99236904D01*
X105110476Y-99236904D02*
X105015238Y-99189285D01*
X105015238Y-99189285D02*
X104872381Y-99189285D01*
X104872381Y-99189285D02*
X104777143Y-99141666D01*
X104777143Y-99141666D02*
X104729524Y-99046428D01*
X104729524Y-99046428D02*
X104729524Y-98998809D01*
X104729524Y-98998809D02*
X104777143Y-98903571D01*
X104777143Y-98903571D02*
X104872381Y-98855952D01*
X104872381Y-98855952D02*
X105015238Y-98855952D01*
X105015238Y-98855952D02*
X105110476Y-98903571D01*
X105586667Y-99427380D02*
X105634286Y-99475000D01*
X105634286Y-99475000D02*
X105586667Y-99522619D01*
X105586667Y-99522619D02*
X105539048Y-99475000D01*
X105539048Y-99475000D02*
X105586667Y-99427380D01*
X105586667Y-99427380D02*
X105586667Y-99522619D01*
X105586667Y-98903571D02*
X105634286Y-98951190D01*
X105634286Y-98951190D02*
X105586667Y-98998809D01*
X105586667Y-98998809D02*
X105539048Y-98951190D01*
X105539048Y-98951190D02*
X105586667Y-98903571D01*
X105586667Y-98903571D02*
X105586667Y-98998809D01*
X106777142Y-98475000D02*
X105920000Y-99760714D01*
X107824761Y-98475000D02*
X106967619Y-99760714D01*
X108586666Y-98855952D02*
X108586666Y-99665476D01*
X108586666Y-99665476D02*
X108539047Y-99760714D01*
X108539047Y-99760714D02*
X108491428Y-99808333D01*
X108491428Y-99808333D02*
X108396190Y-99855952D01*
X108396190Y-99855952D02*
X108253333Y-99855952D01*
X108253333Y-99855952D02*
X108158095Y-99808333D01*
X108586666Y-99475000D02*
X108491428Y-99522619D01*
X108491428Y-99522619D02*
X108300952Y-99522619D01*
X108300952Y-99522619D02*
X108205714Y-99475000D01*
X108205714Y-99475000D02*
X108158095Y-99427380D01*
X108158095Y-99427380D02*
X108110476Y-99332142D01*
X108110476Y-99332142D02*
X108110476Y-99046428D01*
X108110476Y-99046428D02*
X108158095Y-98951190D01*
X108158095Y-98951190D02*
X108205714Y-98903571D01*
X108205714Y-98903571D02*
X108300952Y-98855952D01*
X108300952Y-98855952D02*
X108491428Y-98855952D01*
X108491428Y-98855952D02*
X108586666Y-98903571D01*
X109062857Y-99522619D02*
X109062857Y-98855952D01*
X109062857Y-98522619D02*
X109015238Y-98570238D01*
X109015238Y-98570238D02*
X109062857Y-98617857D01*
X109062857Y-98617857D02*
X109110476Y-98570238D01*
X109110476Y-98570238D02*
X109062857Y-98522619D01*
X109062857Y-98522619D02*
X109062857Y-98617857D01*
X109396190Y-98855952D02*
X109777142Y-98855952D01*
X109539047Y-98522619D02*
X109539047Y-99379761D01*
X109539047Y-99379761D02*
X109586666Y-99475000D01*
X109586666Y-99475000D02*
X109681904Y-99522619D01*
X109681904Y-99522619D02*
X109777142Y-99522619D01*
X110110476Y-99522619D02*
X110110476Y-98522619D01*
X110539047Y-99522619D02*
X110539047Y-98998809D01*
X110539047Y-98998809D02*
X110491428Y-98903571D01*
X110491428Y-98903571D02*
X110396190Y-98855952D01*
X110396190Y-98855952D02*
X110253333Y-98855952D01*
X110253333Y-98855952D02*
X110158095Y-98903571D01*
X110158095Y-98903571D02*
X110110476Y-98951190D01*
X111443809Y-98855952D02*
X111443809Y-99522619D01*
X111015238Y-98855952D02*
X111015238Y-99379761D01*
X111015238Y-99379761D02*
X111062857Y-99475000D01*
X111062857Y-99475000D02*
X111158095Y-99522619D01*
X111158095Y-99522619D02*
X111300952Y-99522619D01*
X111300952Y-99522619D02*
X111396190Y-99475000D01*
X111396190Y-99475000D02*
X111443809Y-99427380D01*
X111920000Y-99522619D02*
X111920000Y-98522619D01*
X111920000Y-98903571D02*
X112015238Y-98855952D01*
X112015238Y-98855952D02*
X112205714Y-98855952D01*
X112205714Y-98855952D02*
X112300952Y-98903571D01*
X112300952Y-98903571D02*
X112348571Y-98951190D01*
X112348571Y-98951190D02*
X112396190Y-99046428D01*
X112396190Y-99046428D02*
X112396190Y-99332142D01*
X112396190Y-99332142D02*
X112348571Y-99427380D01*
X112348571Y-99427380D02*
X112300952Y-99475000D01*
X112300952Y-99475000D02*
X112205714Y-99522619D01*
X112205714Y-99522619D02*
X112015238Y-99522619D01*
X112015238Y-99522619D02*
X111920000Y-99475000D01*
X112824762Y-99427380D02*
X112872381Y-99475000D01*
X112872381Y-99475000D02*
X112824762Y-99522619D01*
X112824762Y-99522619D02*
X112777143Y-99475000D01*
X112777143Y-99475000D02*
X112824762Y-99427380D01*
X112824762Y-99427380D02*
X112824762Y-99522619D01*
X113729523Y-99475000D02*
X113634285Y-99522619D01*
X113634285Y-99522619D02*
X113443809Y-99522619D01*
X113443809Y-99522619D02*
X113348571Y-99475000D01*
X113348571Y-99475000D02*
X113300952Y-99427380D01*
X113300952Y-99427380D02*
X113253333Y-99332142D01*
X113253333Y-99332142D02*
X113253333Y-99046428D01*
X113253333Y-99046428D02*
X113300952Y-98951190D01*
X113300952Y-98951190D02*
X113348571Y-98903571D01*
X113348571Y-98903571D02*
X113443809Y-98855952D01*
X113443809Y-98855952D02*
X113634285Y-98855952D01*
X113634285Y-98855952D02*
X113729523Y-98903571D01*
X114300952Y-99522619D02*
X114205714Y-99475000D01*
X114205714Y-99475000D02*
X114158095Y-99427380D01*
X114158095Y-99427380D02*
X114110476Y-99332142D01*
X114110476Y-99332142D02*
X114110476Y-99046428D01*
X114110476Y-99046428D02*
X114158095Y-98951190D01*
X114158095Y-98951190D02*
X114205714Y-98903571D01*
X114205714Y-98903571D02*
X114300952Y-98855952D01*
X114300952Y-98855952D02*
X114443809Y-98855952D01*
X114443809Y-98855952D02*
X114539047Y-98903571D01*
X114539047Y-98903571D02*
X114586666Y-98951190D01*
X114586666Y-98951190D02*
X114634285Y-99046428D01*
X114634285Y-99046428D02*
X114634285Y-99332142D01*
X114634285Y-99332142D02*
X114586666Y-99427380D01*
X114586666Y-99427380D02*
X114539047Y-99475000D01*
X114539047Y-99475000D02*
X114443809Y-99522619D01*
X114443809Y-99522619D02*
X114300952Y-99522619D01*
X115062857Y-99522619D02*
X115062857Y-98855952D01*
X115062857Y-98951190D02*
X115110476Y-98903571D01*
X115110476Y-98903571D02*
X115205714Y-98855952D01*
X115205714Y-98855952D02*
X115348571Y-98855952D01*
X115348571Y-98855952D02*
X115443809Y-98903571D01*
X115443809Y-98903571D02*
X115491428Y-98998809D01*
X115491428Y-98998809D02*
X115491428Y-99522619D01*
X115491428Y-98998809D02*
X115539047Y-98903571D01*
X115539047Y-98903571D02*
X115634285Y-98855952D01*
X115634285Y-98855952D02*
X115777142Y-98855952D01*
X115777142Y-98855952D02*
X115872381Y-98903571D01*
X115872381Y-98903571D02*
X115920000Y-98998809D01*
X115920000Y-98998809D02*
X115920000Y-99522619D01*
X117110475Y-98475000D02*
X116253333Y-99760714D01*
X117872380Y-99522619D02*
X117872380Y-98998809D01*
X117872380Y-98998809D02*
X117824761Y-98903571D01*
X117824761Y-98903571D02*
X117729523Y-98855952D01*
X117729523Y-98855952D02*
X117539047Y-98855952D01*
X117539047Y-98855952D02*
X117443809Y-98903571D01*
X117872380Y-99475000D02*
X117777142Y-99522619D01*
X117777142Y-99522619D02*
X117539047Y-99522619D01*
X117539047Y-99522619D02*
X117443809Y-99475000D01*
X117443809Y-99475000D02*
X117396190Y-99379761D01*
X117396190Y-99379761D02*
X117396190Y-99284523D01*
X117396190Y-99284523D02*
X117443809Y-99189285D01*
X117443809Y-99189285D02*
X117539047Y-99141666D01*
X117539047Y-99141666D02*
X117777142Y-99141666D01*
X117777142Y-99141666D02*
X117872380Y-99094047D01*
X118205714Y-98855952D02*
X118586666Y-98855952D01*
X118348571Y-98522619D02*
X118348571Y-99379761D01*
X118348571Y-99379761D02*
X118396190Y-99475000D01*
X118396190Y-99475000D02*
X118491428Y-99522619D01*
X118491428Y-99522619D02*
X118586666Y-99522619D01*
X119062857Y-99522619D02*
X118967619Y-99475000D01*
X118967619Y-99475000D02*
X118920000Y-99427380D01*
X118920000Y-99427380D02*
X118872381Y-99332142D01*
X118872381Y-99332142D02*
X118872381Y-99046428D01*
X118872381Y-99046428D02*
X118920000Y-98951190D01*
X118920000Y-98951190D02*
X118967619Y-98903571D01*
X118967619Y-98903571D02*
X119062857Y-98855952D01*
X119062857Y-98855952D02*
X119205714Y-98855952D01*
X119205714Y-98855952D02*
X119300952Y-98903571D01*
X119300952Y-98903571D02*
X119348571Y-98951190D01*
X119348571Y-98951190D02*
X119396190Y-99046428D01*
X119396190Y-99046428D02*
X119396190Y-99332142D01*
X119396190Y-99332142D02*
X119348571Y-99427380D01*
X119348571Y-99427380D02*
X119300952Y-99475000D01*
X119300952Y-99475000D02*
X119205714Y-99522619D01*
X119205714Y-99522619D02*
X119062857Y-99522619D01*
X119967619Y-99522619D02*
X119872381Y-99475000D01*
X119872381Y-99475000D02*
X119824762Y-99427380D01*
X119824762Y-99427380D02*
X119777143Y-99332142D01*
X119777143Y-99332142D02*
X119777143Y-99046428D01*
X119777143Y-99046428D02*
X119824762Y-98951190D01*
X119824762Y-98951190D02*
X119872381Y-98903571D01*
X119872381Y-98903571D02*
X119967619Y-98855952D01*
X119967619Y-98855952D02*
X120110476Y-98855952D01*
X120110476Y-98855952D02*
X120205714Y-98903571D01*
X120205714Y-98903571D02*
X120253333Y-98951190D01*
X120253333Y-98951190D02*
X120300952Y-99046428D01*
X120300952Y-99046428D02*
X120300952Y-99332142D01*
X120300952Y-99332142D02*
X120253333Y-99427380D01*
X120253333Y-99427380D02*
X120205714Y-99475000D01*
X120205714Y-99475000D02*
X120110476Y-99522619D01*
X120110476Y-99522619D02*
X119967619Y-99522619D01*
X120729524Y-99522619D02*
X120729524Y-98855952D01*
X120729524Y-98951190D02*
X120777143Y-98903571D01*
X120777143Y-98903571D02*
X120872381Y-98855952D01*
X120872381Y-98855952D02*
X121015238Y-98855952D01*
X121015238Y-98855952D02*
X121110476Y-98903571D01*
X121110476Y-98903571D02*
X121158095Y-98998809D01*
X121158095Y-98998809D02*
X121158095Y-99522619D01*
X121158095Y-98998809D02*
X121205714Y-98903571D01*
X121205714Y-98903571D02*
X121300952Y-98855952D01*
X121300952Y-98855952D02*
X121443809Y-98855952D01*
X121443809Y-98855952D02*
X121539048Y-98903571D01*
X121539048Y-98903571D02*
X121586667Y-98998809D01*
X121586667Y-98998809D02*
X121586667Y-99522619D01*
X122062857Y-98855952D02*
X122062857Y-99522619D01*
X122062857Y-98951190D02*
X122110476Y-98903571D01*
X122110476Y-98903571D02*
X122205714Y-98855952D01*
X122205714Y-98855952D02*
X122348571Y-98855952D01*
X122348571Y-98855952D02*
X122443809Y-98903571D01*
X122443809Y-98903571D02*
X122491428Y-98998809D01*
X122491428Y-98998809D02*
X122491428Y-99522619D01*
X123348571Y-99475000D02*
X123253333Y-99522619D01*
X123253333Y-99522619D02*
X123062857Y-99522619D01*
X123062857Y-99522619D02*
X122967619Y-99475000D01*
X122967619Y-99475000D02*
X122920000Y-99379761D01*
X122920000Y-99379761D02*
X122920000Y-98998809D01*
X122920000Y-98998809D02*
X122967619Y-98903571D01*
X122967619Y-98903571D02*
X123062857Y-98855952D01*
X123062857Y-98855952D02*
X123253333Y-98855952D01*
X123253333Y-98855952D02*
X123348571Y-98903571D01*
X123348571Y-98903571D02*
X123396190Y-98998809D01*
X123396190Y-98998809D02*
X123396190Y-99094047D01*
X123396190Y-99094047D02*
X122920000Y-99189285D01*
X123681905Y-98855952D02*
X124062857Y-98855952D01*
X123824762Y-98522619D02*
X123824762Y-99379761D01*
X123824762Y-99379761D02*
X123872381Y-99475000D01*
X123872381Y-99475000D02*
X123967619Y-99522619D01*
X123967619Y-99522619D02*
X124062857Y-99522619D01*
X124396191Y-99522619D02*
X124396191Y-98855952D01*
X124396191Y-98951190D02*
X124443810Y-98903571D01*
X124443810Y-98903571D02*
X124539048Y-98855952D01*
X124539048Y-98855952D02*
X124681905Y-98855952D01*
X124681905Y-98855952D02*
X124777143Y-98903571D01*
X124777143Y-98903571D02*
X124824762Y-98998809D01*
X124824762Y-98998809D02*
X124824762Y-99522619D01*
X124824762Y-98998809D02*
X124872381Y-98903571D01*
X124872381Y-98903571D02*
X124967619Y-98855952D01*
X124967619Y-98855952D02*
X125110476Y-98855952D01*
X125110476Y-98855952D02*
X125205715Y-98903571D01*
X125205715Y-98903571D02*
X125253334Y-98998809D01*
X125253334Y-98998809D02*
X125253334Y-99522619D01*
X126158095Y-99522619D02*
X126158095Y-98998809D01*
X126158095Y-98998809D02*
X126110476Y-98903571D01*
X126110476Y-98903571D02*
X126015238Y-98855952D01*
X126015238Y-98855952D02*
X125824762Y-98855952D01*
X125824762Y-98855952D02*
X125729524Y-98903571D01*
X126158095Y-99475000D02*
X126062857Y-99522619D01*
X126062857Y-99522619D02*
X125824762Y-99522619D01*
X125824762Y-99522619D02*
X125729524Y-99475000D01*
X125729524Y-99475000D02*
X125681905Y-99379761D01*
X125681905Y-99379761D02*
X125681905Y-99284523D01*
X125681905Y-99284523D02*
X125729524Y-99189285D01*
X125729524Y-99189285D02*
X125824762Y-99141666D01*
X125824762Y-99141666D02*
X126062857Y-99141666D01*
X126062857Y-99141666D02*
X126158095Y-99094047D01*
X126634286Y-99522619D02*
X126634286Y-98855952D01*
X126634286Y-99046428D02*
X126681905Y-98951190D01*
X126681905Y-98951190D02*
X126729524Y-98903571D01*
X126729524Y-98903571D02*
X126824762Y-98855952D01*
X126824762Y-98855952D02*
X126920000Y-98855952D01*
X127681905Y-99475000D02*
X127586667Y-99522619D01*
X127586667Y-99522619D02*
X127396191Y-99522619D01*
X127396191Y-99522619D02*
X127300953Y-99475000D01*
X127300953Y-99475000D02*
X127253334Y-99427380D01*
X127253334Y-99427380D02*
X127205715Y-99332142D01*
X127205715Y-99332142D02*
X127205715Y-99046428D01*
X127205715Y-99046428D02*
X127253334Y-98951190D01*
X127253334Y-98951190D02*
X127300953Y-98903571D01*
X127300953Y-98903571D02*
X127396191Y-98855952D01*
X127396191Y-98855952D02*
X127586667Y-98855952D01*
X127586667Y-98855952D02*
X127681905Y-98903571D01*
X128824762Y-98475000D02*
X127967620Y-99760714D01*
X129158096Y-99522619D02*
X129158096Y-98522619D01*
X129158096Y-98522619D02*
X129539048Y-98522619D01*
X129539048Y-98522619D02*
X129634286Y-98570238D01*
X129634286Y-98570238D02*
X129681905Y-98617857D01*
X129681905Y-98617857D02*
X129729524Y-98713095D01*
X129729524Y-98713095D02*
X129729524Y-98855952D01*
X129729524Y-98855952D02*
X129681905Y-98951190D01*
X129681905Y-98951190D02*
X129634286Y-98998809D01*
X129634286Y-98998809D02*
X129539048Y-99046428D01*
X129539048Y-99046428D02*
X129158096Y-99046428D01*
X130158096Y-99522619D02*
X130158096Y-98522619D01*
X130158096Y-98522619D02*
X130491429Y-99236904D01*
X130491429Y-99236904D02*
X130824762Y-98522619D01*
X130824762Y-98522619D02*
X130824762Y-99522619D01*
X131491429Y-98522619D02*
X131681905Y-98522619D01*
X131681905Y-98522619D02*
X131777143Y-98570238D01*
X131777143Y-98570238D02*
X131872381Y-98665476D01*
X131872381Y-98665476D02*
X131920000Y-98855952D01*
X131920000Y-98855952D02*
X131920000Y-99189285D01*
X131920000Y-99189285D02*
X131872381Y-99379761D01*
X131872381Y-99379761D02*
X131777143Y-99475000D01*
X131777143Y-99475000D02*
X131681905Y-99522619D01*
X131681905Y-99522619D02*
X131491429Y-99522619D01*
X131491429Y-99522619D02*
X131396191Y-99475000D01*
X131396191Y-99475000D02*
X131300953Y-99379761D01*
X131300953Y-99379761D02*
X131253334Y-99189285D01*
X131253334Y-99189285D02*
X131253334Y-98855952D01*
X131253334Y-98855952D02*
X131300953Y-98665476D01*
X131300953Y-98665476D02*
X131396191Y-98570238D01*
X131396191Y-98570238D02*
X131491429Y-98522619D01*
X132348572Y-99522619D02*
X132348572Y-98522619D01*
X132348572Y-98522619D02*
X132586667Y-98522619D01*
X132586667Y-98522619D02*
X132729524Y-98570238D01*
X132729524Y-98570238D02*
X132824762Y-98665476D01*
X132824762Y-98665476D02*
X132872381Y-98760714D01*
X132872381Y-98760714D02*
X132920000Y-98951190D01*
X132920000Y-98951190D02*
X132920000Y-99094047D01*
X132920000Y-99094047D02*
X132872381Y-99284523D01*
X132872381Y-99284523D02*
X132824762Y-99379761D01*
X132824762Y-99379761D02*
X132729524Y-99475000D01*
X132729524Y-99475000D02*
X132586667Y-99522619D01*
X132586667Y-99522619D02*
X132348572Y-99522619D01*
X133348572Y-99141666D02*
X134110477Y-99141666D01*
X134586667Y-98522619D02*
X134586667Y-99332142D01*
X134586667Y-99332142D02*
X134634286Y-99427380D01*
X134634286Y-99427380D02*
X134681905Y-99475000D01*
X134681905Y-99475000D02*
X134777143Y-99522619D01*
X134777143Y-99522619D02*
X134967619Y-99522619D01*
X134967619Y-99522619D02*
X135062857Y-99475000D01*
X135062857Y-99475000D02*
X135110476Y-99427380D01*
X135110476Y-99427380D02*
X135158095Y-99332142D01*
X135158095Y-99332142D02*
X135158095Y-98522619D01*
X135586667Y-99475000D02*
X135729524Y-99522619D01*
X135729524Y-99522619D02*
X135967619Y-99522619D01*
X135967619Y-99522619D02*
X136062857Y-99475000D01*
X136062857Y-99475000D02*
X136110476Y-99427380D01*
X136110476Y-99427380D02*
X136158095Y-99332142D01*
X136158095Y-99332142D02*
X136158095Y-99236904D01*
X136158095Y-99236904D02*
X136110476Y-99141666D01*
X136110476Y-99141666D02*
X136062857Y-99094047D01*
X136062857Y-99094047D02*
X135967619Y-99046428D01*
X135967619Y-99046428D02*
X135777143Y-98998809D01*
X135777143Y-98998809D02*
X135681905Y-98951190D01*
X135681905Y-98951190D02*
X135634286Y-98903571D01*
X135634286Y-98903571D02*
X135586667Y-98808333D01*
X135586667Y-98808333D02*
X135586667Y-98713095D01*
X135586667Y-98713095D02*
X135634286Y-98617857D01*
X135634286Y-98617857D02*
X135681905Y-98570238D01*
X135681905Y-98570238D02*
X135777143Y-98522619D01*
X135777143Y-98522619D02*
X136015238Y-98522619D01*
X136015238Y-98522619D02*
X136158095Y-98570238D01*
X136920000Y-98998809D02*
X137062857Y-99046428D01*
X137062857Y-99046428D02*
X137110476Y-99094047D01*
X137110476Y-99094047D02*
X137158095Y-99189285D01*
X137158095Y-99189285D02*
X137158095Y-99332142D01*
X137158095Y-99332142D02*
X137110476Y-99427380D01*
X137110476Y-99427380D02*
X137062857Y-99475000D01*
X137062857Y-99475000D02*
X136967619Y-99522619D01*
X136967619Y-99522619D02*
X136586667Y-99522619D01*
X136586667Y-99522619D02*
X136586667Y-98522619D01*
X136586667Y-98522619D02*
X136920000Y-98522619D01*
X136920000Y-98522619D02*
X137015238Y-98570238D01*
X137015238Y-98570238D02*
X137062857Y-98617857D01*
X137062857Y-98617857D02*
X137110476Y-98713095D01*
X137110476Y-98713095D02*
X137110476Y-98808333D01*
X137110476Y-98808333D02*
X137062857Y-98903571D01*
X137062857Y-98903571D02*
X137015238Y-98951190D01*
X137015238Y-98951190D02*
X136920000Y-98998809D01*
X136920000Y-98998809D02*
X136586667Y-98998809D01*
X137586667Y-99141666D02*
X138348572Y-99141666D01*
X138824762Y-98522619D02*
X138824762Y-99332142D01*
X138824762Y-99332142D02*
X138872381Y-99427380D01*
X138872381Y-99427380D02*
X138920000Y-99475000D01*
X138920000Y-99475000D02*
X139015238Y-99522619D01*
X139015238Y-99522619D02*
X139205714Y-99522619D01*
X139205714Y-99522619D02*
X139300952Y-99475000D01*
X139300952Y-99475000D02*
X139348571Y-99427380D01*
X139348571Y-99427380D02*
X139396190Y-99332142D01*
X139396190Y-99332142D02*
X139396190Y-98522619D01*
X139824762Y-99236904D02*
X140300952Y-99236904D01*
X139729524Y-99522619D02*
X140062857Y-98522619D01*
X140062857Y-98522619D02*
X140396190Y-99522619D01*
X141300952Y-99522619D02*
X140967619Y-99046428D01*
X140729524Y-99522619D02*
X140729524Y-98522619D01*
X140729524Y-98522619D02*
X141110476Y-98522619D01*
X141110476Y-98522619D02*
X141205714Y-98570238D01*
X141205714Y-98570238D02*
X141253333Y-98617857D01*
X141253333Y-98617857D02*
X141300952Y-98713095D01*
X141300952Y-98713095D02*
X141300952Y-98855952D01*
X141300952Y-98855952D02*
X141253333Y-98951190D01*
X141253333Y-98951190D02*
X141205714Y-98998809D01*
X141205714Y-98998809D02*
X141110476Y-99046428D01*
X141110476Y-99046428D02*
X140729524Y-99046428D01*
X141586667Y-98522619D02*
X142158095Y-98522619D01*
X141872381Y-99522619D02*
X141872381Y-98522619D01*
X104711667Y-113762619D02*
X105045000Y-114762619D01*
X105045000Y-114762619D02*
X105378333Y-113762619D01*
X106283095Y-114667380D02*
X106235476Y-114715000D01*
X106235476Y-114715000D02*
X106092619Y-114762619D01*
X106092619Y-114762619D02*
X105997381Y-114762619D01*
X105997381Y-114762619D02*
X105854524Y-114715000D01*
X105854524Y-114715000D02*
X105759286Y-114619761D01*
X105759286Y-114619761D02*
X105711667Y-114524523D01*
X105711667Y-114524523D02*
X105664048Y-114334047D01*
X105664048Y-114334047D02*
X105664048Y-114191190D01*
X105664048Y-114191190D02*
X105711667Y-114000714D01*
X105711667Y-114000714D02*
X105759286Y-113905476D01*
X105759286Y-113905476D02*
X105854524Y-113810238D01*
X105854524Y-113810238D02*
X105997381Y-113762619D01*
X105997381Y-113762619D02*
X106092619Y-113762619D01*
X106092619Y-113762619D02*
X106235476Y-113810238D01*
X106235476Y-113810238D02*
X106283095Y-113857857D01*
X107283095Y-114667380D02*
X107235476Y-114715000D01*
X107235476Y-114715000D02*
X107092619Y-114762619D01*
X107092619Y-114762619D02*
X106997381Y-114762619D01*
X106997381Y-114762619D02*
X106854524Y-114715000D01*
X106854524Y-114715000D02*
X106759286Y-114619761D01*
X106759286Y-114619761D02*
X106711667Y-114524523D01*
X106711667Y-114524523D02*
X106664048Y-114334047D01*
X106664048Y-114334047D02*
X106664048Y-114191190D01*
X106664048Y-114191190D02*
X106711667Y-114000714D01*
X106711667Y-114000714D02*
X106759286Y-113905476D01*
X106759286Y-113905476D02*
X106854524Y-113810238D01*
X106854524Y-113810238D02*
X106997381Y-113762619D01*
X106997381Y-113762619D02*
X107092619Y-113762619D01*
X107092619Y-113762619D02*
X107235476Y-113810238D01*
X107235476Y-113810238D02*
X107283095Y-113857857D01*
X105497380Y-109587380D02*
X105449761Y-109635000D01*
X105449761Y-109635000D02*
X105306904Y-109682619D01*
X105306904Y-109682619D02*
X105211666Y-109682619D01*
X105211666Y-109682619D02*
X105068809Y-109635000D01*
X105068809Y-109635000D02*
X104973571Y-109539761D01*
X104973571Y-109539761D02*
X104925952Y-109444523D01*
X104925952Y-109444523D02*
X104878333Y-109254047D01*
X104878333Y-109254047D02*
X104878333Y-109111190D01*
X104878333Y-109111190D02*
X104925952Y-108920714D01*
X104925952Y-108920714D02*
X104973571Y-108825476D01*
X104973571Y-108825476D02*
X105068809Y-108730238D01*
X105068809Y-108730238D02*
X105211666Y-108682619D01*
X105211666Y-108682619D02*
X105306904Y-108682619D01*
X105306904Y-108682619D02*
X105449761Y-108730238D01*
X105449761Y-108730238D02*
X105497380Y-108777857D01*
X105783095Y-108682619D02*
X106354523Y-108682619D01*
X106068809Y-109682619D02*
X106068809Y-108682619D01*
X106640238Y-109635000D02*
X106783095Y-109682619D01*
X106783095Y-109682619D02*
X107021190Y-109682619D01*
X107021190Y-109682619D02*
X107116428Y-109635000D01*
X107116428Y-109635000D02*
X107164047Y-109587380D01*
X107164047Y-109587380D02*
X107211666Y-109492142D01*
X107211666Y-109492142D02*
X107211666Y-109396904D01*
X107211666Y-109396904D02*
X107164047Y-109301666D01*
X107164047Y-109301666D02*
X107116428Y-109254047D01*
X107116428Y-109254047D02*
X107021190Y-109206428D01*
X107021190Y-109206428D02*
X106830714Y-109158809D01*
X106830714Y-109158809D02*
X106735476Y-109111190D01*
X106735476Y-109111190D02*
X106687857Y-109063571D01*
X106687857Y-109063571D02*
X106640238Y-108968333D01*
X106640238Y-108968333D02*
X106640238Y-108873095D01*
X106640238Y-108873095D02*
X106687857Y-108777857D01*
X106687857Y-108777857D02*
X106735476Y-108730238D01*
X106735476Y-108730238D02*
X106830714Y-108682619D01*
X106830714Y-108682619D02*
X107068809Y-108682619D01*
X107068809Y-108682619D02*
X107211666Y-108730238D01*
X104787857Y-108235000D02*
X107302143Y-108235000D01*
X105283095Y-111270238D02*
X105187857Y-111222619D01*
X105187857Y-111222619D02*
X105045000Y-111222619D01*
X105045000Y-111222619D02*
X104902143Y-111270238D01*
X104902143Y-111270238D02*
X104806905Y-111365476D01*
X104806905Y-111365476D02*
X104759286Y-111460714D01*
X104759286Y-111460714D02*
X104711667Y-111651190D01*
X104711667Y-111651190D02*
X104711667Y-111794047D01*
X104711667Y-111794047D02*
X104759286Y-111984523D01*
X104759286Y-111984523D02*
X104806905Y-112079761D01*
X104806905Y-112079761D02*
X104902143Y-112175000D01*
X104902143Y-112175000D02*
X105045000Y-112222619D01*
X105045000Y-112222619D02*
X105140238Y-112222619D01*
X105140238Y-112222619D02*
X105283095Y-112175000D01*
X105283095Y-112175000D02*
X105330714Y-112127380D01*
X105330714Y-112127380D02*
X105330714Y-111794047D01*
X105330714Y-111794047D02*
X105140238Y-111794047D01*
X105759286Y-112222619D02*
X105759286Y-111222619D01*
X105759286Y-111222619D02*
X106330714Y-112222619D01*
X106330714Y-112222619D02*
X106330714Y-111222619D01*
X106806905Y-112222619D02*
X106806905Y-111222619D01*
X106806905Y-111222619D02*
X107045000Y-111222619D01*
X107045000Y-111222619D02*
X107187857Y-111270238D01*
X107187857Y-111270238D02*
X107283095Y-111365476D01*
X107283095Y-111365476D02*
X107330714Y-111460714D01*
X107330714Y-111460714D02*
X107378333Y-111651190D01*
X107378333Y-111651190D02*
X107378333Y-111794047D01*
X107378333Y-111794047D02*
X107330714Y-111984523D01*
X107330714Y-111984523D02*
X107283095Y-112079761D01*
X107283095Y-112079761D02*
X107187857Y-112175000D01*
X107187857Y-112175000D02*
X107045000Y-112222619D01*
X107045000Y-112222619D02*
X106806905Y-112222619D01*
X105378333Y-104602619D02*
X105045000Y-104126428D01*
X104806905Y-104602619D02*
X104806905Y-103602619D01*
X104806905Y-103602619D02*
X105187857Y-103602619D01*
X105187857Y-103602619D02*
X105283095Y-103650238D01*
X105283095Y-103650238D02*
X105330714Y-103697857D01*
X105330714Y-103697857D02*
X105378333Y-103793095D01*
X105378333Y-103793095D02*
X105378333Y-103935952D01*
X105378333Y-103935952D02*
X105330714Y-104031190D01*
X105330714Y-104031190D02*
X105283095Y-104078809D01*
X105283095Y-104078809D02*
X105187857Y-104126428D01*
X105187857Y-104126428D02*
X104806905Y-104126428D01*
X105711667Y-103602619D02*
X106378333Y-104602619D01*
X106378333Y-103602619D02*
X105711667Y-104602619D01*
X106759286Y-104602619D02*
X106759286Y-103602619D01*
X106759286Y-103602619D02*
X106997381Y-103602619D01*
X106997381Y-103602619D02*
X107140238Y-103650238D01*
X107140238Y-103650238D02*
X107235476Y-103745476D01*
X107235476Y-103745476D02*
X107283095Y-103840714D01*
X107283095Y-103840714D02*
X107330714Y-104031190D01*
X107330714Y-104031190D02*
X107330714Y-104174047D01*
X107330714Y-104174047D02*
X107283095Y-104364523D01*
X107283095Y-104364523D02*
X107235476Y-104459761D01*
X107235476Y-104459761D02*
X107140238Y-104555000D01*
X107140238Y-104555000D02*
X106997381Y-104602619D01*
X106997381Y-104602619D02*
X106759286Y-104602619D01*
X113498333Y-102062619D02*
X113165000Y-101586428D01*
X112926905Y-102062619D02*
X112926905Y-101062619D01*
X112926905Y-101062619D02*
X113307857Y-101062619D01*
X113307857Y-101062619D02*
X113403095Y-101110238D01*
X113403095Y-101110238D02*
X113450714Y-101157857D01*
X113450714Y-101157857D02*
X113498333Y-101253095D01*
X113498333Y-101253095D02*
X113498333Y-101395952D01*
X113498333Y-101395952D02*
X113450714Y-101491190D01*
X113450714Y-101491190D02*
X113403095Y-101538809D01*
X113403095Y-101538809D02*
X113307857Y-101586428D01*
X113307857Y-101586428D02*
X112926905Y-101586428D01*
X114355476Y-101395952D02*
X114355476Y-102062619D01*
X114117381Y-101015000D02*
X113879286Y-101729285D01*
X113879286Y-101729285D02*
X114498333Y-101729285D01*
X130048095Y-101062619D02*
X130048095Y-101872142D01*
X130048095Y-101872142D02*
X130095714Y-101967380D01*
X130095714Y-101967380D02*
X130143333Y-102015000D01*
X130143333Y-102015000D02*
X130238571Y-102062619D01*
X130238571Y-102062619D02*
X130429047Y-102062619D01*
X130429047Y-102062619D02*
X130524285Y-102015000D01*
X130524285Y-102015000D02*
X130571904Y-101967380D01*
X130571904Y-101967380D02*
X130619523Y-101872142D01*
X130619523Y-101872142D02*
X130619523Y-101062619D01*
X131619523Y-102062619D02*
X131048095Y-102062619D01*
X131333809Y-102062619D02*
X131333809Y-101062619D01*
X131333809Y-101062619D02*
X131238571Y-101205476D01*
X131238571Y-101205476D02*
X131143333Y-101300714D01*
X131143333Y-101300714D02*
X131048095Y-101348333D01*
X101266666Y-116302619D02*
X101266666Y-117016904D01*
X101266666Y-117016904D02*
X101219047Y-117159761D01*
X101219047Y-117159761D02*
X101123809Y-117255000D01*
X101123809Y-117255000D02*
X100980952Y-117302619D01*
X100980952Y-117302619D02*
X100885714Y-117302619D01*
X101695238Y-116397857D02*
X101742857Y-116350238D01*
X101742857Y-116350238D02*
X101838095Y-116302619D01*
X101838095Y-116302619D02*
X102076190Y-116302619D01*
X102076190Y-116302619D02*
X102171428Y-116350238D01*
X102171428Y-116350238D02*
X102219047Y-116397857D01*
X102219047Y-116397857D02*
X102266666Y-116493095D01*
X102266666Y-116493095D02*
X102266666Y-116588333D01*
X102266666Y-116588333D02*
X102219047Y-116731190D01*
X102219047Y-116731190D02*
X101647619Y-117302619D01*
X101647619Y-117302619D02*
X102266666Y-117302619D01*
X113498333Y-107142619D02*
X113165000Y-106666428D01*
X112926905Y-107142619D02*
X112926905Y-106142619D01*
X112926905Y-106142619D02*
X113307857Y-106142619D01*
X113307857Y-106142619D02*
X113403095Y-106190238D01*
X113403095Y-106190238D02*
X113450714Y-106237857D01*
X113450714Y-106237857D02*
X113498333Y-106333095D01*
X113498333Y-106333095D02*
X113498333Y-106475952D01*
X113498333Y-106475952D02*
X113450714Y-106571190D01*
X113450714Y-106571190D02*
X113403095Y-106618809D01*
X113403095Y-106618809D02*
X113307857Y-106666428D01*
X113307857Y-106666428D02*
X112926905Y-106666428D01*
X113879286Y-106237857D02*
X113926905Y-106190238D01*
X113926905Y-106190238D02*
X114022143Y-106142619D01*
X114022143Y-106142619D02*
X114260238Y-106142619D01*
X114260238Y-106142619D02*
X114355476Y-106190238D01*
X114355476Y-106190238D02*
X114403095Y-106237857D01*
X114403095Y-106237857D02*
X114450714Y-106333095D01*
X114450714Y-106333095D02*
X114450714Y-106428333D01*
X114450714Y-106428333D02*
X114403095Y-106571190D01*
X114403095Y-106571190D02*
X113831667Y-107142619D01*
X113831667Y-107142619D02*
X114450714Y-107142619D01*
X119276905Y-107142619D02*
X119276905Y-106142619D01*
X119276905Y-106142619D02*
X119515000Y-106142619D01*
X119515000Y-106142619D02*
X119657857Y-106190238D01*
X119657857Y-106190238D02*
X119753095Y-106285476D01*
X119753095Y-106285476D02*
X119800714Y-106380714D01*
X119800714Y-106380714D02*
X119848333Y-106571190D01*
X119848333Y-106571190D02*
X119848333Y-106714047D01*
X119848333Y-106714047D02*
X119800714Y-106904523D01*
X119800714Y-106904523D02*
X119753095Y-106999761D01*
X119753095Y-106999761D02*
X119657857Y-107095000D01*
X119657857Y-107095000D02*
X119515000Y-107142619D01*
X119515000Y-107142619D02*
X119276905Y-107142619D01*
X120800714Y-107142619D02*
X120229286Y-107142619D01*
X120515000Y-107142619D02*
X120515000Y-106142619D01*
X120515000Y-106142619D02*
X120419762Y-106285476D01*
X120419762Y-106285476D02*
X120324524Y-106380714D01*
X120324524Y-106380714D02*
X120229286Y-106428333D01*
X119276905Y-104602619D02*
X119276905Y-103602619D01*
X119276905Y-103602619D02*
X119515000Y-103602619D01*
X119515000Y-103602619D02*
X119657857Y-103650238D01*
X119657857Y-103650238D02*
X119753095Y-103745476D01*
X119753095Y-103745476D02*
X119800714Y-103840714D01*
X119800714Y-103840714D02*
X119848333Y-104031190D01*
X119848333Y-104031190D02*
X119848333Y-104174047D01*
X119848333Y-104174047D02*
X119800714Y-104364523D01*
X119800714Y-104364523D02*
X119753095Y-104459761D01*
X119753095Y-104459761D02*
X119657857Y-104555000D01*
X119657857Y-104555000D02*
X119515000Y-104602619D01*
X119515000Y-104602619D02*
X119276905Y-104602619D01*
X120229286Y-103697857D02*
X120276905Y-103650238D01*
X120276905Y-103650238D02*
X120372143Y-103602619D01*
X120372143Y-103602619D02*
X120610238Y-103602619D01*
X120610238Y-103602619D02*
X120705476Y-103650238D01*
X120705476Y-103650238D02*
X120753095Y-103697857D01*
X120753095Y-103697857D02*
X120800714Y-103793095D01*
X120800714Y-103793095D02*
X120800714Y-103888333D01*
X120800714Y-103888333D02*
X120753095Y-104031190D01*
X120753095Y-104031190D02*
X120181667Y-104602619D01*
X120181667Y-104602619D02*
X120800714Y-104602619D01*
X125944333Y-115937380D02*
X125896714Y-115985000D01*
X125896714Y-115985000D02*
X125753857Y-116032619D01*
X125753857Y-116032619D02*
X125658619Y-116032619D01*
X125658619Y-116032619D02*
X125515762Y-115985000D01*
X125515762Y-115985000D02*
X125420524Y-115889761D01*
X125420524Y-115889761D02*
X125372905Y-115794523D01*
X125372905Y-115794523D02*
X125325286Y-115604047D01*
X125325286Y-115604047D02*
X125325286Y-115461190D01*
X125325286Y-115461190D02*
X125372905Y-115270714D01*
X125372905Y-115270714D02*
X125420524Y-115175476D01*
X125420524Y-115175476D02*
X125515762Y-115080238D01*
X125515762Y-115080238D02*
X125658619Y-115032619D01*
X125658619Y-115032619D02*
X125753857Y-115032619D01*
X125753857Y-115032619D02*
X125896714Y-115080238D01*
X125896714Y-115080238D02*
X125944333Y-115127857D01*
X126325286Y-115127857D02*
X126372905Y-115080238D01*
X126372905Y-115080238D02*
X126468143Y-115032619D01*
X126468143Y-115032619D02*
X126706238Y-115032619D01*
X126706238Y-115032619D02*
X126801476Y-115080238D01*
X126801476Y-115080238D02*
X126849095Y-115127857D01*
X126849095Y-115127857D02*
X126896714Y-115223095D01*
X126896714Y-115223095D02*
X126896714Y-115318333D01*
X126896714Y-115318333D02*
X126849095Y-115461190D01*
X126849095Y-115461190D02*
X126277667Y-116032619D01*
X126277667Y-116032619D02*
X126896714Y-116032619D01*
X146126666Y-98372619D02*
X146126666Y-99086904D01*
X146126666Y-99086904D02*
X146079047Y-99229761D01*
X146079047Y-99229761D02*
X145983809Y-99325000D01*
X145983809Y-99325000D02*
X145840952Y-99372619D01*
X145840952Y-99372619D02*
X145745714Y-99372619D01*
X147126666Y-99372619D02*
X146555238Y-99372619D01*
X146840952Y-99372619D02*
X146840952Y-98372619D01*
X146840952Y-98372619D02*
X146745714Y-98515476D01*
X146745714Y-98515476D02*
X146650476Y-98610714D01*
X146650476Y-98610714D02*
X146555238Y-98658333D01*
X119848333Y-109682619D02*
X119515000Y-109206428D01*
X119276905Y-109682619D02*
X119276905Y-108682619D01*
X119276905Y-108682619D02*
X119657857Y-108682619D01*
X119657857Y-108682619D02*
X119753095Y-108730238D01*
X119753095Y-108730238D02*
X119800714Y-108777857D01*
X119800714Y-108777857D02*
X119848333Y-108873095D01*
X119848333Y-108873095D02*
X119848333Y-109015952D01*
X119848333Y-109015952D02*
X119800714Y-109111190D01*
X119800714Y-109111190D02*
X119753095Y-109158809D01*
X119753095Y-109158809D02*
X119657857Y-109206428D01*
X119657857Y-109206428D02*
X119276905Y-109206428D01*
X120800714Y-109682619D02*
X120229286Y-109682619D01*
X120515000Y-109682619D02*
X120515000Y-108682619D01*
X120515000Y-108682619D02*
X120419762Y-108825476D01*
X120419762Y-108825476D02*
X120324524Y-108920714D01*
X120324524Y-108920714D02*
X120229286Y-108968333D01*
X122757619Y-110023333D02*
X123471904Y-110023333D01*
X123471904Y-110023333D02*
X123614761Y-110070952D01*
X123614761Y-110070952D02*
X123710000Y-110166190D01*
X123710000Y-110166190D02*
X123757619Y-110309047D01*
X123757619Y-110309047D02*
X123757619Y-110404285D01*
X123757619Y-109547142D02*
X122757619Y-109547142D01*
X122757619Y-109547142D02*
X122757619Y-109166190D01*
X122757619Y-109166190D02*
X122805238Y-109070952D01*
X122805238Y-109070952D02*
X122852857Y-109023333D01*
X122852857Y-109023333D02*
X122948095Y-108975714D01*
X122948095Y-108975714D02*
X123090952Y-108975714D01*
X123090952Y-108975714D02*
X123186190Y-109023333D01*
X123186190Y-109023333D02*
X123233809Y-109070952D01*
X123233809Y-109070952D02*
X123281428Y-109166190D01*
X123281428Y-109166190D02*
X123281428Y-109547142D01*
X123757619Y-108023333D02*
X123757619Y-108594761D01*
X123757619Y-108309047D02*
X122757619Y-108309047D01*
X122757619Y-108309047D02*
X122900476Y-108404285D01*
X122900476Y-108404285D02*
X122995714Y-108499523D01*
X122995714Y-108499523D02*
X123043333Y-108594761D01*
X124557619Y-106923332D02*
X124557619Y-106304285D01*
X124557619Y-106304285D02*
X124938571Y-106637618D01*
X124938571Y-106637618D02*
X124938571Y-106494761D01*
X124938571Y-106494761D02*
X124986190Y-106399523D01*
X124986190Y-106399523D02*
X125033809Y-106351904D01*
X125033809Y-106351904D02*
X125129047Y-106304285D01*
X125129047Y-106304285D02*
X125367142Y-106304285D01*
X125367142Y-106304285D02*
X125462380Y-106351904D01*
X125462380Y-106351904D02*
X125510000Y-106399523D01*
X125510000Y-106399523D02*
X125557619Y-106494761D01*
X125557619Y-106494761D02*
X125557619Y-106780475D01*
X125557619Y-106780475D02*
X125510000Y-106875713D01*
X125510000Y-106875713D02*
X125462380Y-106923332D01*
X125557619Y-111504285D02*
X125557619Y-112075713D01*
X125557619Y-111789999D02*
X124557619Y-111789999D01*
X124557619Y-111789999D02*
X124700476Y-111885237D01*
X124700476Y-111885237D02*
X124795714Y-111980475D01*
X124795714Y-111980475D02*
X124843333Y-112075713D01*
X113498333Y-104602619D02*
X113165000Y-104126428D01*
X112926905Y-104602619D02*
X112926905Y-103602619D01*
X112926905Y-103602619D02*
X113307857Y-103602619D01*
X113307857Y-103602619D02*
X113403095Y-103650238D01*
X113403095Y-103650238D02*
X113450714Y-103697857D01*
X113450714Y-103697857D02*
X113498333Y-103793095D01*
X113498333Y-103793095D02*
X113498333Y-103935952D01*
X113498333Y-103935952D02*
X113450714Y-104031190D01*
X113450714Y-104031190D02*
X113403095Y-104078809D01*
X113403095Y-104078809D02*
X113307857Y-104126428D01*
X113307857Y-104126428D02*
X112926905Y-104126428D01*
X113831667Y-103602619D02*
X114450714Y-103602619D01*
X114450714Y-103602619D02*
X114117381Y-103983571D01*
X114117381Y-103983571D02*
X114260238Y-103983571D01*
X114260238Y-103983571D02*
X114355476Y-104031190D01*
X114355476Y-104031190D02*
X114403095Y-104078809D01*
X114403095Y-104078809D02*
X114450714Y-104174047D01*
X114450714Y-104174047D02*
X114450714Y-104412142D01*
X114450714Y-104412142D02*
X114403095Y-104507380D01*
X114403095Y-104507380D02*
X114355476Y-104555000D01*
X114355476Y-104555000D02*
X114260238Y-104602619D01*
X114260238Y-104602619D02*
X113974524Y-104602619D01*
X113974524Y-104602619D02*
X113879286Y-104555000D01*
X113879286Y-104555000D02*
X113831667Y-104507380D01*
X119848333Y-102062619D02*
X119515000Y-101586428D01*
X119276905Y-102062619D02*
X119276905Y-101062619D01*
X119276905Y-101062619D02*
X119657857Y-101062619D01*
X119657857Y-101062619D02*
X119753095Y-101110238D01*
X119753095Y-101110238D02*
X119800714Y-101157857D01*
X119800714Y-101157857D02*
X119848333Y-101253095D01*
X119848333Y-101253095D02*
X119848333Y-101395952D01*
X119848333Y-101395952D02*
X119800714Y-101491190D01*
X119800714Y-101491190D02*
X119753095Y-101538809D01*
X119753095Y-101538809D02*
X119657857Y-101586428D01*
X119657857Y-101586428D02*
X119276905Y-101586428D01*
X120753095Y-101062619D02*
X120276905Y-101062619D01*
X120276905Y-101062619D02*
X120229286Y-101538809D01*
X120229286Y-101538809D02*
X120276905Y-101491190D01*
X120276905Y-101491190D02*
X120372143Y-101443571D01*
X120372143Y-101443571D02*
X120610238Y-101443571D01*
X120610238Y-101443571D02*
X120705476Y-101491190D01*
X120705476Y-101491190D02*
X120753095Y-101538809D01*
X120753095Y-101538809D02*
X120800714Y-101634047D01*
X120800714Y-101634047D02*
X120800714Y-101872142D01*
X120800714Y-101872142D02*
X120753095Y-101967380D01*
X120753095Y-101967380D02*
X120705476Y-102015000D01*
X120705476Y-102015000D02*
X120610238Y-102062619D01*
X120610238Y-102062619D02*
X120372143Y-102062619D01*
X120372143Y-102062619D02*
X120276905Y-102015000D01*
X120276905Y-102015000D02*
X120229286Y-101967380D01*
X136257380Y-107862666D02*
X136305000Y-107910285D01*
X136305000Y-107910285D02*
X136352619Y-108053142D01*
X136352619Y-108053142D02*
X136352619Y-108148380D01*
X136352619Y-108148380D02*
X136305000Y-108291237D01*
X136305000Y-108291237D02*
X136209761Y-108386475D01*
X136209761Y-108386475D02*
X136114523Y-108434094D01*
X136114523Y-108434094D02*
X135924047Y-108481713D01*
X135924047Y-108481713D02*
X135781190Y-108481713D01*
X135781190Y-108481713D02*
X135590714Y-108434094D01*
X135590714Y-108434094D02*
X135495476Y-108386475D01*
X135495476Y-108386475D02*
X135400238Y-108291237D01*
X135400238Y-108291237D02*
X135352619Y-108148380D01*
X135352619Y-108148380D02*
X135352619Y-108053142D01*
X135352619Y-108053142D02*
X135400238Y-107910285D01*
X135400238Y-107910285D02*
X135447857Y-107862666D01*
X136352619Y-106910285D02*
X136352619Y-107481713D01*
X136352619Y-107195999D02*
X135352619Y-107195999D01*
X135352619Y-107195999D02*
X135495476Y-107291237D01*
X135495476Y-107291237D02*
X135590714Y-107386475D01*
X135590714Y-107386475D02*
X135638333Y-107481713D01*
X113498333Y-109682619D02*
X113165000Y-109206428D01*
X112926905Y-109682619D02*
X112926905Y-108682619D01*
X112926905Y-108682619D02*
X113307857Y-108682619D01*
X113307857Y-108682619D02*
X113403095Y-108730238D01*
X113403095Y-108730238D02*
X113450714Y-108777857D01*
X113450714Y-108777857D02*
X113498333Y-108873095D01*
X113498333Y-108873095D02*
X113498333Y-109015952D01*
X113498333Y-109015952D02*
X113450714Y-109111190D01*
X113450714Y-109111190D02*
X113403095Y-109158809D01*
X113403095Y-109158809D02*
X113307857Y-109206428D01*
X113307857Y-109206428D02*
X112926905Y-109206428D01*
X114355476Y-108682619D02*
X114165000Y-108682619D01*
X114165000Y-108682619D02*
X114069762Y-108730238D01*
X114069762Y-108730238D02*
X114022143Y-108777857D01*
X114022143Y-108777857D02*
X113926905Y-108920714D01*
X113926905Y-108920714D02*
X113879286Y-109111190D01*
X113879286Y-109111190D02*
X113879286Y-109492142D01*
X113879286Y-109492142D02*
X113926905Y-109587380D01*
X113926905Y-109587380D02*
X113974524Y-109635000D01*
X113974524Y-109635000D02*
X114069762Y-109682619D01*
X114069762Y-109682619D02*
X114260238Y-109682619D01*
X114260238Y-109682619D02*
X114355476Y-109635000D01*
X114355476Y-109635000D02*
X114403095Y-109587380D01*
X114403095Y-109587380D02*
X114450714Y-109492142D01*
X114450714Y-109492142D02*
X114450714Y-109254047D01*
X114450714Y-109254047D02*
X114403095Y-109158809D01*
X114403095Y-109158809D02*
X114355476Y-109111190D01*
X114355476Y-109111190D02*
X114260238Y-109063571D01*
X114260238Y-109063571D02*
X114069762Y-109063571D01*
X114069762Y-109063571D02*
X113974524Y-109111190D01*
X113974524Y-109111190D02*
X113926905Y-109158809D01*
X113926905Y-109158809D02*
X113879286Y-109254047D01*
X135352619Y-116403333D02*
X136066904Y-116403333D01*
X136066904Y-116403333D02*
X136209761Y-116450952D01*
X136209761Y-116450952D02*
X136305000Y-116546190D01*
X136305000Y-116546190D02*
X136352619Y-116689047D01*
X136352619Y-116689047D02*
X136352619Y-116784285D01*
X136352619Y-115927142D02*
X135352619Y-115927142D01*
X135352619Y-115927142D02*
X135352619Y-115546190D01*
X135352619Y-115546190D02*
X135400238Y-115450952D01*
X135400238Y-115450952D02*
X135447857Y-115403333D01*
X135447857Y-115403333D02*
X135543095Y-115355714D01*
X135543095Y-115355714D02*
X135685952Y-115355714D01*
X135685952Y-115355714D02*
X135781190Y-115403333D01*
X135781190Y-115403333D02*
X135828809Y-115450952D01*
X135828809Y-115450952D02*
X135876428Y-115546190D01*
X135876428Y-115546190D02*
X135876428Y-115927142D01*
X135447857Y-114974761D02*
X135400238Y-114927142D01*
X135400238Y-114927142D02*
X135352619Y-114831904D01*
X135352619Y-114831904D02*
X135352619Y-114593809D01*
X135352619Y-114593809D02*
X135400238Y-114498571D01*
X135400238Y-114498571D02*
X135447857Y-114450952D01*
X135447857Y-114450952D02*
X135543095Y-114403333D01*
X135543095Y-114403333D02*
X135638333Y-114403333D01*
X135638333Y-114403333D02*
X135781190Y-114450952D01*
X135781190Y-114450952D02*
X136352619Y-115022380D01*
X136352619Y-115022380D02*
X136352619Y-114403333D01*
D11*
X110717064Y-102335000D02*
X110262936Y-102335000D01*
X110717064Y-100865000D02*
X110262936Y-100865000D01*
X130810000Y-113010000D02*
X134260000Y-113010000D01*
X130810000Y-113010000D02*
X128860000Y-113010000D01*
X130810000Y-102890000D02*
X132760000Y-102890000D01*
X130810000Y-102890000D02*
X128860000Y-102890000D01*
X91500000Y-101220000D02*
X91500000Y-101980000D01*
X91500000Y-101980000D02*
X97500000Y-101980000D01*
X91500000Y-103760000D02*
X91500000Y-104520000D01*
X91500000Y-104520000D02*
X97500000Y-104520000D01*
X91500000Y-106300000D02*
X91500000Y-107060000D01*
X91500000Y-107060000D02*
X97500000Y-107060000D01*
X91500000Y-108840000D02*
X91500000Y-109600000D01*
X91500000Y-109600000D02*
X97500000Y-109600000D01*
X91500000Y-111380000D02*
X91500000Y-112140000D01*
X91500000Y-112140000D02*
X97500000Y-112140000D01*
X91500000Y-113920000D02*
X91500000Y-114680000D01*
X91500000Y-114680000D02*
X97500000Y-114680000D01*
X97500000Y-100270000D02*
X100160000Y-100270000D01*
X97500000Y-101220000D02*
X91500000Y-101220000D01*
X97500000Y-101280000D02*
X91500000Y-101280000D01*
X97500000Y-101400000D02*
X91500000Y-101400000D01*
X97500000Y-101520000D02*
X91500000Y-101520000D01*
X97500000Y-101640000D02*
X91500000Y-101640000D01*
X97500000Y-101760000D02*
X91500000Y-101760000D01*
X97500000Y-101880000D02*
X91500000Y-101880000D01*
X97500000Y-103760000D02*
X91500000Y-103760000D01*
X97500000Y-106300000D02*
X91500000Y-106300000D01*
X97500000Y-108840000D02*
X91500000Y-108840000D01*
X97500000Y-111380000D02*
X91500000Y-111380000D01*
X97500000Y-113920000D02*
X91500000Y-113920000D01*
X97500000Y-115630000D02*
X97500000Y-100270000D01*
X100160000Y-100270000D02*
X100160000Y-115630000D01*
X100160000Y-102870000D02*
X97500000Y-102870000D01*
X100160000Y-105410000D02*
X97500000Y-105410000D01*
X100160000Y-107950000D02*
X97500000Y-107950000D01*
X100160000Y-110490000D02*
X97500000Y-110490000D01*
X100160000Y-113030000D02*
X97500000Y-113030000D01*
X100160000Y-115630000D02*
X97500000Y-115630000D01*
X100490000Y-101220000D02*
X100160000Y-101220000D01*
X100490000Y-101980000D02*
X100160000Y-101980000D01*
X100557071Y-103760000D02*
X100160000Y-103760000D01*
X100557071Y-104520000D02*
X100160000Y-104520000D01*
X100557071Y-106300000D02*
X100160000Y-106300000D01*
X100557071Y-107060000D02*
X100160000Y-107060000D01*
X100557071Y-108840000D02*
X100160000Y-108840000D01*
X100557071Y-109600000D02*
X100160000Y-109600000D01*
X100557071Y-111380000D02*
X100160000Y-111380000D01*
X100557071Y-112140000D02*
X100160000Y-112140000D01*
X100557071Y-113920000D02*
X100160000Y-113920000D01*
X100557071Y-114680000D02*
X100160000Y-114680000D01*
X102870000Y-100330000D02*
X101600000Y-100330000D01*
X102870000Y-101600000D02*
X102870000Y-100330000D01*
X110717064Y-107415000D02*
X110262936Y-107415000D01*
X110717064Y-105945000D02*
X110262936Y-105945000D01*
X114980000Y-105720000D02*
X114980000Y-107640000D01*
X114980000Y-107640000D02*
X117840000Y-107640000D01*
X117840000Y-105720000D02*
X114980000Y-105720000D01*
X114980000Y-103180000D02*
X114980000Y-105100000D01*
X114980000Y-105100000D02*
X117840000Y-105100000D01*
X117840000Y-103180000D02*
X114980000Y-103180000D01*
X129166252Y-116305000D02*
X128643748Y-116305000D01*
X129166252Y-114835000D02*
X128643748Y-114835000D01*
X137380000Y-106180000D02*
X137380000Y-107180000D01*
X137380000Y-107180000D02*
X137880000Y-106680000D01*
X137880000Y-106680000D02*
X137380000Y-106180000D01*
X138100000Y-101770000D02*
X138100000Y-114090000D01*
X138100000Y-114090000D02*
X142360000Y-114090000D01*
X142360000Y-101770000D02*
X138100000Y-101770000D01*
X146460000Y-101770000D02*
X154820000Y-101770000D01*
X154820000Y-101770000D02*
X154820000Y-114090000D01*
X154820000Y-114090000D02*
X146460000Y-114090000D01*
X116612936Y-108485000D02*
X117067064Y-108485000D01*
X116612936Y-109955000D02*
X117067064Y-109955000D01*
X125395000Y-111240000D02*
X124795000Y-111240000D01*
X124095000Y-110590000D02*
X124095000Y-107790000D01*
X126095000Y-107790000D02*
X126095000Y-110590000D01*
X124795000Y-107140000D02*
X125395000Y-107140000D01*
X124095000Y-110540000D02*
G75*
G03*
X124795000Y-111240000I699999J-1D01*
G01*
X125395000Y-111240000D02*
G75*
G03*
X126095000Y-110540000I1J699999D01*
G01*
X124795000Y-107140000D02*
G75*
G03*
X124095000Y-107840000I0J-700000D01*
G01*
X126095000Y-107840000D02*
G75*
G03*
X125395000Y-107140000I-700000J0D01*
G01*
X110717064Y-104875000D02*
X110262936Y-104875000D01*
X110717064Y-103405000D02*
X110262936Y-103405000D01*
X117067064Y-102335000D02*
X116612936Y-102335000D01*
X117067064Y-100865000D02*
X116612936Y-100865000D01*
X136625000Y-110228748D02*
X136625000Y-110751252D01*
X135155000Y-110228748D02*
X135155000Y-110751252D01*
X110717064Y-109955000D02*
X110262936Y-109955000D01*
X110717064Y-108485000D02*
X110262936Y-108485000D01*
X134750000Y-115270000D02*
X134750000Y-115870000D01*
X134050000Y-116570000D02*
X132650000Y-116570000D01*
X132650000Y-114570000D02*
X134050000Y-114570000D01*
X131950000Y-115870000D02*
X131950000Y-115270000D01*
X134050000Y-116570000D02*
G75*
G03*
X134750000Y-115870000I1J699999D01*
G01*
X134750000Y-115270000D02*
G75*
G03*
X134050000Y-114570000I-699999J1D01*
G01*
X131950000Y-115870000D02*
G75*
G03*
X132650000Y-116570000I700000J0D01*
G01*
X132650000Y-114570000D02*
G75*
G03*
X131950000Y-115270000I0J-700000D01*
G01*
%LPC*%
D12*
X111490000Y-101600000D03*
X109490000Y-101600000D03*
D13*
X133285000Y-112395000D03*
X133285000Y-111125000D03*
X133285000Y-109855000D03*
X133285000Y-108585000D03*
X133285000Y-107315000D03*
X133285000Y-106045000D03*
X133285000Y-104775000D03*
X133285000Y-103505000D03*
X128335000Y-103505000D03*
X128335000Y-104775000D03*
X128335000Y-106045000D03*
X128335000Y-107315000D03*
X128335000Y-108585000D03*
X128335000Y-109855000D03*
X128335000Y-111125000D03*
X128335000Y-112395000D03*
D14*
X101600000Y-101600000D03*
D15*
X101600000Y-104140000D03*
X101600000Y-106680000D03*
X101600000Y-109220000D03*
X101600000Y-111760000D03*
X101600000Y-114300000D03*
D12*
X111490000Y-106680000D03*
X109490000Y-106680000D03*
D16*
X115815000Y-106680000D03*
X117865000Y-106680000D03*
X115815000Y-104140000D03*
X117865000Y-104140000D03*
D17*
X129942500Y-115570000D03*
X127867500Y-115570000D03*
D14*
X139700000Y-106680000D03*
D18*
X139700000Y-109180000D03*
X141700000Y-109180000D03*
X141700000Y-106680000D03*
D19*
X144410000Y-101910000D03*
X144410000Y-113950000D03*
D20*
X115840000Y-109220000D03*
X117840000Y-109220000D03*
D21*
X125095000Y-110490000D03*
D22*
X125095000Y-109190000D03*
D23*
X125095000Y-107890000D03*
D12*
X111490000Y-104140000D03*
X109490000Y-104140000D03*
X117840000Y-101600000D03*
X115840000Y-101600000D03*
D24*
X135890000Y-109452500D03*
X135890000Y-111527500D03*
D12*
X111490000Y-109220000D03*
X109490000Y-109220000D03*
D25*
X134000000Y-115570000D03*
D26*
X132700000Y-115570000D03*
M02*
