%TF.GenerationSoftware,KiCad,Pcbnew,7.0.1*%
%TF.CreationDate,2023-04-01T18:18:23+02:00*%
%TF.ProjectId,PMOD USB UART,504d4f44-2055-4534-9220-554152542e6b,V1.0*%
%TF.SameCoordinates,Original*%
%TF.FileFunction,Drillmap*%
%TF.FilePolarity,Positive*%
%FSLAX45Y45*%
G04 Gerber Fmt 4.5, Leading zero omitted, Abs format (unit mm)*
G04 Created by KiCad (PCBNEW 7.0.1) date 2023-04-01 18:18:23*
%MOMM*%
%LPD*%
G01*
G04 APERTURE LIST*
%ADD10C,0.100000*%
%ADD11C,0.200000*%
G04 APERTURE END LIST*
D10*
X14732000Y-11811000D02*
X14732000Y-9779000D01*
X14732000Y-9779000D02*
X9779000Y-9779000D01*
X9779000Y-9779000D02*
X9779000Y-11811000D01*
X9779000Y-11811000D02*
X14732000Y-11811000D01*
D11*
X10021619Y-12128524D02*
X10021619Y-11928524D01*
X10021619Y-11928524D02*
X10069238Y-11928524D01*
X10069238Y-11928524D02*
X10097810Y-11938048D01*
X10097810Y-11938048D02*
X10116857Y-11957095D01*
X10116857Y-11957095D02*
X10126381Y-11976143D01*
X10126381Y-11976143D02*
X10135905Y-12014238D01*
X10135905Y-12014238D02*
X10135905Y-12042809D01*
X10135905Y-12042809D02*
X10126381Y-12080905D01*
X10126381Y-12080905D02*
X10116857Y-12099952D01*
X10116857Y-12099952D02*
X10097810Y-12119000D01*
X10097810Y-12119000D02*
X10069238Y-12128524D01*
X10069238Y-12128524D02*
X10021619Y-12128524D01*
X10221619Y-12128524D02*
X10221619Y-11995190D01*
X10221619Y-12033286D02*
X10231143Y-12014238D01*
X10231143Y-12014238D02*
X10240667Y-12004714D01*
X10240667Y-12004714D02*
X10259714Y-11995190D01*
X10259714Y-11995190D02*
X10278762Y-11995190D01*
X10345429Y-12128524D02*
X10345429Y-11995190D01*
X10345429Y-11928524D02*
X10335905Y-11938048D01*
X10335905Y-11938048D02*
X10345429Y-11947571D01*
X10345429Y-11947571D02*
X10354952Y-11938048D01*
X10354952Y-11938048D02*
X10345429Y-11928524D01*
X10345429Y-11928524D02*
X10345429Y-11947571D01*
X10469238Y-12128524D02*
X10450190Y-12119000D01*
X10450190Y-12119000D02*
X10440667Y-12099952D01*
X10440667Y-12099952D02*
X10440667Y-11928524D01*
X10574000Y-12128524D02*
X10554952Y-12119000D01*
X10554952Y-12119000D02*
X10545429Y-12099952D01*
X10545429Y-12099952D02*
X10545429Y-11928524D01*
X10802571Y-12128524D02*
X10802571Y-11928524D01*
X10802571Y-11928524D02*
X10869238Y-12071381D01*
X10869238Y-12071381D02*
X10935905Y-11928524D01*
X10935905Y-11928524D02*
X10935905Y-12128524D01*
X11116857Y-12128524D02*
X11116857Y-12023762D01*
X11116857Y-12023762D02*
X11107333Y-12004714D01*
X11107333Y-12004714D02*
X11088286Y-11995190D01*
X11088286Y-11995190D02*
X11050190Y-11995190D01*
X11050190Y-11995190D02*
X11031143Y-12004714D01*
X11116857Y-12119000D02*
X11097810Y-12128524D01*
X11097810Y-12128524D02*
X11050190Y-12128524D01*
X11050190Y-12128524D02*
X11031143Y-12119000D01*
X11031143Y-12119000D02*
X11021619Y-12099952D01*
X11021619Y-12099952D02*
X11021619Y-12080905D01*
X11021619Y-12080905D02*
X11031143Y-12061857D01*
X11031143Y-12061857D02*
X11050190Y-12052333D01*
X11050190Y-12052333D02*
X11097810Y-12052333D01*
X11097810Y-12052333D02*
X11116857Y-12042809D01*
X11212095Y-11995190D02*
X11212095Y-12195190D01*
X11212095Y-12004714D02*
X11231143Y-11995190D01*
X11231143Y-11995190D02*
X11269238Y-11995190D01*
X11269238Y-11995190D02*
X11288286Y-12004714D01*
X11288286Y-12004714D02*
X11297809Y-12014238D01*
X11297809Y-12014238D02*
X11307333Y-12033286D01*
X11307333Y-12033286D02*
X11307333Y-12090428D01*
X11307333Y-12090428D02*
X11297809Y-12109476D01*
X11297809Y-12109476D02*
X11288286Y-12119000D01*
X11288286Y-12119000D02*
X11269238Y-12128524D01*
X11269238Y-12128524D02*
X11231143Y-12128524D01*
X11231143Y-12128524D02*
X11212095Y-12119000D01*
X11393048Y-12109476D02*
X11402571Y-12119000D01*
X11402571Y-12119000D02*
X11393048Y-12128524D01*
X11393048Y-12128524D02*
X11383524Y-12119000D01*
X11383524Y-12119000D02*
X11393048Y-12109476D01*
X11393048Y-12109476D02*
X11393048Y-12128524D01*
X11393048Y-12004714D02*
X11402571Y-12014238D01*
X11402571Y-12014238D02*
X11393048Y-12023762D01*
X11393048Y-12023762D02*
X11383524Y-12014238D01*
X11383524Y-12014238D02*
X11393048Y-12004714D01*
X11393048Y-12004714D02*
X11393048Y-12023762D01*
M02*
